<?xml version="1.0" standalone="no"?>
<!DOCTYPE svg PUBLIC "-//W3C//DTD SVG 20010904//EN"
 "http://www.w3.org/TR/2001/REC-SVG-20010904/DTD/svg10.dtd">
<svg version="1.0" xmlns="http://www.w3.org/2000/svg"
 width="736.000000pt" height="736.000000pt" viewBox="0 0 736.000000 736.000000"
 preserveAspectRatio="xMidYMid meet">
<metadata>
Created by potrace 1.14, written by Peter Selinger 2001-2017
</metadata>
<g transform="translate(0.000000,736.000000) scale(0.100000,-0.100000)"
fill="#000000" stroke="none">
<path d="M5825 7341 c-49 -30 -131 -134 -175 -220 -27 -55 -74 -197 -84 -256
-3 -16 -12 -61 -20 -100 -8 -38 -18 -83 -21 -100 -13 -62 -8 -195 10 -298 12
-61 57 -186 95 -262 22 -44 40 -83 40 -86 0 -4 -35 -22 -77 -39 -186 -78 -289
-135 -428 -240 -213 -159 -372 -343 -629 -728 -84 -125 -185 -271 -224 -325
-39 -54 -74 -107 -77 -118 -4 -11 -10 -19 -13 -17 -142 75 -146 76 -447 83
-287 7 -354 7 -400 0 -54 -9 -141 -43 -155 -60 -19 -23 -27 -19 -57 28 -15 23
-30 44 -33 47 -16 15 -123 168 -241 345 -243 365 -384 533 -579 691 -142 115
-326 222 -477 279 -40 15 -75 30 -77 34 -3 4 11 38 31 76 121 232 145 436 84
715 -39 179 -73 276 -122 358 -90 148 -178 223 -222 189 -27 -21 -23 -39 30
-147 121 -244 151 -495 88 -741 -32 -121 -91 -242 -184 -374 -54 -78 -56 -82
-56 -146 0 -59 4 -71 38 -123 44 -67 107 -117 278 -225 199 -124 262 -174 403
-316 115 -116 274 -315 355 -447 78 -123 210 -383 271 -528 24 -58 54 -118 66
-135 21 -29 28 -65 14 -65 -14 0 -51 -102 -71 -193 -23 -106 -26 -165 -9 -227
19 -70 20 -78 26 -191 3 -58 7 -114 9 -125 2 -10 4 -25 4 -33 1 -8 23 -35 49
-60 127 -121 218 -301 288 -571 55 -213 124 -400 189 -512 25 -42 47 -92 49
-110 9 -77 59 -206 85 -223 6 -3 20 -26 32 -50 12 -25 25 -42 28 -39 3 3 4 93
3 200 -3 194 3 249 32 273 10 8 22 -8 55 -73 35 -72 46 -86 75 -96 66 -22 127
23 162 120 10 28 21 50 25 50 4 0 16 -19 27 -42 18 -39 19 -62 17 -246 -1
-111 -1 -202 0 -202 1 0 26 36 55 79 51 78 83 159 93 233 2 20 23 68 44 106
65 112 157 359 188 502 2 8 17 60 34 115 63 210 137 353 231 445 68 67 80 87
87 148 2 26 13 81 22 122 14 56 18 109 16 205 -2 72 -5 140 -8 152 -3 12 -13
46 -21 75 -8 29 -18 69 -21 89 -3 20 -14 44 -25 54 -27 25 -25 70 4 101 13 14
42 72 66 127 94 226 196 421 308 591 36 55 71 107 78 115 259 322 377 430 678
616 204 127 288 223 289 331 1 48 -5 60 -75 165 -121 182 -175 319 -195 494
-25 216 22 440 137 648 35 63 36 70 14 91 -20 21 -42 20 -79 -3z m55 -25 c0
-2 -20 -43 -44 -92 -48 -98 -79 -182 -103 -283 -18 -77 -25 -290 -12 -372 14
-91 55 -221 96 -305 42 -87 121 -214 132 -214 12 0 41 -75 41 -106 -1 -91 -79
-173 -291 -309 -201 -128 -276 -185 -391 -297 -93 -91 -127 -128 -198 -218
-19 -24 -40 -48 -45 -54 -44 -47 -142 -198 -248 -381 -40 -69 -147 -295 -190
-402 -44 -109 -99 -162 -152 -149 -81 21 -226 266 -221 374 2 31 17 61 76 143
41 57 144 208 230 334 85 127 168 248 185 270 256 343 546 575 870 696 98 36
105 54 60 141 -61 117 -98 223 -113 323 -13 91 -6 285 12 313 2 4 7 25 10 47
13 86 57 241 85 301 53 114 156 244 193 244 10 0 18 -2 18 -4z m-4273 -43
c111 -106 185 -256 218 -440 3 -18 12 -61 20 -95 23 -104 25 -119 25 -213 0
-123 -36 -269 -102 -407 -64 -134 -62 -142 43 -182 98 -38 261 -123 355 -187
239 -161 411 -351 677 -749 83 -124 185 -272 227 -330 109 -150 108 -148 87
-228 -37 -139 -114 -263 -188 -300 -77 -39 -119 -4 -184 153 -123 301 -284
579 -466 805 -193 238 -323 350 -634 546 -227 143 -298 263 -221 372 121 171
179 287 215 430 64 254 35 504 -87 752 -26 52 -48 98 -50 102 -9 22 30 4 65
-29z m2298 -2677 c146 -4 173 -9 242 -45 46 -23 59 -41 68 -89 9 -54 55 -171
90 -231 38 -65 102 -127 140 -137 14 -3 25 -8 25 -9 0 -2 -31 -36 -70 -75 -86
-89 -118 -149 -114 -215 6 -101 65 -236 176 -404 40 -62 60 -83 81 -88 15 -3
27 -8 27 -10 0 -3 -19 -24 -43 -47 -53 -51 -96 -112 -143 -206 -33 -66 -91
-212 -99 -251 -11 -50 -69 -249 -100 -344 -41 -120 -72 -191 -122 -276 -33
-55 -39 -73 -48 -133 -9 -57 -52 -166 -66 -166 -5 0 -9 66 -9 148 0 165 -15
221 -65 244 -32 15 -44 3 -70 -67 -24 -65 -64 -105 -105 -105 -30 0 -34 5 -76
95 -51 107 -67 116 -108 63 -35 -46 -39 -74 -39 -235 0 -79 -1 -143 -3 -143
-1 0 -11 16 -23 35 -22 38 -46 116 -56 180 -3 21 -19 60 -35 85 -70 109 -145
307 -200 530 -47 191 -139 402 -216 496 l-44 54 28 14 c52 27 188 190 198 238
24 114 -34 285 -170 501 -48 75 -52 87 -35 87 103 0 208 136 276 359 l28 92
50 25 c87 42 121 44 630 30z m-997 -583 c115 -169 191 -354 188 -453 -3 -70
-25 -106 -127 -212 -68 -72 -80 -76 -121 -41 -16 14 -21 41 -33 168 -11 116
-17 158 -30 200 -15 50 -12 122 9 222 20 92 53 173 72 173 2 0 21 -26 42 -57z
m1657 35 c19 -17 27 -35 30 -68 2 -25 6 -74 10 -110 6 -77 12 -108 29 -177 15
-55 12 -103 -10 -201 -15 -66 -52 -162 -63 -162 -15 1 -32 21 -84 100 -151
234 -190 385 -122 475 68 89 149 165 177 165 4 0 19 -10 33 -22z"/>
<path d="M3683 4091 l4 -321 -38 -50 c-53 -71 -73 -136 -74 -250 -1 -93 -2
-97 -48 -185 -58 -112 -67 -173 -32 -213 19 -21 26 -24 36 -15 10 10 9 16 -4
31 -27 30 -21 83 20 159 20 37 42 80 50 95 9 17 15 69 16 140 3 92 7 120 24
153 51 95 49 103 52 -236 5 -530 7 -628 13 -635 25 -24 27 29 24 477 -3 258
-1 467 4 464 5 -3 21 -29 36 -58 24 -46 27 -65 30 -165 3 -113 3 -113 49 -197
53 -98 67 -165 40 -195 -16 -18 -14 -40 6 -40 5 0 18 14 28 31 32 52 20 104
-58 249 -27 49 -30 63 -29 145 2 112 -11 158 -67 239 l-44 65 -4 313 c-3 287
-5 313 -21 316 -16 3 -17 -17 -13 -317z"/>
<path d="M3360 3162 c0 -86 61 -246 156 -412 53 -93 87 -216 110 -400 6 -52
23 -79 35 -58 8 12 7 29 -6 98 -2 14 -7 45 -10 69 -15 108 -55 231 -99 308
-87 150 -143 294 -151 384 -5 58 -35 68 -35 11z"/>
<path d="M4033 3193 c-8 -3 -13 -21 -13 -43 0 -76 -49 -200 -158 -400 -45 -83
-72 -179 -97 -343 -12 -73 -14 -112 -7 -119 15 -15 29 18 37 87 3 33 8 67 10
75 2 8 7 31 10 50 14 81 38 159 66 210 125 236 162 325 174 429 5 50 0 62 -22
54z"/>
<path d="M1319 3948 c-5 -55 3 -234 12 -243 15 -15 25 8 23 57 -2 24 -3 78 -3
121 -1 61 -4 77 -16 77 -8 0 -16 -6 -16 -12z"/>
<path d="M5984 3952 c-6 -4 -10 -58 -9 -127 0 -107 2 -120 18 -123 17 -3 18 6
16 123 -1 69 -5 128 -9 130 -3 2 -10 1 -16 -3z"/>
<path d="M1454 3795 c-21 -59 -24 -79 -15 -88 9 -9 14 -8 21 3 17 27 51 141
45 150 -13 21 -24 7 -51 -65z"/>
<path d="M6143 3858 c-13 -15 -53 -126 -53 -146 0 -7 7 -12 16 -10 19 4 66
136 55 156 -6 11 -9 11 -18 0z"/>
<path d="M1157 3843 c-9 -15 50 -148 67 -151 22 -5 21 1 -11 86 -25 65 -43 86
-56 65z"/>
<path d="M1247 3843 c-2 -5 -3 -17 -1 -28 1 -11 6 -39 9 -62 4 -28 11 -43 21
-43 16 0 17 22 8 94 -6 42 -24 61 -37 39z"/>
<path d="M1396 3842 c-3 -5 -8 -36 -12 -70 -5 -53 -4 -62 10 -62 14 0 29 57
31 119 0 17 -21 26 -29 13z"/>
<path d="M1649 3809 c-19 -22 -42 -50 -53 -62 -57 -68 -69 -88 -58 -99 8 -8
15 -8 20 -2 59 65 142 175 142 188 0 26 -15 19 -51 -25z"/>
<path d="M5815 3839 c-7 -10 40 -137 56 -154 7 -6 13 -5 18 3 5 8 -3 42 -18
82 -25 67 -44 90 -56 69z"/>
<path d="M5905 3840 c-3 -6 -3 -29 0 -53 3 -23 7 -49 8 -57 2 -15 9 -20 28
-20 10 0 6 61 -8 118 -5 23 -18 29 -28 12z"/>
<path d="M6056 3842 c-6 -10 -14 -57 -19 -117 -3 -27 20 -29 29 -3 4 13 7 26
6 29 -1 4 3 20 7 37 10 33 -9 76 -23 54z"/>
<path d="M6289 3784 c-24 -30 -56 -69 -71 -86 -34 -38 -39 -74 -8 -58 10 6 23
16 27 24 7 12 45 59 100 124 13 15 23 33 23 40 0 27 -29 9 -71 -44z"/>
<path d="M974 3809 c-3 -6 7 -25 22 -42 37 -40 40 -44 93 -105 40 -48 61 -58
61 -29 0 7 -14 28 -31 47 -133 153 -131 151 -145 129z"/>
<path d="M5637 3814 c-12 -13 -8 -21 31 -67 20 -24 55 -64 76 -90 39 -46 66
-60 66 -34 0 12 -43 65 -130 160 -19 21 -39 35 -43 31z"/>
<path d="M1517 3757 c-34 -53 -38 -91 -6 -64 19 15 69 93 69 107 0 26 -31 5
-63 -43z"/>
<path d="M6176 3753 c-21 -34 -32 -61 -27 -66 13 -13 24 -4 57 50 28 45 34 73
14 73 -5 0 -25 -26 -44 -57z"/>
<path d="M1100 3774 c0 -4 14 -31 31 -60 28 -50 59 -71 59 -41 0 23 -59 107
-75 107 -8 0 -15 -3 -15 -6z"/>
<path d="M5760 3767 c0 -15 53 -102 68 -111 26 -16 21 20 -9 70 -31 51 -59 70
-59 41z"/>
<path d="M1621 3672 c-47 -44 -55 -62 -27 -62 15 0 96 74 96 88 0 26 -21 18
-69 -26z"/>
<path d="M6276 3666 c-29 -25 -46 -48 -42 -55 11 -17 17 -14 70 33 29 25 46
48 42 54 -11 18 -17 15 -70 -32z"/>
<path d="M991 3673 c0 -10 21 -36 45 -57 34 -30 47 -37 57 -27 9 9 1 22 -33
56 -48 47 -71 56 -69 28z"/>
<path d="M5651 3676 c-9 -11 -2 -22 35 -55 47 -41 75 -52 73 -28 -1 6 -22 31
-49 55 -39 35 -49 40 -59 28z"/>
<path d="M1676 3633 c-51 -33 -66 -47 -57 -56 8 -8 19 -6 44 8 74 43 107 66
107 74 0 23 -31 14 -94 -26z"/>
<path d="M6338 3629 c-66 -39 -78 -52 -59 -63 16 -10 141 67 141 87 0 24 -6
22 -82 -24z"/>
<path d="M920 3617 c0 -12 121 -87 140 -87 4 0 10 6 13 13 3 9 -19 27 -63 50
-73 40 -90 44 -90 24z"/>
<path d="M5582 3621 c-17 -10 -3 -24 60 -59 62 -34 88 -40 88 -19 0 18 -133
88 -148 78z"/>
<path d="M1710 3572 c-35 -11 -56 -24 -58 -35 -4 -22 11 -21 78 3 30 11 56 20
57 20 1 0 0 7 -3 15 -7 18 -5 18 -74 -3z"/>
<path d="M6356 3562 c-54 -19 -73 -42 -34 -42 39 0 118 31 118 46 0 18 -22 17
-84 -4z"/>
<path d="M929 3539 c-19 -11 -4 -23 55 -43 61 -20 76 -20 76 -2 0 18 -112 57
-131 45z"/>
<path d="M5580 3526 c0 -20 121 -60 131 -44 11 17 3 22 -55 42 -61 20 -76 20
-76 2z"/>
<path d="M1757 3511 c-48 -10 -91 -17 -95 -17 -4 1 -8 -7 -10 -16 -4 -23 11
-23 138 2 56 11 103 20 106 20 2 0 4 7 4 15 0 19 -30 18 -143 -4z"/>
<path d="M6418 3507 c-91 -17 -108 -24 -108 -39 0 -15 5 -17 28 -13 15 3 41 8
57 10 17 3 41 7 55 10 14 4 36 8 50 11 47 9 61 16 57 27 -5 17 -21 17 -139 -6z"/>
<path d="M807 3484 c-19 -19 -6 -25 83 -39 19 -3 59 -10 89 -15 70 -13 71 -13
71 4 0 20 -8 24 -75 31 -33 4 -63 9 -67 11 -13 8 -94 14 -101 8z"/>
<path d="M5468 3481 c-27 -10 -7 -28 37 -35 22 -4 56 -9 75 -12 19 -3 54 -9
77 -14 44 -8 53 -5 53 16 0 11 -64 26 -174 39 -21 3 -41 7 -45 9 -3 2 -14 1
-23 -3z"/>
<path d="M1670 3418 c0 -15 8 -17 58 -15 31 1 63 6 70 10 25 17 -1 27 -64 25
-54 -2 -64 -5 -64 -20z"/>
<path d="M6356 3430 c-36 -6 -47 -30 -14 -31 60 -2 114 4 120 14 4 6 5 13 4
15 -6 6 -81 7 -110 2z"/>
<path d="M1307 3395 c-31 -18 -31 -7 7 -165 32 -134 39 -180 26 -180 -6 0 -9
3 -9 8 3 20 -2 31 -14 26 -15 -5 -41 -119 -32 -135 12 -18 32 9 39 52 9 56 23
41 25 -27 1 -31 4 -60 6 -64 3 -4 7 -29 10 -56 3 -27 13 -77 21 -112 7 -35 14
-71 14 -80 0 -9 -31 -49 -69 -89 -114 -117 -115 -79 14 -438 46 -126 86 -247
89 -268 9 -58 45 -135 76 -160 15 -13 31 -30 36 -39 5 -9 61 -56 124 -103 211
-160 336 -269 360 -316 16 -31 141 -196 175 -231 157 -166 238 -374 205 -524
-42 -187 -25 -289 62 -376 92 -92 264 -127 415 -83 32 9 93 35 135 57 66 34
80 46 99 84 21 44 21 53 15 262 -4 119 -9 237 -11 262 -5 53 -34 286 -40 315
-10 60 -19 132 -17 150 1 11 13 53 27 94 18 50 26 95 27 140 1 127 -15 184
-117 416 -31 72 -62 144 -70 160 -7 17 -20 53 -30 80 -10 28 -34 82 -55 120
-74 141 -150 337 -164 426 -15 98 -149 480 -177 505 -25 22 -77 25 -109 7 -37
-21 -65 -67 -94 -153 -31 -93 -36 -167 -19 -243 16 -68 12 -75 -49 -102 -24
-11 -55 -27 -70 -38 -29 -19 -214 -97 -231 -97 -6 0 -33 -11 -61 -24 -94 -44
-92 -44 -111 20 -9 31 -19 77 -21 103 l-6 46 41 17 c74 30 275 155 318 197 47
47 62 95 44 139 -24 57 -33 57 -253 -7 -112 -33 -210 -62 -219 -66 -22 -8 -51
53 -54 115 -1 26 -6 58 -9 71 -6 21 -3 19 29 -13 37 -40 55 -47 55 -24 0 13
-58 85 -93 115 -10 9 -32 45 -48 81 -61 132 -159 190 -242 145z m123 -42 c32
-21 45 -37 74 -93 37 -70 67 -167 77 -249 4 -40 16 -85 24 -98 16 -24 15 -26
-42 -86 -32 -34 -73 -79 -90 -99 -18 -21 -34 -38 -37 -38 -5 0 -25 88 -32 140
-3 19 -7 46 -10 60 -3 14 -7 66 -10 115 -5 78 -13 127 -41 255 -11 51 -12 55
-13 55 -1 0 -3 9 -5 20 -9 43 51 53 105 18z m1061 -279 c23 -28 135 -368 173
-528 21 -89 74 -222 146 -366 31 -63 63 -133 70 -155 13 -39 56 -143 109 -260
15 -33 36 -82 45 -110 10 -27 22 -59 27 -70 18 -42 28 -111 25 -184 -4 -96
-22 -158 -49 -165 -17 -4 -18 -10 -12 -43 4 -21 9 -51 11 -68 1 -16 6 -50 9
-75 4 -25 9 -61 11 -80 3 -19 7 -46 10 -60 2 -14 7 -50 10 -80 3 -30 7 -68 9
-85 6 -45 16 -234 19 -380 5 -192 -6 -210 -179 -280 -60 -25 -84 -29 -165 -29
-112 0 -134 4 -199 40 -57 31 -80 53 -111 108 -31 56 -35 119 -15 227 21 115
21 186 0 262 -14 53 -70 184 -84 197 -3 3 -17 21 -30 40 -24 34 -101 127 -149
180 -13 14 -48 61 -77 105 -64 96 -73 107 -146 171 -79 70 -90 79 -222 179
-65 50 -128 97 -139 106 -18 14 -20 23 -14 60 4 24 8 55 10 69 20 135 91 369
152 497 40 85 34 81 246 162 84 32 169 68 188 79 49 29 199 102 210 102 12 0
30 -34 30 -57 0 -24 -141 -171 -207 -215 -28 -20 -85 -51 -125 -71 -108 -53
-168 -122 -168 -194 0 -6 -16 -21 -36 -33 -64 -40 -67 -51 -79 -285 -4 -66 -7
-131 -8 -144 -1 -13 3 -26 9 -28 23 -8 30 39 39 250 5 136 14 156 84 192 43
21 178 55 278 70 45 6 76 -2 199 -53 180 -75 198 -89 157 -124 -32 -26 -67
-35 -128 -32 -64 3 -65 4 -134 23 -39 11 -51 10 -105 -10 -34 -12 -71 -29 -84
-37 -34 -22 -64 -69 -69 -110 -3 -20 -10 -65 -17 -100 -10 -50 -10 -64 0 -73
7 -5 15 -6 18 -1 9 14 27 103 31 150 6 65 41 105 121 134 61 23 70 24 106 11
22 -7 65 -16 96 -19 32 -4 59 -7 62 -7 19 -3 89 18 111 34 33 23 56 83 40 103
-6 7 -40 25 -76 41 -36 15 -65 32 -66 39 0 6 -2 19 -4 29 -2 10 -6 51 -10 90
-3 40 -8 101 -11 137 -12 129 -12 125 21 128 62 6 135 32 135 48 0 13 -6 15
-27 10 -82 -18 -135 -27 -139 -23 -2 2 3 21 11 41 18 43 14 64 -21 106 -22 26
-28 28 -50 18 -13 -6 -27 -9 -30 -6 -11 12 -19 74 -18 144 0 84 41 208 81 248
29 29 74 34 94 10z m-391 -99 c31 -38 11 -85 -60 -139 -58 -44 -262 -162 -307
-176 -22 -8 -33 -18 -33 -31 0 -57 -124 -205 -208 -248 -23 -12 -42 -26 -42
-31 0 -17 43 -11 78 10 18 11 35 20 38 20 3 0 22 -38 44 -84 l38 -84 -60 -224
c-33 -123 -64 -227 -68 -231 -8 -9 -36 45 -44 83 -15 81 -19 94 -135 410 -34
90 -61 177 -61 193 0 21 19 47 79 110 43 45 98 104 122 132 80 92 154 167 173
177 10 6 80 28 155 50 75 22 163 48 196 58 76 23 80 23 95 5z m-366 -518 c16
-65 16 -68 -2 -92 -10 -13 -27 -44 -36 -69 -10 -26 -21 -44 -25 -41 -5 2 -23
38 -41 80 l-33 75 27 21 c14 11 38 41 52 65 15 25 30 42 34 37 4 -4 15 -38 24
-76z m661 -62 c3 -44 8 -96 10 -115 2 -19 7 -68 10 -107 5 -67 4 -72 -12 -66
-10 3 -22 9 -28 13 -12 8 -126 43 -140 43 -30 -1 -141 -19 -200 -34 -84 -20
-85 -20 -85 -2 0 41 51 90 143 138 119 63 175 102 238 165 28 28 52 50 54 48
2 -2 6 -39 10 -83z"/>
<path d="M2320 1596 c0 -9 26 -23 68 -36 76 -25 225 -91 230 -102 2 -5 9 -8
15 -8 26 0 130 -94 164 -148 45 -71 41 -68 54 -55 16 16 -33 102 -85 151 -76
71 -200 139 -340 186 -90 30 -106 32 -106 12z"/>
<path d="M5945 3391 c-59 -36 -107 -114 -145 -234 -6 -20 -17 -43 -23 -50 -40
-42 -68 -90 -59 -99 7 -7 17 -3 31 11 l22 22 -6 -46 c-5 -48 -23 -85 -40 -85
-5 0 -106 28 -223 62 -211 61 -213 61 -233 42 -48 -49 -36 -129 27 -184 37
-31 212 -139 293 -179 33 -17 61 -35 61 -39 0 -9 -37 -158 -45 -180 -4 -10
-13 -9 -42 3 -21 9 -92 37 -158 62 -99 38 -325 147 -325 158 0 1 6 20 14 42
40 114 -12 337 -96 408 -27 23 -39 26 -71 22 -22 -3 -48 -14 -57 -24 -26 -27
-155 -406 -174 -509 -9 -51 -14 -67 -46 -154 -17 -47 -65 -155 -105 -240 -41
-85 -75 -159 -75 -163 0 -5 -38 -97 -85 -205 -104 -241 -126 -324 -120 -436 4
-80 25 -167 46 -192 6 -8 8 -31 5 -56 -5 -38 -37 -291 -51 -403 -16 -126 -25
-499 -13 -543 13 -48 49 -78 143 -123 97 -46 158 -60 249 -60 195 0 347 126
352 291 2 36 -4 97 -12 135 -14 64 -20 169 -11 205 26 110 83 224 155 310 25
30 50 60 57 65 22 20 143 181 158 211 24 46 87 105 252 237 187 148 175 139
208 160 15 10 33 29 39 42 6 13 19 25 28 28 25 7 55 68 80 166 11 46 27 99 35
119 73 193 141 387 151 430 12 53 12 53 -19 90 -18 20 -48 52 -67 72 -77 79
-72 65 -50 171 11 52 20 104 20 116 0 12 8 29 17 38 13 13 16 33 15 89 -1 39
-4 81 -6 92 -3 12 0 39 5 60 5 22 11 53 14 69 3 17 14 58 24 92 10 33 16 65
12 70 -23 36 -109 43 -156 14z m116 -26 c4 -3 1 -25 -7 -50 -7 -25 -13 -47
-14 -50 0 -3 -2 -10 -4 -17 -14 -50 -28 -140 -31 -210 -4 -80 -7 -100 -21
-178 -3 -19 -7 -42 -8 -50 -9 -62 -19 -111 -25 -115 -4 -2 -23 15 -42 38 -19
23 -59 67 -90 98 l-56 57 19 36 c10 19 20 62 23 93 4 64 10 84 49 187 44 117
109 181 170 170 16 -3 33 -7 37 -9z m-1090 -282 c33 -20 75 -108 96 -203 6
-31 6 -118 0 -145 -3 -11 -6 -24 -6 -30 -3 -28 -18 -37 -42 -25 -21 12 -26 10
-51 -21 -32 -38 -36 -82 -12 -117 12 -17 12 -22 2 -23 -32 -4 -80 3 -117 16
-34 12 -40 12 -45 -1 -9 -23 67 -50 142 -53 23 -1 23 -3 18 -78 -4 -43 -9
-103 -12 -133 -10 -102 -12 -125 -13 -153 -1 -25 -9 -32 -76 -62 -68 -31 -75
-37 -75 -63 0 -35 33 -79 69 -94 44 -18 147 -18 214 0 72 20 70 20 122 2 97
-33 130 -72 140 -165 8 -84 19 -120 39 -123 15 -3 17 1 12 25 -9 47 -16 86
-22 133 -10 84 -60 132 -177 170 -30 9 -48 9 -85 0 -140 -36 -219 -31 -263 16
-31 33 -23 40 141 111 110 47 145 58 190 58 135 0 343 -65 371 -117 13 -24 18
-71 24 -213 4 -108 11 -174 19 -183 7 -6 36 11 31 18 -6 10 -11 70 -20 240 -8
149 -12 159 -82 209 -22 15 -33 31 -33 47 0 63 -60 124 -182 184 -104 52 -161
94 -234 174 -96 106 -96 105 -69 143 l15 22 80 -39 c44 -21 99 -49 122 -63 24
-13 97 -46 163 -71 264 -103 241 -88 284 -180 33 -68 94 -233 106 -286 2 -8
10 -44 19 -80 8 -36 17 -78 19 -95 3 -16 8 -41 11 -55 21 -88 21 -89 -109
-184 -173 -128 -375 -306 -375 -331 0 -13 -100 -146 -170 -225 -122 -138 -187
-260 -210 -393 -12 -69 -11 -96 13 -231 18 -100 15 -143 -17 -209 -42 -87
-157 -148 -285 -152 -89 -3 -162 15 -259 63 -99 49 -114 74 -113 190 3 145 10
313 16 382 4 36 8 81 10 100 5 53 18 150 40 305 18 123 18 145 1 145 -37 0
-61 165 -41 282 8 44 54 164 117 308 33 74 68 158 78 185 10 28 42 100 71 160
87 177 159 361 159 405 0 23 66 240 117 385 30 85 45 113 64 122 30 16 26 16
60 -4z m405 -112 c114 -27 333 -96 361 -113 18 -10 61 -51 95 -91 82 -92 153
-170 204 -222 23 -23 49 -54 59 -68 20 -30 18 -37 -49 -222 -27 -71 -65 -177
-86 -235 -21 -58 -41 -123 -45 -145 -4 -22 -16 -60 -27 -85 -19 -42 -20 -44
-29 -22 -5 13 -11 33 -14 45 -2 12 -14 56 -25 97 -36 128 -70 254 -76 280 -4
17 8 54 33 112 l39 86 39 -24 c22 -13 48 -24 58 -24 31 0 18 26 -21 44 -42 19
-169 145 -189 186 -6 14 -14 37 -17 51 -5 21 -21 34 -78 61 -105 50 -255 145
-300 190 -41 41 -47 70 -22 106 12 17 19 20 33 12 10 -5 36 -14 57 -19z m388
-539 l26 -20 -38 -82 -39 -83 -38 77 -38 78 17 75 18 75 34 -50 c18 -27 44
-59 58 -70z m-654 -53 c17 -18 113 -77 179 -109 42 -21 88 -51 103 -66 26 -28
53 -83 44 -91 -2 -2 -28 3 -57 11 -30 8 -82 20 -116 26 -35 5 -74 12 -88 15
-24 4 -154 -33 -197 -56 -18 -9 -19 -8 -13 23 3 18 7 58 10 88 2 30 7 93 11
140 4 47 8 92 10 100 1 8 3 17 3 20 1 3 85 -73 111 -101z"/>
<path d="M4955 1585 c-119 -42 -227 -97 -297 -152 -59 -47 -128 -135 -128
-165 0 -31 19 -29 36 4 60 117 207 216 426 288 73 23 85 32 65 47 -8 7 -41 0
-102 -22z"/>
<path d="M896 3391 c-10 -15 15 -25 69 -28 59 -3 76 2 70 19 -6 16 -130 24
-139 9z"/>
<path d="M5558 3388 c-22 -13 4 -26 60 -30 33 -3 59 0 70 8 15 11 15 13 2 18
-26 9 -120 12 -132 4z"/>
<path d="M1670 3367 c0 -17 32 -27 113 -34 46 -4 57 -2 57 10 0 15 -23 22
-117 33 -43 5 -53 3 -53 -9z"/>
<path d="M6330 3359 c0 -11 7 -19 18 -20 9 0 26 -2 37 -4 63 -12 104 -14 109
-6 10 15 -17 29 -69 36 -27 4 -60 8 -72 10 -17 3 -23 -1 -23 -16z"/>
<path d="M1005 3335 c-5 -1 -36 -8 -67 -15 -41 -8 -58 -16 -58 -27 0 -13 8
-14 48 -8 80 11 122 25 122 40 0 14 -20 18 -45 10z"/>
<path d="M5689 3336 c-2 -2 -20 -6 -39 -9 -19 -2 -54 -10 -78 -16 -37 -10 -42
-14 -31 -27 7 -8 19 -12 28 -9 9 4 34 9 56 12 61 8 85 20 79 38 -7 16 -8 17
-15 11z"/>
<path d="M1672 3322 c-24 -8 -11 -23 43 -48 58 -28 98 -27 75 1 -7 8 -17 15
-22 15 -5 0 -26 8 -47 18 -20 10 -42 17 -49 14z"/>
<path d="M6320 3305 c0 -9 19 -24 45 -35 59 -26 79 -28 82 -10 2 10 -15 22
-52 38 -66 26 -75 27 -75 7z"/>
<path d="M993 3267 c-53 -22 -72 -41 -49 -50 19 -7 121 39 124 57 4 21 -12 20
-75 -7z"/>
<path d="M5695 3281 c-2 -5 -17 -12 -31 -15 -41 -11 -77 -37 -65 -49 13 -13
131 32 131 49 0 15 -27 26 -35 15z"/>
<path d="M1626 3264 c-6 -15 -3 -17 112 -82 93 -52 115 -60 110 -37 -1 9 -44
41 -94 69 -113 65 -121 68 -128 50z"/>
<path d="M6285 3260 c-8 -14 3 -30 21 -30 8 0 14 -4 14 -10 0 -5 4 -10 9 -10
4 0 41 -18 81 -40 40 -22 79 -40 86 -40 26 0 14 26 -18 43 -18 9 -66 34 -107
57 -83 45 -78 43 -86 30z"/>
<path d="M980 3182 c-52 -32 -96 -66 -98 -75 -3 -14 1 -15 20 -8 43 16 201
116 200 126 -2 22 -31 12 -122 -43z"/>
<path d="M5720 3225 c-7 -8 -16 -15 -20 -15 -9 0 -149 -85 -164 -100 -6 -6 -4
-12 7 -16 20 -7 212 106 212 126 0 20 -20 23 -35 5z"/>
<path d="M1600 3213 c0 -13 14 -27 58 -62 32 -25 46 -31 55 -22 12 12 -2 28
-60 69 -31 22 -53 28 -53 15z"/>
<path d="M6261 3202 c0 -24 93 -92 110 -82 10 7 2 19 -31 49 -50 45 -80 58
-79 33z"/>
<path d="M1055 3144 c-36 -31 -47 -46 -39 -54 8 -8 25 1 62 31 29 22 52 44 52
49 0 23 -31 13 -75 -26z"/>
<path d="M5711 3139 c-48 -38 -57 -59 -27 -59 8 0 31 16 52 35 22 19 42 35 47
35 4 0 7 7 7 15 0 25 -25 17 -79 -26z"/>
<path d="M6226 3161 c-5 -7 16 -34 80 -104 24 -25 44 -28 44 -6 0 5 -17 28
-37 50 -21 23 -42 47 -46 55 -9 16 -33 19 -41 5z"/>
<path d="M1128 3123 c-13 -16 -37 -45 -53 -65 -23 -33 -25 -39 -11 -44 11 -4
24 3 37 20 11 14 26 32 33 39 18 18 46 60 46 69 0 17 -28 7 -52 -19z"/>
<path d="M1170 3074 c-18 -30 -29 -62 -26 -70 8 -21 23 -10 49 39 35 66 37 75
22 81 -9 3 -25 -14 -45 -50z"/>
<path d="M6185 3110 c16 -49 57 -109 71 -103 8 3 14 9 12 13 -26 64 -56 110
-71 110 -14 0 -17 -5 -12 -20z"/>
<path d="M6127 3113 c-10 -16 73 -233 89 -233 24 0 21 15 -21 125 -40 102 -56
128 -68 108z"/>
<path d="M1242 3083 c-27 -70 -52 -145 -52 -152 0 -5 6 -11 14 -14 10 -4 18 5
26 31 6 20 15 46 19 57 5 11 14 33 20 48 6 15 11 34 11 42 0 26 -27 16 -38
-12z"/>
<path d="M6075 3088 c-6 -14 -4 -30 9 -83 15 -60 15 -60 32 -44 12 12 13 22 4
43 -5 15 -10 38 -10 50 0 29 -27 55 -35 34z"/>
</g>
</svg>
