<svg xmlns="http://www.w3.org/2000/svg" width="144" height="184" viewBox="0 0 144 184">
  <path fill="#000" fill-rule="evenodd" d="M132.4731,123.9997 C132.0021,125.3967 128.2251,135.6607 128.1871,135.7637 L128.1661,135.8467 C127.9531,137.3327 127.3731,139.6637 126.6151,140.5007 L123.3741,128.6557 L125.4461,124.1817 C126.6501,125.1917 127.2741,125.3727 127.7851,125.5207 C127.9981,125.5827 128.2251,125.4587 128.2871,125.2427 C128.3491,125.0277 128.2251,124.8027 128.0101,124.7407 C127.4991,124.5927 126.9191,124.4257 125.5821,123.2257 C125.5781,123.2207 125.5731,123.2167 125.5681,123.2127 C125.1561,122.8417 124.6891,122.3877 124.1811,121.8607 C121.9371,119.5347 122.0321,118.0937 122.0331,118.0857 L122.0791,117.6927 L121.6881,117.6367 C120.6961,117.4907 117.2631,115.4287 115.9911,114.6267 C115.9581,114.6097 112.6821,112.9337 111.9161,111.2897 C111.3681,110.1117 112.1011,109.3647 112.4351,109.1027 L122.8411,112.1137 C122.8531,112.1177 124.0371,112.5787 126.2521,115.2607 C127.6281,116.9267 129.5671,118.9527 130.9821,120.4327 C131.7471,121.2327 132.5381,122.0597 132.6721,122.2497 C132.6891,122.2977 132.8621,122.8457 132.4731,123.9997 L132.4731,123.9997 Z M104.9671,121.6977 C106.3961,123.3267 108.6671,125.7247 112.3641,127.2737 C115.6041,128.6337 115.9991,130.5917 116.0221,131.3557 C113.3711,130.4237 109.1401,129.9047 108.9441,129.8827 C108.3291,129.7657 106.1561,130.5927 104.0141,131.5057 C104.1551,130.5677 104.3231,128.8407 104.5951,125.5657 C104.7371,123.8677 104.8821,122.1167 104.9671,121.6977 L104.9671,121.6977 Z M124.8761,142.2637 C124.7141,142.3907 124.3801,142.6397 123.9221,142.9807 C119.2381,146.4727 113.7601,150.7067 112.9771,152.4787 C112.5141,153.5267 110.6431,155.9417 107.7081,159.2817 C105.7531,161.5077 104.3651,164.1197 103.6921,166.8367 C103.3611,168.1737 103.2371,169.3607 103.3231,170.3677 C103.3651,170.8597 103.6111,172.2827 104.0541,174.5957 C104.5761,177.3137 103.3381,180.0517 100.9771,181.4057 C96.0351,184.2427 90.9251,181.9267 88.3191,180.2927 C87.4731,179.7627 86.9531,178.8637 86.9291,177.8887 C86.8951,176.5427 86.9711,174.6357 87.0521,172.6147 C87.0981,171.4787 87.1451,170.3097 87.1731,169.1917 C87.2851,164.9007 89.0431,153.5967 89.0611,153.4817 C89.0781,153.3717 89.0491,153.2657 88.9891,153.1817 C88.9271,153.0977 88.8331,153.0357 88.7221,153.0187 C88.5611,152.9927 88.4081,153.0687 88.3231,153.1967 C86.8561,150.0357 87.5381,146.4817 87.5471,146.4397 L87.5551,146.3637 C87.5721,144.8107 89.8291,139.7907 91.1791,136.7917 C91.7981,135.4137 92.2451,134.4177 92.3501,134.0587 C92.6731,132.9407 92.9071,132.1347 93.9501,130.2487 C94.9771,128.3927 97.7721,122.3717 98.2801,119.1727 C98.7361,116.2977 101.8361,107.9957 102.1811,107.0777 C102.3311,106.9377 102.8161,106.5337 103.4471,106.5687 C104.0351,106.5977 104.6201,106.9897 105.1881,107.7347 C105.3861,108.1157 107.6411,112.5637 106.6391,116.0267 C106.4931,116.5337 106.3461,116.9827 106.2031,117.3867 C105.6181,117.1107 105.2111,116.9267 105.1611,116.9027 L104.9371,116.8027 L104.7441,116.9527 C104.6961,116.9897 103.5661,117.8817 103.4631,119.0597 C103.4131,119.6327 103.6081,120.1647 104.0401,120.6417 C104.1441,120.7547 104.2541,120.8807 104.3691,121.0127 C104.3461,121.0567 104.3241,121.1017 104.3031,121.1447 C103.7531,121.1797 102.2441,121.1817 100.3821,120.4287 C100.1751,120.3447 99.9381,120.4447 99.8541,120.6527 C99.7701,120.8597 99.8701,121.0977 100.0781,121.1817 C101.7211,121.8467 103.1061,121.9707 103.9081,121.9707 C103.9831,121.9707 104.0441,121.9677 104.1091,121.9657 C104.0271,122.6287 103.9271,123.8047 103.7861,125.4987 C103.6021,127.7127 103.3321,130.9427 103.1261,131.8907 C101.7151,132.5087 100.4191,133.1127 99.7221,133.4417 L99.5441,133.5257 L99.4991,133.7157 C99.4941,133.7387 98.9941,136.0147 101.9971,136.7697 C104.4821,137.3937 107.6111,136.2847 108.2991,136.0207 C108.5801,136.1037 109.2881,136.3187 110.1001,136.6317 C110.4721,136.7737 110.8251,136.9217 111.1471,137.0697 C111.1701,137.0797 111.1911,137.0947 111.2131,137.1047 C112.2411,137.6047 112.9391,138.6027 113.0371,139.7297 C113.1391,140.8877 113.3331,142.4897 113.6801,143.5527 C113.7361,143.7247 113.8951,143.8327 114.0661,143.8327 C114.1081,143.8327 114.1511,143.8257 114.1921,143.8117 C114.3671,143.7557 114.4691,143.5917 114.4651,143.4177 C114.4651,143.3787 114.4641,143.3397 114.4521,143.3007 C114.1281,142.3107 113.9451,140.7737 113.8471,139.6597 C113.7201,138.2167 112.8161,136.9407 111.4861,136.3317 C111.1481,136.1767 110.7801,136.0227 110.3921,135.8737 C109.3071,135.4557 108.4241,135.2117 108.3871,135.2007 L108.2531,135.1647 L108.1251,135.2177 C108.0911,135.2307 104.6871,136.6077 102.1961,135.9817 C100.4011,135.5307 100.2481,134.5097 100.2681,134.0817 C104.0121,132.3227 108.1781,130.5867 108.8211,130.6847 C108.8831,130.6917 115.1561,131.4587 117.0401,132.7107 C118.6481,133.7777 118.6611,134.1287 118.7161,135.6057 C118.7221,135.7847 118.7301,135.9777 118.7411,136.1867 C118.7601,136.5877 118.7811,137.0907 118.8031,137.6437 C118.9351,140.8687 119.0411,142.6297 119.2531,143.3027 C119.2761,143.3717 119.2971,143.4337 119.3221,143.4787 C119.4241,143.6787 119.6681,143.7547 119.8681,143.6527 C120.0661,143.5507 120.1441,143.3057 120.0421,143.1057 C119.8211,142.6697 119.6871,139.3777 119.6151,137.6097 C119.5921,137.0547 119.5721,136.5487 119.5511,136.1457 C119.5401,135.9397 119.5341,135.7507 119.5271,135.5757 C119.5081,135.0627 119.4841,134.6517 119.4111,134.2927 C119.2391,133.4547 118.7941,132.9007 117.4901,132.0347 C117.3011,131.9097 117.0771,131.7897 116.8251,131.6747 C116.8781,131.0217 116.8361,128.2707 112.6781,126.5257 C108.8281,124.9107 106.6541,122.4057 105.2151,120.7487 C105.0081,120.5087 104.8171,120.2887 104.6411,120.0957 C104.3641,119.7897 104.2431,119.4747 104.2721,119.1327 C104.3221,118.5407 104.7981,118.0077 105.0641,117.7527 C105.9531,118.1617 109.0901,119.6247 110.4941,120.5227 C111.3601,121.0767 113.4811,121.8667 115.5331,122.6307 C117.3971,123.3247 119.3241,124.0427 120.0121,124.4797 C121.0011,125.1067 122.7911,130.0767 123.6891,133.0647 C123.6891,133.0657 123.6901,133.0677 123.6901,133.0687 C123.7081,133.1307 123.7431,133.1817 123.7831,133.2257 L124.2361,134.8797 C124.6911,137.0727 125.1021,139.3127 125.3231,140.5917 L125.3541,140.6917 C125.3701,140.7287 125.7501,141.5807 124.8761,142.2637 L124.8761,142.2637 Z M121.8221,120.0667 C121.9831,120.3687 122.1831,120.6977 122.4401,121.0547 C122.9441,122.0737 123.6961,123.0947 124.8001,123.6437 L122.9491,127.6437 L122.7951,127.9737 C122.7351,127.8177 122.6721,127.6647 122.6101,127.5117 C122.0311,126.0927 121.3941,124.7787 120.8101,124.1217 L121.8221,120.0667 Z M125.0781,109.4207 L125.0991,109.3327 L125.0821,109.2437 C124.7521,107.5067 126.4381,103.4437 127.1271,101.9987 C128.0201,100.5457 128.9911,99.7257 130.0121,99.5597 C130.7831,99.4367 131.4071,99.7257 131.7121,99.9107 C131.3711,101.1497 130.0541,106.0607 130.1461,107.5397 C130.2291,108.8777 129.8271,111.4167 129.5871,112.9337 C129.5471,113.1877 129.5121,113.4117 129.4841,113.5977 C129.3781,114.3027 129.0871,115.6397 128.7921,116.9227 C128.1091,116.1757 127.4441,115.4277 126.8781,114.7427 C125.5871,113.1807 124.6241,112.3277 123.9901,111.8647 C124.6421,111.0667 125.0301,109.6057 125.0781,109.4207 L125.0781,109.4207 Z M131.5691,119.8717 C130.9381,119.2117 130.2021,118.4397 129.4591,117.6447 C129.7951,116.2007 130.1611,114.5547 130.2861,113.7177 C130.3141,113.5347 130.3501,113.3117 130.3891,113.0607 C130.4731,112.5317 130.5761,111.8827 130.6711,111.1987 C130.7421,111.2577 130.8281,111.2957 130.9271,111.2957 L130.9371,111.2957 C131.1611,111.2897 131.3381,111.1037 131.3321,110.8797 L131.3091,109.9427 C131.3071,109.8827 131.2891,109.8257 131.2641,109.7737 C131.2871,109.7217 131.3011,109.6647 131.3001,109.6037 L131.2431,107.3637 C131.2381,107.1917 131.1231,107.0537 130.9731,106.9967 C131.1201,105.2967 132.1441,101.3747 132.5711,99.8527 L132.6411,99.6037 L132.4451,99.4357 C132.4021,99.3967 131.3661,98.5247 129.8981,98.7547 C128.6221,98.9557 127.4531,99.9097 126.4241,101.5927 L126.4051,101.6287 C126.3381,101.7667 125.3461,103.8547 124.7251,105.9777 L123.6881,107.2797 C123.6501,107.3277 123.6261,107.3817 123.6141,107.4377 C123.5621,107.4637 123.5141,107.4977 123.4761,107.5457 L122.8931,108.2777 C122.7531,108.4537 122.7821,108.7087 122.9571,108.8487 C123.0321,108.9077 123.1211,108.9367 123.2101,108.9367 C123.3291,108.9367 123.4481,108.8847 123.5281,108.7837 L124.1111,108.0517 C124.1491,108.0037 124.1721,107.9497 124.1861,107.8947 C124.2321,107.8707 124.2731,107.8377 124.3091,107.7967 C124.2271,108.3537 124.2031,108.8707 124.2691,109.3017 C124.0911,109.9617 123.7011,111.0007 123.2891,111.4267 C123.1851,111.3757 123.1191,111.3507 123.0901,111.3407 L112.3001,108.2187 L112.1481,108.3117 C111.4711,108.7277 110.3991,109.9567 111.1811,111.6337 C112.0651,113.5297 115.4791,115.2767 115.5901,115.3317 C116.0271,115.6077 119.6431,117.8767 121.2361,118.3597 C121.2481,118.4717 121.2721,118.6077 121.3091,118.7667 L120.1041,123.5997 C119.2061,123.1327 117.5531,122.5177 115.8161,121.8697 C113.8041,121.1207 111.7241,120.3467 110.9321,119.8387 C109.9601,119.2167 108.2481,118.3627 106.9391,117.7347 C107.0971,117.2967 107.2581,116.8077 107.4191,116.2527 C108.5551,112.3287 105.9981,107.5257 105.8881,107.3237 L105.8561,107.2717 C105.1261,106.3047 104.3261,105.7947 103.4751,105.7577 C102.3291,105.7087 101.5631,106.5447 101.5311,106.5797 L101.4791,106.6377 L101.4531,106.7087 C101.3101,107.0837 97.9711,115.9347 97.4781,119.0457 C96.9861,122.1457 94.2461,128.0347 93.2401,129.8547 C92.1521,131.8207 91.8961,132.7087 91.5711,133.8317 C91.4821,134.1377 90.9981,135.2127 90.4381,136.4587 C88.9851,139.6887 86.7941,144.5597 86.7441,146.3157 C86.6541,146.7927 85.9401,151.0067 88.0871,154.4747 C87.6371,157.4607 86.4541,165.5847 86.3621,169.1707 C86.3331,170.2847 86.2861,171.4497 86.2411,172.5827 C86.1601,174.6167 86.0821,176.5367 86.1181,177.9087 C86.1491,179.1577 86.8111,180.3057 87.8871,180.9797 C90.9671,182.9107 93.6671,183.5517 95.8981,183.5517 C98.3251,183.5517 100.1931,182.7927 101.3801,182.1097 C104.0431,180.5827 105.4381,177.5017 104.8521,174.4417 C104.3061,171.5967 104.1591,170.6177 104.1321,170.2987 C104.0531,169.3807 104.1701,168.2817 104.4801,167.0317 C105.1211,164.4397 106.4491,161.9457 108.3181,159.8177 C110.4321,157.4127 113.0841,154.2437 113.7191,152.8077 C114.5171,151.0027 121.9611,145.4547 124.4071,143.6317 C124.8721,143.2847 125.2121,143.0307 125.3761,142.9027 C125.8641,142.5217 126.1041,142.0767 126.2021,141.6557 L126.5131,141.5417 C128.1541,140.9447 128.8301,136.9207 128.9631,136.0047 C129.2591,135.1997 132.7781,125.6377 133.2431,124.2597 C133.7061,122.8817 133.5011,122.1457 133.4291,121.9557 C133.3721,121.7737 133.1671,121.5427 131.5691,119.8717 L131.5691,119.8717 Z M106.6761,143.9997 C106.7291,144.2177 106.5951,144.4367 106.3771,144.4887 C106.3561,144.4937 105.8931,144.6087 105.1631,144.8347 C102.4671,145.6647 96.0631,148.0177 94.1831,152.0907 C94.1031,152.2647 94.0311,152.4397 93.9671,152.6207 C93.9091,152.7877 93.7521,152.8927 93.5841,152.8927 C93.5391,152.8927 93.4941,152.8857 93.4511,152.8697 C93.2391,152.7957 93.1271,152.5637 93.2021,152.3527 C95.2881,146.3917 105.7431,143.8077 106.1871,143.6997 C106.4041,143.6457 106.6231,143.7817 106.6761,143.9997 L106.6761,143.9997 Z M51.4191,152.4157 C51.4931,152.6267 51.3811,152.8587 51.1701,152.9327 C51.1251,152.9477 51.0801,152.9557 51.0351,152.9557 C50.8681,152.9557 50.7111,152.8507 50.6521,152.6837 C50.5891,152.5037 50.5161,152.3267 50.4361,152.1527 C48.5571,148.0797 42.1541,145.7287 39.4571,144.8967 C38.7271,144.6727 38.2641,144.5577 38.2431,144.5527 C38.0251,144.4997 37.8901,144.2797 37.9431,144.0617 C37.9961,143.8447 38.2161,143.7087 38.4331,143.7637 C38.8771,143.8697 49.3311,146.4547 51.4191,152.4157 L51.4191,152.4157 Z M40.0251,125.6287 C40.2971,128.8977 40.4651,130.6257 40.6051,131.5647 C38.4681,130.6497 36.3021,129.8217 35.7021,129.9407 C35.4851,129.9677 31.2491,130.4867 28.5981,131.4187 C28.6211,130.6517 29.0181,128.6957 32.2561,127.3377 C35.9521,125.7867 38.2241,123.3907 39.6531,121.7617 C39.7371,122.1807 39.8831,123.9307 40.0251,125.6287 L40.0251,125.6287 Z M57.6911,177.9517 C57.6661,178.9277 57.1471,179.8257 56.3011,180.3547 C53.6951,181.9887 48.5841,184.3057 43.6431,181.4697 C41.2811,180.1137 40.0441,177.3767 40.5651,174.6587 C41.0091,172.3447 41.2551,170.9227 41.2971,170.4307 C41.3831,169.4237 41.2591,168.2357 40.9281,166.8997 C40.2561,164.1827 38.8671,161.5707 36.9111,159.3457 C33.9761,156.0047 32.1051,153.5877 31.6431,152.5427 C30.8601,150.7697 25.3821,146.5347 20.6981,143.0427 C20.2401,142.7017 19.9051,142.4527 19.7441,142.3257 C18.8981,141.6647 19.2271,140.8447 19.2661,140.7557 L19.2971,140.6537 C19.5181,139.3757 19.9291,137.1357 20.3851,134.9407 L20.8371,133.2877 C20.8781,133.2447 20.9111,133.1937 20.9301,133.1327 C20.9301,133.1307 20.9311,133.1297 20.9311,133.1277 C21.8281,130.1397 23.6191,125.1697 24.6081,124.5427 C25.2961,124.1057 27.2231,123.3887 29.0871,122.6927 C31.1391,121.9297 33.2601,121.1397 34.1251,120.5857 C35.5291,119.6877 38.6651,118.2257 39.5561,117.8147 C39.8211,118.0707 40.2971,118.6047 40.3481,119.1917 C40.3771,119.5357 40.2571,119.8527 39.9781,120.1587 C39.8031,120.3527 39.6121,120.5717 39.4041,120.8117 C37.9661,122.4697 35.7921,124.9747 31.9421,126.5897 C27.7831,128.3337 27.7421,131.0857 27.7951,131.7367 C27.5431,131.8527 27.3181,131.9727 27.1301,132.0977 C25.8261,132.9637 25.3811,133.5177 25.2101,134.3547 C25.1361,134.7157 25.1121,135.1267 25.0931,135.6387 C25.0861,135.8137 25.0791,136.0037 25.0691,136.2087 C25.0491,136.6097 25.0281,137.1137 25.0061,137.6677 C24.9331,139.4377 24.8001,142.7317 24.5771,143.1687 C24.4761,143.3677 24.5541,143.6127 24.7531,143.7157 C24.9521,143.8167 25.1951,143.7407 25.2981,143.5417 C25.3221,143.4957 25.3451,143.4347 25.3661,143.3657 C25.5781,142.6917 25.6851,140.9297 25.8171,137.7007 C25.8391,137.1497 25.8601,136.6487 25.8801,136.2487 C25.8901,136.0397 25.8971,135.8477 25.9041,135.6687 C25.9591,134.1917 25.9721,133.8407 27.5791,132.7737 C29.4631,131.5227 35.7361,130.7547 35.8251,130.7427 C36.4441,130.6527 40.6071,132.3847 44.3511,134.1457 C44.3711,134.5747 44.2161,135.5947 42.4251,136.0447 C39.9371,136.6687 36.5281,135.2937 36.4941,135.2797 L36.3671,135.2277 L36.2331,135.2647 C36.1961,135.2737 35.3131,135.5187 34.2281,135.9367 C33.8381,136.0867 33.4701,136.2407 33.1351,136.3947 C31.8051,137.0037 30.9001,138.2787 30.7731,139.7237 C30.6761,140.8367 30.4911,142.3737 30.1681,143.3637 C30.1551,143.4017 30.1551,143.4407 30.1541,143.4797 C30.1501,143.6547 30.2531,143.8187 30.4281,143.8757 C30.4701,143.8897 30.5121,143.8957 30.5541,143.8957 C30.7251,143.8957 30.8841,143.7867 30.9401,143.6157 C31.2871,142.5527 31.4811,140.9497 31.5821,139.7937 C31.6811,138.6647 32.3791,137.6677 33.4071,137.1687 C33.4301,137.1567 33.4501,137.1437 33.4731,137.1327 C33.7931,136.9857 34.1451,136.8387 34.5201,136.6937 C35.3311,136.3817 36.0391,136.1657 36.3201,136.0837 C37.0091,136.3477 40.1381,137.4547 42.6221,136.8317 C45.6261,136.0777 45.1251,133.8027 45.1201,133.7787 L45.0751,133.5887 L44.8981,133.5047 C44.2001,133.1757 42.9031,132.5697 41.4931,131.9497 C41.2871,130.9997 41.0181,127.7727 40.8341,125.5617 C40.6931,123.8667 40.5931,122.6907 40.5111,122.0287 C40.5761,122.0297 40.6381,122.0327 40.7131,122.0327 C41.5161,122.0327 42.8991,121.9087 44.5421,121.2437 C44.7501,121.1597 44.8501,120.9237 44.7661,120.7157 C44.6821,120.5087 44.4461,120.4077 44.2371,120.4917 C42.3761,121.2447 40.8671,121.2407 40.3161,121.2067 C40.2961,121.1627 40.2741,121.1187 40.2511,121.0747 C40.3661,120.9437 40.4761,120.8177 40.5801,120.7037 C41.0121,120.2277 41.2061,119.6947 41.1571,119.1217 C41.0551,117.9447 39.9241,117.0537 39.8761,117.0167 L39.6821,116.8647 L39.4591,116.9667 C39.4081,116.9897 39.0021,117.1747 38.4171,117.4487 C38.2741,117.0457 38.1281,116.5977 37.9811,116.0897 C36.9781,112.6267 39.2341,108.1797 39.4321,107.7987 C40.0001,107.0537 40.5861,106.6607 41.1741,106.6317 C41.8081,106.6127 42.2901,107.0017 42.4391,107.1407 C42.7841,108.0577 45.8841,116.3597 46.3401,119.2357 C46.8481,122.4357 49.6431,128.4557 50.6701,130.3117 C51.7131,132.1967 51.9461,133.0037 52.2701,134.1207 C52.3741,134.4797 52.8221,135.4777 53.4421,136.8547 C54.7911,139.8537 57.0481,144.8737 57.0651,146.4277 L57.0731,146.5027 C57.0811,146.5457 57.7641,150.0987 56.2971,153.2597 C56.2121,153.1327 56.0601,153.0587 55.8981,153.0817 C55.7861,153.0987 55.6931,153.1597 55.6321,153.2447 C55.5711,153.3287 55.5421,153.4357 55.5591,153.5457 C55.5771,153.6587 57.3351,164.9647 57.4471,169.2547 C57.4751,170.3727 57.5221,171.5407 57.5681,172.6787 C57.6491,174.6987 57.7251,176.6057 57.6911,177.9517 L57.6911,177.9517 Z M18.0051,140.5637 C17.2461,139.7277 16.6661,137.3957 16.4541,135.9087 L16.4331,135.8267 C16.3951,135.7237 12.6181,125.4597 12.1471,124.0627 C11.7431,122.8637 11.9451,122.3197 11.9451,122.3197 L11.9481,122.3127 C12.0801,122.1237 12.8711,121.2967 13.6361,120.4967 C15.0521,119.0177 16.9911,116.9897 18.3681,115.3227 C20.5751,112.6507 21.7591,112.1847 21.7561,112.1847 L32.1841,109.1657 C32.5101,109.4227 33.2521,110.1757 32.7031,111.3537 C31.9371,112.9967 28.6621,114.6727 28.5961,114.7077 C27.3571,115.4907 23.9251,117.5547 22.9321,117.6987 L22.5541,117.7607 L22.5871,118.1427 C22.5881,118.1567 22.6831,119.5987 20.4381,121.9247 C19.9321,122.4487 19.4651,122.9037 19.0521,123.2757 C19.0471,123.2797 19.0421,123.2837 19.0381,123.2877 C17.7001,124.4887 17.1201,124.6557 16.6101,124.8037 C16.3941,124.8657 16.2701,125.0917 16.3321,125.3067 C16.3951,125.5217 16.6201,125.6447 16.8351,125.5837 C17.3461,125.4367 17.9691,125.2557 19.1751,124.2447 L21.2451,128.7187 L18.0051,140.5637 Z M15.1361,113.6597 C15.1081,113.4757 15.0731,113.2497 15.0321,112.9957 C14.7921,111.4787 14.3911,108.9397 14.4741,107.6027 C14.5661,106.1227 13.2471,101.2087 12.9071,99.9727 C13.2091,99.7867 13.8251,99.4987 14.5961,99.6197 C15.6211,99.7807 16.5961,100.6027 17.4921,102.0617 C18.1821,103.5067 19.8681,107.5687 19.5371,109.3077 L19.5201,109.3957 L19.5431,109.4827 C19.5901,109.6687 19.9771,111.1287 20.6301,111.9277 C19.9981,112.3897 19.0341,113.2417 17.7421,114.8067 C17.1771,115.4897 16.5121,116.2387 15.8281,116.9847 C15.5331,115.7017 15.2421,114.3647 15.1361,113.6597 L15.1361,113.6597 Z M23.8091,124.1857 C23.2261,124.8417 22.5891,126.1547 22.0101,127.5737 C21.9481,127.7277 21.8861,127.8817 21.8251,128.0367 L21.6711,127.7057 L19.8201,123.7057 C20.9241,123.1567 21.6771,122.1367 22.1801,121.1167 C22.4371,120.7607 22.6381,120.4317 22.7981,120.1297 L23.8091,124.1857 Z M58.2581,169.2327 C58.1651,165.6467 56.9831,157.5227 56.5331,154.5377 C58.6801,151.0697 57.9671,146.8557 57.8761,146.3797 C57.8261,144.6227 55.6361,139.7527 54.1821,136.5217 C53.6221,135.2757 53.1381,134.1997 53.0491,133.8957 C52.7241,132.7707 52.4681,131.8847 51.3801,129.9187 C50.3731,128.0987 47.6341,122.2087 47.1421,119.1087 C46.6491,115.9967 43.3091,107.1457 43.1681,106.7707 L43.1401,106.6997 L43.0891,106.6437 C43.0571,106.6067 42.2891,105.7657 41.1451,105.8197 C40.2941,105.8577 39.4931,106.3677 38.7641,107.3357 L38.7311,107.3867 C38.6221,107.5897 36.0651,112.3917 37.2011,116.3147 C37.3611,116.8697 37.5221,117.3587 37.6811,117.7987 C36.3721,118.4257 34.6601,119.2797 33.6871,119.9007 C32.8951,120.4087 30.8151,121.1837 28.8041,121.9327 C27.0671,122.5797 25.4141,123.1957 24.5161,123.6627 L23.3101,118.8287 C23.3481,118.6717 23.3711,118.5347 23.3841,118.4237 C24.9771,117.9387 28.5911,115.6717 28.9961,115.4137 C29.1411,115.3397 32.5551,113.5937 33.4391,111.6957 C34.2211,110.0197 33.1481,108.7907 32.4721,108.3757 L32.3201,108.2807 L21.5121,111.4097 C21.4881,111.4177 21.4261,111.4407 21.3301,111.4887 C20.9191,111.0617 20.5291,110.0227 20.3511,109.3637 C20.4931,108.4427 20.2271,107.1327 19.8401,105.8537 L20.7781,106.9157 C20.8191,106.9627 20.8681,106.9967 20.9211,107.0197 C20.9371,107.0737 20.9631,107.1257 21.0031,107.1707 L21.6241,107.8727 C21.7041,107.9637 21.8161,108.0097 21.9281,108.0097 C22.0241,108.0097 22.1191,107.9767 22.1971,107.9077 C22.3651,107.7597 22.3801,107.5027 22.2321,107.3347 L21.6121,106.6337 C21.5711,106.5877 21.5221,106.5557 21.4691,106.5327 C21.4531,106.4777 21.4271,106.4247 21.3871,106.3787 L19.9031,104.6997 C19.7791,104.5607 19.5841,104.5327 19.4251,104.6087 C18.8681,103.0627 18.2661,101.7977 18.2161,101.6917 L18.1961,101.6557 C17.1661,99.9737 15.9981,99.0187 14.7221,98.8177 C13.2561,98.5857 12.2181,99.4607 12.1751,99.4977 L11.9791,99.6667 L12.0491,99.9157 C12.5251,101.6097 13.7431,106.2857 13.6641,107.5527 C13.5751,108.9787 13.9851,111.5727 14.2301,113.1227 C14.2701,113.3747 14.3061,113.5977 14.3331,113.7797 C14.4591,114.6167 14.8251,116.2637 15.1611,117.7067 C14.4181,118.5037 13.6811,119.2747 13.0501,119.9357 C11.4521,121.6057 11.2471,121.8367 11.1911,122.0197 C11.1191,122.2087 10.9131,122.9447 11.3781,124.3217 C11.8421,125.6997 15.3601,135.2627 15.6561,136.0667 C15.7901,136.9827 16.4661,141.0077 18.1061,141.6047 L18.4181,141.7187 C18.5161,142.1407 18.7561,142.5847 19.2441,142.9657 C19.4081,143.0947 19.7471,143.3477 20.2121,143.6937 C22.6591,145.5177 30.1031,151.0657 30.9011,152.8707 C31.5351,154.3057 34.1871,157.4757 36.3021,159.8817 C38.1711,162.0097 39.4991,164.5037 40.1401,167.0947 C40.4501,168.3447 40.5671,169.4427 40.4881,170.3617 C40.4611,170.6807 40.3141,171.6577 39.7681,174.5057 C39.1821,177.5637 40.5771,180.6457 43.2391,182.1737 C44.4271,182.8547 46.2951,183.6137 48.7221,183.6137 C50.9511,183.6137 53.6531,182.9737 56.7321,181.0437 C57.8091,180.3687 58.4711,179.2207 58.5031,177.9727 C58.5371,176.6007 58.4611,174.6797 58.3791,172.6457 C58.3341,171.5127 58.2871,170.3487 58.2581,169.2327 L58.2581,169.2327 Z M132.2551,91.0347 L132.9671,88.9107 C132.9871,88.8527 133.0201,88.8037 133.0591,88.7617 C133.0521,88.7047 133.0561,88.6457 133.0761,88.5877 L133.3721,87.6997 C133.4451,87.4867 133.6751,87.3737 133.8871,87.4437 C134.0991,87.5147 134.2141,87.7447 134.1431,87.9577 L133.8451,88.8457 C133.8261,88.9037 133.7911,88.9507 133.7521,88.9917 C133.7591,89.0497 133.7561,89.1087 133.7371,89.1677 L133.0251,91.2927 C132.9681,91.4627 132.8101,91.5697 132.6401,91.5697 C132.5971,91.5697 132.5541,91.5627 132.5111,91.5487 C132.2981,91.4777 132.1841,91.2477 132.2551,91.0347 L132.2551,91.0347 Z M138.9021,93.0057 C138.9531,92.9737 139.0101,92.9567 139.0681,92.9497 C139.0991,92.9017 139.1391,92.8597 139.1921,92.8277 L139.9911,92.3387 C140.1811,92.2217 140.4321,92.2817 140.5481,92.4727 C140.6651,92.6637 140.6061,92.9137 140.4141,93.0307 L139.6161,93.5207 C139.5641,93.5517 139.5071,93.5667 139.4501,93.5727 C139.4181,93.6217 139.3781,93.6647 139.3261,93.6967 L137.4141,94.8667 C137.3481,94.9077 137.2751,94.9267 137.2021,94.9267 C137.0661,94.9267 136.9331,94.8577 136.8561,94.7317 C136.7391,94.5417 136.7991,94.2917 136.9911,94.1747 L138.9021,93.0057 Z M141.1521,100.0067 L142.0781,100.1457 C142.3001,100.1787 142.4521,100.3857 142.4191,100.6067 C142.3891,100.8097 142.2161,100.9527 142.0181,100.9527 C141.9981,100.9527 141.9781,100.9517 141.9571,100.9487 L141.0311,100.8097 C140.9701,100.8007 140.9151,100.7757 140.8681,100.7437 C140.8311,100.7537 140.7941,100.7637 140.7561,100.7637 C140.7361,100.7637 140.7151,100.7627 140.6951,100.7597 L138.4791,100.4277 C138.2571,100.3947 138.1051,100.1877 138.1381,99.9657 C138.1711,99.7427 138.3791,99.5947 138.6001,99.6237 L140.8161,99.9557 C140.8761,99.9657 140.9301,99.9897 140.9791,100.0217 C141.0341,100.0057 141.0911,99.9987 141.1521,100.0067 L141.1521,100.0067 Z M138.6591,107.4687 C138.8071,107.6367 138.7911,107.8937 138.6231,108.0407 C138.5461,108.1087 138.4511,108.1437 138.3551,108.1437 C138.2431,108.1437 138.1301,108.0967 138.0501,108.0057 L137.4301,107.3037 C137.3901,107.2587 137.3651,107.2067 137.3481,107.1517 C137.2941,107.1297 137.2451,107.0957 137.2041,107.0497 L135.7211,105.3707 C135.5731,105.2017 135.5881,104.9457 135.7561,104.7977 C135.9241,104.6487 136.1811,104.6647 136.3291,104.8327 L137.8141,106.5117 C137.8541,106.5577 137.8791,106.6097 137.8961,106.6657 C137.9491,106.6877 137.9981,106.7207 138.0381,106.7667 L138.6591,107.4687 Z M118.7351,101.3657 L119.6531,101.1797 C119.7121,101.1677 119.7711,101.1727 119.8271,101.1867 C119.8721,101.1507 119.9251,101.1247 119.9861,101.1117 L122.1821,100.6667 C122.4011,100.6237 122.6161,100.7647 122.6611,100.9837 C122.7041,101.2037 122.5631,101.4177 122.3431,101.4627 L120.1471,101.9077 C120.1191,101.9127 120.0931,101.9157 120.0661,101.9157 C120.0351,101.9157 120.0041,101.9067 119.9751,101.8997 C119.9281,101.9357 119.8751,101.9627 119.8141,101.9757 L118.8961,102.1617 C118.8691,102.1667 118.8411,102.1697 118.8151,102.1697 C118.6251,102.1697 118.4561,102.0367 118.4171,101.8447 C118.3721,101.6247 118.5141,101.4107 118.7351,101.3657 L118.7351,101.3657 Z M120.9461,93.9617 C121.0031,93.9657 121.0601,93.9787 121.1141,94.0077 L123.0821,95.0777 C123.2801,95.1857 123.3521,95.4317 123.2451,95.6287 C123.1711,95.7647 123.0331,95.8407 122.8881,95.8407 C122.8231,95.8407 122.7561,95.8247 122.6951,95.7917 L120.7261,94.7217 C120.6721,94.6917 120.6301,94.6507 120.5961,94.6047 C120.5381,94.6017 120.4811,94.5877 120.4271,94.5597 L119.6051,94.1107 C119.4081,94.0037 119.3341,93.7577 119.4421,93.5607 C119.5481,93.3627 119.7951,93.2917 119.9931,93.3977 L120.8151,93.8457 C120.8691,93.8747 120.9111,93.9157 120.9461,93.9617 L120.9461,93.9617 Z M130.8821,90.9667 L131.1231,89.2127 C131.1291,89.1667 131.1481,89.1247 131.1681,89.0837 C131.1591,89.0397 131.1531,88.9947 131.1601,88.9467 L131.2601,88.2137 C131.2901,87.9917 131.4951,87.8377 131.7171,87.8667 C131.9401,87.8967 132.0951,88.1017 132.0641,88.3237 L131.9641,89.0577 C131.9571,89.1057 131.9411,89.1517 131.9191,89.1927 C131.9271,89.2347 131.9341,89.2777 131.9271,89.3237 L131.6871,91.0777 C131.6591,91.2807 131.4851,91.4277 131.2861,91.4277 C131.2671,91.4277 131.2481,91.4267 131.2301,91.4237 C131.0071,91.3937 130.8521,91.1887 130.8821,90.9667 L130.8821,90.9667 Z M137.8391,92.6527 L136.5281,93.8427 C136.4511,93.9117 136.3531,93.9467 136.2551,93.9467 C136.1451,93.9467 136.0351,93.9017 135.9541,93.8137 C135.8041,93.6477 135.8171,93.3917 135.9831,93.2397 L137.2941,92.0517 C137.3291,92.0197 137.3701,91.9987 137.4111,91.9817 C137.4331,91.9417 137.4571,91.9027 137.4941,91.8717 L138.0411,91.3747 C138.2071,91.2237 138.4641,91.2357 138.6151,91.4017 C138.7651,91.5677 138.7521,91.8257 138.5861,91.9757 L138.0381,92.4727 C138.0021,92.5057 137.9611,92.5287 137.9181,92.5467 C137.8971,92.5847 137.8731,92.6217 137.8391,92.6527 L137.8391,92.6527 Z M141.6261,98.5447 C141.6341,98.7687 141.4591,98.9567 141.2361,98.9657 L140.4961,98.9937 L140.4811,98.9937 C140.4391,98.9937 140.4021,98.9817 140.3641,98.9717 C140.3221,98.9877 140.2771,99.0017 140.2281,99.0037 L138.4591,99.0707 C138.4531,99.0717 138.4491,99.0717 138.4441,99.0717 C138.2261,99.0717 138.0461,98.8997 138.0371,98.6817 C138.0301,98.4577 138.2041,98.2687 138.4281,98.2607 L140.1971,98.1927 C140.2481,98.1887 140.2961,98.1987 140.3411,98.2127 C140.3801,98.1977 140.4201,98.1847 140.4651,98.1827 L141.2041,98.1537 C141.4341,98.1427 141.6181,98.3197 141.6261,98.5447 L141.6261,98.5447 Z M139.2701,105.3817 C139.4471,105.5187 139.4791,105.7727 139.3421,105.9507 C139.2621,106.0537 139.1421,106.1077 139.0211,106.1077 C138.9341,106.1077 138.8461,106.0797 138.7721,106.0217 L138.1881,105.5687 C138.1521,105.5407 138.1251,105.5057 138.1021,105.4697 C138.0571,105.4557 138.0141,105.4357 137.9751,105.4037 L136.5771,104.3187 C136.4001,104.1817 136.3681,103.9267 136.5051,103.7497 C136.6431,103.5717 136.8981,103.5407 137.0751,103.6777 L138.4731,104.7637 C138.5111,104.7927 138.5381,104.8287 138.5631,104.8667 C138.6051,104.8807 138.6481,104.8977 138.6851,104.9277 L139.2701,105.3817 Z M132.9311,108.8247 C132.9551,108.8637 132.9761,108.9037 132.9861,108.9507 L133.1421,109.6737 C133.1901,109.8937 133.0501,110.1087 132.8311,110.1557 C132.8021,110.1627 132.7741,110.1657 132.7451,110.1657 C132.5581,110.1657 132.3901,110.0357 132.3491,109.8457 L132.1931,109.1217 C132.1831,109.0777 132.1861,109.0337 132.1911,108.9917 C132.1651,108.9517 132.1471,108.9077 132.1361,108.8587 L131.7621,107.1297 C131.7141,106.9107 131.8541,106.6937 132.0731,106.6467 C132.2921,106.5997 132.5081,106.7387 132.5561,106.9577 L132.9291,108.6877 C132.9401,108.7347 132.9371,108.7797 132.9311,108.8247 L132.9311,108.8247 Z M119.8691,103.5127 C119.7841,103.3047 119.8831,103.0667 120.0911,102.9827 L120.7771,102.7027 C120.8211,102.6857 120.8671,102.6797 120.9111,102.6777 C120.9451,102.6467 120.9811,102.6197 121.0251,102.6027 L122.6641,101.9337 C122.8711,101.8477 123.1091,101.9477 123.1931,102.1557 C123.2781,102.3637 123.1781,102.6007 122.9701,102.6857 L121.3311,103.3537 C121.2861,103.3717 121.2411,103.3787 121.1961,103.3807 C121.1611,103.4097 121.1261,103.4377 121.0821,103.4547 L120.3981,103.7337 C120.3471,103.7547 120.2951,103.7647 120.2441,103.7647 C120.0841,103.7647 119.9331,103.6697 119.8691,103.5127 L119.8691,103.5127 Z M122.9001,96.8687 C122.8451,97.0407 122.6851,97.1507 122.5141,97.1507 C122.4731,97.1507 122.4311,97.1447 122.3891,97.1317 L120.7041,96.5907 C120.6601,96.5757 120.6221,96.5517 120.5871,96.5247 C120.5821,96.5247 120.5781,96.5267 120.5731,96.5267 C120.5321,96.5267 120.4901,96.5207 120.4491,96.5077 L119.7441,96.2807 C119.5311,96.2127 119.4131,95.9837 119.4821,95.7707 C119.5501,95.5577 119.7781,95.4397 119.9931,95.5087 L120.6971,95.7347 C120.7431,95.7497 120.7821,95.7737 120.8181,95.8027 C120.8631,95.8017 120.9081,95.8027 120.9531,95.8167 L122.6381,96.3577 C122.8511,96.4267 122.9691,96.6557 122.9001,96.8687 L122.9001,96.8687 Z M127.6591,89.2847 C127.6531,89.2397 127.6591,89.1967 127.6671,89.1537 C127.6461,89.1127 127.6291,89.0677 127.6221,89.0187 L127.5231,88.2857 C127.4931,88.0637 127.6491,87.8587 127.8701,87.8287 C128.0921,87.7987 128.2971,87.9537 128.3271,88.1757 L128.4271,88.9087 C128.4341,88.9567 128.4281,89.0017 128.4181,89.0457 C128.4391,89.0857 128.4561,89.1277 128.4631,89.1757 L128.7021,90.9297 C128.7321,91.1517 128.5761,91.3557 128.3541,91.3867 C128.3351,91.3887 128.3171,91.3897 128.2991,91.3897 C128.0991,91.3897 127.9251,91.2417 127.8971,91.0387 L127.6591,89.2847 Z M133.6501,91.3757 L134.5941,89.8797 C134.6191,89.8397 134.6541,89.8087 134.6891,89.7807 C134.6991,89.7367 134.7121,89.6927 134.7381,89.6527 L135.1331,89.0267 C135.2521,88.8377 135.5031,88.7807 135.6931,88.9007 C135.8821,89.0207 135.9391,89.2707 135.8201,89.4607 L135.4241,90.0857 C135.3991,90.1267 135.3651,90.1597 135.3281,90.1867 C135.3191,90.2307 135.3061,90.2737 135.2811,90.3127 L134.3361,91.8107 C134.2591,91.9327 134.1271,91.9997 133.9931,91.9997 C133.9181,91.9997 133.8431,91.9787 133.7761,91.9367 C133.5861,91.8167 133.5301,91.5657 133.6501,91.3757 L133.6501,91.3757 Z M140.4861,94.4867 C140.7001,94.4157 140.9281,94.5357 140.9951,94.7497 C141.0641,94.9637 140.9471,95.1907 140.7331,95.2597 L140.0281,95.4847 C139.9871,95.4987 139.9451,95.5047 139.9051,95.5047 C139.8991,95.5047 139.8941,95.5017 139.8891,95.5017 C139.8541,95.5277 139.8171,95.5527 139.7721,95.5667 L138.0861,96.1057 C138.0451,96.1187 138.0031,96.1257 137.9621,96.1257 C137.7901,96.1257 137.6311,96.0157 137.5761,95.8437 C137.5081,95.6297 137.6251,95.4007 137.8391,95.3327 L139.5251,94.7937 C139.5701,94.7797 139.6161,94.7777 139.6601,94.7787 C139.6971,94.7517 139.7351,94.7267 139.7811,94.7117 L140.4861,94.4867 Z M137.9761,101.2787 C138.0601,101.0717 138.2971,100.9717 138.5051,101.0567 L140.1431,101.7277 C140.1871,101.7447 140.2241,101.7727 140.2571,101.8037 C140.3021,101.8057 140.3481,101.8107 140.3921,101.8287 L141.0771,102.1087 C141.2841,102.1937 141.3831,102.4317 141.2981,102.6387 C141.2341,102.7957 141.0821,102.8907 140.9221,102.8907 C140.8711,102.8907 140.8201,102.8817 140.7691,102.8607 L140.0841,102.5807 C140.0401,102.5627 140.0041,102.5347 139.9711,102.5057 C139.9261,102.5037 139.8801,102.4967 139.8351,102.4787 L138.1981,101.8087 C137.9911,101.7237 137.8911,101.4857 137.9761,101.2787 L137.9761,101.2787 Z M136.6291,108.3287 C136.7341,108.5267 136.6581,108.7717 136.4591,108.8767 C136.3991,108.9087 136.3341,108.9237 136.2711,108.9237 C136.1241,108.9237 135.9841,108.8447 135.9111,108.7067 L135.5671,108.0517 C135.5441,108.0107 135.5361,107.9667 135.5291,107.9227 C135.4941,107.8917 135.4641,107.8567 135.4421,107.8137 L134.6181,106.2477 C134.5131,106.0487 134.5891,105.8037 134.7881,105.6987 C134.9871,105.5947 135.2321,105.6717 135.3361,105.8687 L136.1611,107.4367 C136.1821,107.4787 136.1921,107.5227 136.1991,107.5667 C136.2321,107.5987 136.2631,107.6317 136.2861,107.6737 L136.6291,108.3287 Z M121.7581,106.8627 C121.6211,106.6857 121.6541,106.4307 121.8311,106.2927 L122.4161,105.8397 C122.4531,105.8107 122.4961,105.7927 122.5391,105.7787 C122.5641,105.7407 122.5911,105.7047 122.6281,105.6757 L124.0291,104.5927 C124.2051,104.4557 124.4601,104.4877 124.5981,104.6647 C124.7351,104.8417 124.7031,105.0977 124.5261,105.2337 L123.1251,106.3177 C123.0861,106.3487 123.0431,106.3687 122.9991,106.3827 C122.9751,106.4187 122.9501,106.4537 122.9131,106.4817 L122.3281,106.9357 C122.2541,106.9917 122.1661,107.0207 122.0791,107.0207 C121.9581,107.0207 121.8381,106.9657 121.7581,106.8627 L121.7581,106.8627 Z M119.1651,99.9747 C118.9411,99.9657 118.7671,99.7757 118.7761,99.5527 C118.7851,99.3277 118.9721,99.1417 119.1981,99.1627 L119.9371,99.1917 C119.9841,99.1937 120.0271,99.2077 120.0681,99.2247 C120.1121,99.2097 120.1571,99.1997 120.2051,99.2027 L121.9741,99.2727 C122.1981,99.2807 122.3721,99.4707 122.3641,99.6937 C122.3551,99.9127 122.1751,100.0837 121.9581,100.0837 L121.9421,100.0837 L120.1731,100.0137 C120.1241,100.0117 120.0801,99.9977 120.0371,99.9807 C120.0001,99.9917 119.9621,100.0037 119.9211,100.0037 L119.9051,100.0037 L119.1651,99.9747 Z M121.2171,92.6087 C121.0511,92.4577 121.0381,92.2017 121.1901,92.0357 C121.3401,91.8697 121.5971,91.8567 121.7631,92.0077 L122.3111,92.5057 C122.3461,92.5377 122.3701,92.5757 122.3921,92.6157 C122.4341,92.6337 122.4741,92.6537 122.5091,92.6867 L123.8201,93.8767 C123.9861,94.0277 123.9971,94.2837 123.8471,94.4497 C123.7671,94.5377 123.6571,94.5827 123.5461,94.5827 C123.4491,94.5827 123.3511,94.5487 123.2741,94.4777 L121.9631,93.2867 C121.9291,93.2567 121.9061,93.2187 121.8851,93.1807 C121.8421,93.1627 121.8011,93.1397 121.7651,93.1057 L121.2171,92.6087 Z M125.5141,92.5037 L124.5721,91.0057 C124.5461,90.9657 124.5341,90.9227 124.5241,90.8797 C124.4881,90.8517 124.4531,90.8187 124.4281,90.7777 L124.0341,90.1517 C123.9141,89.9627 123.9711,89.7117 124.1611,89.5927 C124.3501,89.4727 124.6011,89.5297 124.7211,89.7197 L125.1151,90.3457 C125.1411,90.3857 125.1541,90.4297 125.1631,90.4737 C125.2001,90.5017 125.2331,90.5327 125.2581,90.5737 L126.2021,92.0717 C126.3211,92.2607 126.2631,92.5117 126.0741,92.6317 C126.0061,92.6737 125.9321,92.6927 125.8581,92.6927 C125.7231,92.6927 125.5911,92.6267 125.5141,92.5037 L125.5141,92.5037 Z M126.6091,91.6737 L125.7891,89.5877 C125.7671,89.5307 125.7611,89.4717 125.7651,89.4137 C125.7231,89.3737 125.6871,89.3287 125.6641,89.2717 L125.3221,88.3997 C125.2401,88.1907 125.3421,87.9557 125.5511,87.8737 C125.7601,87.7917 125.9951,87.8937 126.0781,88.1027 L126.4201,88.9747 C126.4431,89.0317 126.4491,89.0897 126.4461,89.1477 C126.4871,89.1867 126.5231,89.2337 126.5441,89.2907 L127.3651,91.3757 C127.4471,91.5847 127.3441,91.8207 127.1361,91.9027 C127.0861,91.9217 127.0361,91.9307 126.9871,91.9307 C126.8251,91.9307 126.6721,91.8327 126.6091,91.6737 L126.6091,91.6737 Z M134.7431,92.4727 L136.4281,90.3987 C136.4641,90.3547 136.5081,90.3207 136.5561,90.2957 C136.5701,90.2437 136.5951,90.1937 136.6311,90.1497 L137.4991,89.0817 C137.5371,89.0337 137.5851,88.9997 137.6371,88.9747 C137.6521,88.9187 137.6751,88.8647 137.7131,88.8167 L138.3041,88.0907 C138.4461,87.9167 138.7021,87.8907 138.8751,88.0317 C139.0491,88.1727 139.0761,88.4287 138.9341,88.6027 L138.3431,89.3297 C138.3051,89.3767 138.2571,89.4127 138.2051,89.4367 C138.1911,89.4927 138.1671,89.5457 138.1291,89.5937 L137.2611,90.6617 C137.2251,90.7057 137.1811,90.7357 137.1331,90.7607 C137.1191,90.8137 137.0951,90.8657 137.0581,90.9117 L135.3721,92.9847 C135.2921,93.0837 135.1751,93.1347 135.0571,93.1347 C134.9671,93.1347 134.8761,93.1047 134.8011,93.0437 C134.6271,92.9017 134.6011,92.6457 134.7431,92.4727 L134.7431,92.4727 Z M143.9931,96.1297 C144.0351,96.3507 143.8911,96.5627 143.6701,96.6047 L142.7501,96.7817 C142.7251,96.7867 142.6991,96.7897 142.6731,96.7897 C142.6411,96.7897 142.6101,96.7807 142.5781,96.7727 C142.5321,96.8077 142.4781,96.8347 142.4161,96.8467 L141.0651,97.1067 C141.0391,97.1107 141.0131,97.1137 140.9881,97.1137 C140.9591,97.1137 140.9331,97.1047 140.9061,97.0997 C140.8601,97.1317 140.8081,97.1557 140.7491,97.1677 L138.1251,97.6727 C138.0991,97.6777 138.0741,97.6797 138.0481,97.6797 C137.8571,97.6797 137.6871,97.5447 137.6501,97.3517 C137.6071,97.1307 137.7511,96.9177 137.9711,96.8747 L140.5961,96.3697 C140.6521,96.3597 140.7071,96.3617 140.7591,96.3737 C140.8041,96.3427 140.8551,96.3197 140.9111,96.3097 L142.2631,96.0487 C142.3241,96.0387 142.3821,96.0427 142.4371,96.0567 C142.4841,96.0227 142.5361,95.9967 142.5971,95.9847 L143.5171,95.8077 C143.7361,95.7667 143.9501,95.9097 143.9931,96.1297 L143.9931,96.1297 Z M142.7061,105.6227 C142.6321,105.7567 142.4941,105.8307 142.3521,105.8307 C142.2851,105.8307 142.2171,105.8137 142.1551,105.7797 L141.3361,105.3237 C141.2831,105.2937 141.2411,105.2527 141.2071,105.2057 C141.1501,105.2017 141.0921,105.1877 141.0391,105.1587 L139.8361,104.4887 C139.7851,104.4607 139.7441,104.4227 139.7101,104.3787 C139.6581,104.3727 139.6051,104.3597 139.5551,104.3327 L137.2201,103.0327 C137.0251,102.9237 136.9541,102.6767 137.0631,102.4797 C137.1721,102.2837 137.4201,102.2157 137.6161,102.3227 L139.9501,103.6227 C140.0001,103.6507 140.0411,103.6877 140.0751,103.7307 C140.1281,103.7357 140.1811,103.7517 140.2311,103.7797 L141.4341,104.4487 C141.4881,104.4787 141.5301,104.5207 141.5641,104.5667 C141.6201,104.5707 141.6781,104.5847 141.7311,104.6137 L142.5491,105.0697 C142.7451,105.1797 142.8161,105.4267 142.7061,105.6227 L142.7061,105.6227 Z M135.8551,111.5437 C135.9351,111.7537 135.8291,111.9877 135.6191,112.0677 C135.5731,112.0867 135.5241,112.0947 135.4751,112.0947 C135.3121,112.0947 135.1581,111.9947 135.0961,111.8337 L134.7621,110.9577 C134.7401,110.8997 134.7351,110.8407 134.7401,110.7827 C134.6991,110.7427 134.6621,110.6967 134.6411,110.6407 L134.1501,109.3537 C134.1291,109.2997 134.1221,109.2427 134.1251,109.1877 C134.0881,109.1497 134.0551,109.1057 134.0351,109.0537 L133.0821,106.5577 C133.0021,106.3487 133.1071,106.1127 133.3171,106.0327 C133.5261,105.9537 133.7611,106.0587 133.8401,106.2687 L134.7931,108.7647 C134.8141,108.8177 134.8221,108.8727 134.8191,108.9267 C134.8571,108.9657 134.8881,109.0117 134.9091,109.0647 L135.3991,110.3517 C135.4211,110.4077 135.4261,110.4667 135.4221,110.5237 C135.4641,110.5637 135.4981,110.6107 135.5211,110.6687 L135.8551,111.5437 Z M118.4701,106.5907 C118.3551,106.3967 118.4181,106.1477 118.6111,106.0327 L119.4141,105.5527 C119.4661,105.5207 119.5231,105.5057 119.5801,105.4997 C119.6131,105.4517 119.6531,105.4097 119.7051,105.3777 L120.8871,104.6707 C120.9361,104.6417 120.9901,104.6247 121.0421,104.6177 C121.0741,104.5737 121.1141,104.5347 121.1631,104.5057 L123.4561,103.1337 C123.6501,103.0197 123.8981,103.0817 124.0131,103.2737 C124.1281,103.4667 124.0661,103.7157 123.8731,103.8307 L121.5801,105.2027 C121.5321,105.2317 121.4791,105.2457 121.4261,105.2527 C121.3941,105.2977 121.3541,105.3377 121.3041,105.3677 L120.1221,106.0747 C120.0711,106.1057 120.0141,106.1207 119.9561,106.1267 C119.9241,106.1747 119.8841,106.2177 119.8301,106.2497 L119.0271,106.7297 C118.9621,106.7697 118.8901,106.7877 118.8191,106.7877 C118.6811,106.7877 118.5461,106.7177 118.4701,106.5907 L118.4701,106.5907 Z M118.1581,97.0967 L119.5171,97.3127 C119.5741,97.3227 119.6251,97.3437 119.6701,97.3727 C119.7231,97.3587 119.7781,97.3547 119.8341,97.3647 L122.4731,97.7867 C122.6951,97.8227 122.8451,98.0307 122.8101,98.2527 C122.7781,98.4517 122.6051,98.5947 122.4101,98.5947 C122.3881,98.5947 122.3671,98.5927 122.3441,98.5887 L119.7061,98.1667 C119.6471,98.1567 119.5951,98.1347 119.5481,98.1037 C119.5171,98.1107 119.4861,98.1197 119.4531,98.1197 C119.4321,98.1197 119.4111,98.1187 119.3881,98.1147 L118.0291,97.8967 C117.9671,97.8877 117.9131,97.8617 117.8661,97.8297 C117.8301,97.8397 117.7951,97.8487 117.7581,97.8487 C117.7371,97.8487 117.7151,97.8477 117.6941,97.8437 L116.7691,97.6947 C116.5471,97.6597 116.3971,97.4517 116.4321,97.2297 C116.4671,97.0097 116.6741,96.8577 116.8971,96.8947 L117.8221,97.0417 C117.8821,97.0517 117.9361,97.0757 117.9841,97.1077 C118.0381,97.0927 118.0971,97.0867 118.1581,97.0967 L118.1581,97.0967 Z M124.8501,93.7307 C124.7361,93.7307 124.6221,93.6847 124.5421,93.5917 L122.7931,91.5717 C122.7551,91.5277 122.7291,91.4777 122.7131,91.4247 C122.6651,91.4017 122.6191,91.3707 122.5821,91.3277 L121.6811,90.2877 C121.6421,90.2417 121.6171,90.1897 121.6011,90.1357 C121.5481,90.1117 121.4991,90.0777 121.4591,90.0307 L120.8461,89.3217 C120.6991,89.1527 120.7171,88.8957 120.8871,88.7497 C121.0561,88.6027 121.3131,88.6217 121.4591,88.7907 L122.0731,89.4997 C122.1131,89.5457 122.1381,89.5987 122.1541,89.6537 C122.2061,89.6777 122.2551,89.7097 122.2951,89.7557 L123.1971,90.7967 C123.2341,90.8397 123.2601,90.8897 123.2761,90.9407 C123.3251,90.9637 123.3691,90.9967 123.4071,91.0407 L125.1571,93.0607 C125.3031,93.2287 125.2851,93.4857 125.1161,93.6327 C125.0381,93.6987 124.9441,93.7307 124.8501,93.7307 L124.8501,93.7307 Z M129.3971,88.5037 C129.3961,88.4467 129.4081,88.3927 129.4291,88.3427 C129.4071,88.2927 129.3931,88.2397 129.3921,88.1827 L129.3701,86.8057 C129.3691,86.7447 129.3851,86.6877 129.4091,86.6347 C129.3831,86.5827 129.3671,86.5267 129.3661,86.4657 L129.3511,85.5287 C129.3471,85.3057 129.5261,85.1207 129.7501,85.1167 C129.9721,85.1077 130.1601,85.2927 130.1621,85.5167 L130.1771,86.4537 C130.1781,86.5157 130.1621,86.5727 130.1391,86.6257 C130.1641,86.6757 130.1821,86.7307 130.1831,86.7927 L130.2041,88.1697 C130.2051,88.2277 130.1941,88.2817 130.1721,88.3317 C130.1951,88.3807 130.2081,88.4347 130.2091,88.4917 L130.2511,91.1637 C130.2541,91.3867 130.0761,91.5717 129.8511,91.5757 L129.8451,91.5757 C129.6231,91.5757 129.4431,91.3977 129.4391,91.1757 L129.3971,88.5037 Z M16.5401,88.7777 C16.5601,88.7197 16.5931,88.6707 16.6321,88.6287 C16.6261,88.5717 16.6291,88.5137 16.6481,88.4557 L16.9461,87.5667 C17.0171,87.3537 17.2481,87.2407 17.4601,87.3107 C17.6731,87.3817 17.7871,87.6117 17.7161,87.8247 L17.4181,88.7127 C17.3991,88.7707 17.3651,88.8177 17.3261,88.8587 C17.3321,88.9167 17.3301,88.9767 17.3101,89.0357 L16.5981,91.1597 C16.5411,91.3297 16.3831,91.4367 16.2131,91.4367 C16.1701,91.4367 16.1271,91.4297 16.0841,91.4157 C15.8721,91.3447 15.7571,91.1147 15.8281,90.9017 L16.5401,88.7777 Z M24.1221,92.3397 C24.2391,92.5307 24.1791,92.7807 23.9881,92.8977 L23.1881,93.3877 C23.1371,93.4187 23.0801,93.4337 23.0231,93.4397 C22.9921,93.4887 22.9511,93.5317 22.8981,93.5637 L20.9881,94.7337 C20.9221,94.7737 20.8481,94.7937 20.7761,94.7937 C20.6401,94.7937 20.5061,94.7257 20.4301,94.6007 C20.3121,94.4087 20.3721,94.1587 20.5641,94.0417 L22.4751,92.8717 C22.5271,92.8407 22.5831,92.8237 22.6401,92.8167 C22.6721,92.7697 22.7121,92.7267 22.7651,92.6937 L23.5641,92.2057 C23.7561,92.0877 24.0051,92.1487 24.1221,92.3397 L24.1221,92.3397 Z M24.7241,99.8737 L25.6511,100.0127 C25.8731,100.0457 26.0261,100.2527 25.9931,100.4747 C25.9621,100.6757 25.7891,100.8197 25.5921,100.8197 C25.5721,100.8197 25.5511,100.8177 25.5311,100.8147 L24.6041,100.6767 C24.5431,100.6677 24.4891,100.6437 24.4411,100.6107 C24.4051,100.6207 24.3681,100.6307 24.3291,100.6307 C24.3091,100.6307 24.2881,100.6297 24.2681,100.6267 L22.0531,100.2937 C21.8301,100.2607 21.6781,100.0537 21.7111,99.8317 C21.7441,99.6097 21.9531,99.4607 22.1731,99.4907 L24.3891,99.8227 C24.4501,99.8327 24.5041,99.8567 24.5521,99.8897 C24.6071,99.8727 24.6651,99.8647 24.7241,99.8737 L24.7241,99.8737 Z M9.2921,105.8997 L7.8961,107.6517 C7.8581,107.6997 7.8101,107.7347 7.7591,107.7607 C7.7451,107.8157 7.7231,107.8707 7.6841,107.9187 L7.1011,108.6507 C7.0211,108.7517 6.9031,108.8047 6.7831,108.8047 C6.6951,108.8047 6.6051,108.7747 6.5311,108.7157 C6.3551,108.5757 6.3261,108.3207 6.4661,108.1457 L7.0501,107.4127 C7.0881,107.3647 7.1351,107.3297 7.1861,107.3047 C7.2001,107.2487 7.2231,107.1937 7.2611,107.1457 L8.6571,105.3947 C8.7971,105.2187 9.0531,105.1897 9.2271,105.3287 C9.4031,105.4687 9.4321,105.7247 9.2921,105.8997 L9.2921,105.8997 Z M2.3081,101.2327 L3.2261,101.0467 C3.2861,101.0347 3.3441,101.0397 3.3991,101.0527 C3.4461,101.0187 3.4981,100.9907 3.5591,100.9787 L5.7551,100.5327 C5.9741,100.4907 6.1891,100.6307 6.2331,100.8507 C6.2781,101.0697 6.1361,101.2847 5.9161,101.3297 L3.7211,101.7747 C3.6931,101.7797 3.6661,101.7827 3.6401,101.7827 C3.6081,101.7827 3.5781,101.7737 3.5481,101.7677 C3.5021,101.8027 3.4491,101.8297 3.3871,101.8427 L2.4691,102.0287 C2.4421,102.0337 2.4151,102.0367 2.3881,102.0367 C2.1991,102.0367 2.0301,101.9037 1.9911,101.7117 C1.9461,101.4917 2.0881,101.2777 2.3081,101.2327 L2.3081,101.2327 Z M3.0151,93.4277 C3.1221,93.2307 3.3681,93.1577 3.5651,93.2657 L4.3891,93.7117 C4.4421,93.7407 4.4851,93.7817 4.5191,93.8287 C4.5761,93.8317 4.6331,93.8457 4.6871,93.8747 L6.6561,94.9447 C6.8531,95.0527 6.9261,95.2987 6.8181,95.4957 C6.7451,95.6317 6.6051,95.7077 6.4611,95.7077 C6.3961,95.7077 6.3291,95.6917 6.2681,95.6587 L4.2991,94.5887 C4.2451,94.5597 4.2031,94.5187 4.1691,94.4717 C4.1121,94.4687 4.0551,94.4547 4.0011,94.4257 L3.1781,93.9787 C2.9811,93.8717 2.9081,93.6247 3.0151,93.4277 L3.0151,93.4277 Z M14.4551,90.8337 L14.6961,89.0807 C14.7021,89.0337 14.7211,88.9907 14.7411,88.9507 C14.7321,88.9067 14.7261,88.8607 14.7331,88.8137 L14.8331,88.0807 C14.8641,87.8587 15.0701,87.7037 15.2901,87.7337 C15.5131,87.7647 15.6681,87.9687 15.6381,88.1907 L15.5371,88.9237 C15.5301,88.9737 15.5151,89.0187 15.4931,89.0597 C15.5001,89.1017 15.5071,89.1457 15.5001,89.1907 L15.2601,90.9437 C15.2321,91.1467 15.0581,91.2947 14.8581,91.2947 C14.8401,91.2947 14.8211,91.2937 14.8031,91.2907 C14.5801,91.2607 14.4251,91.0557 14.4551,90.8337 L14.4551,90.8337 Z M20.1011,93.7087 C20.0231,93.7787 19.9261,93.8137 19.8281,93.8137 C19.7181,93.8137 19.6081,93.7697 19.5281,93.6807 C19.3771,93.5147 19.3901,93.2577 19.5561,93.1067 L20.8671,91.9177 C20.9021,91.8867 20.9431,91.8657 20.9851,91.8487 C21.0061,91.8087 21.0311,91.7707 21.0661,91.7377 L21.6151,91.2417 C21.7811,91.0897 22.0381,91.1027 22.1881,91.2697 C22.3391,91.4357 22.3261,91.6927 22.1601,91.8427 L21.6111,92.3397 C21.5751,92.3727 21.5341,92.3957 21.4921,92.4137 C21.4701,92.4517 21.4471,92.4887 21.4121,92.5207 L20.1011,93.7087 Z M25.1991,98.4107 C25.2081,98.6357 25.0331,98.8237 24.8091,98.8327 L24.0691,98.8597 C24.0641,98.8607 24.0591,98.8607 24.0541,98.8607 C24.0131,98.8607 23.9741,98.8497 23.9371,98.8377 C23.8941,98.8547 23.8491,98.8687 23.8011,98.8707 L22.0331,98.9377 C22.0271,98.9387 22.0221,98.9387 22.0161,98.9387 C21.8001,98.9387 21.6191,98.7677 21.6111,98.5487 C21.6021,98.3247 21.7771,98.1357 22.0011,98.1277 L23.7701,98.0597 C23.8201,98.0567 23.8671,98.0647 23.9121,98.0797 C23.9521,98.0647 23.9931,98.0517 24.0381,98.0497 L24.7781,98.0207 C25.0121,98.0057 25.1911,98.1877 25.1991,98.4107 L25.1991,98.4107 Z M20.1501,104.1867 C19.9731,104.0487 19.9411,103.7937 20.0781,103.6167 C20.2161,103.4387 20.4711,103.4067 20.6481,103.5447 L22.0461,104.6297 C22.0841,104.6587 22.1111,104.6947 22.1351,104.7327 C22.1781,104.7467 22.2211,104.7657 22.2591,104.7947 L22.8431,105.2487 C23.0201,105.3857 23.0521,105.6407 22.9151,105.8177 C22.8351,105.9207 22.7151,105.9757 22.5941,105.9757 C22.5071,105.9757 22.4191,105.9467 22.3461,105.8897 L21.7611,105.4367 C21.7251,105.4077 21.6991,105.3727 21.6761,105.3367 C21.6311,105.3227 21.5881,105.3017 21.5491,105.2707 L20.1501,104.1867 Z M10.5581,106.4327 L9.7331,107.9987 C9.7101,108.0407 9.6801,108.0757 9.6461,108.1067 C9.6391,108.1507 9.6291,108.1947 9.6081,108.2357 L9.2621,108.8907 C9.1901,109.0287 9.0491,109.1067 8.9031,109.1067 C8.8391,109.1067 8.7741,109.0917 8.7141,109.0607 C8.5151,108.9557 8.4401,108.7097 8.5441,108.5117 L8.8901,107.8567 C8.9121,107.8147 8.9431,107.7817 8.9761,107.7517 C8.9821,107.7067 8.9931,107.6617 9.0151,107.6187 L9.8411,106.0537 C9.9451,105.8547 10.1911,105.7797 10.3891,105.8847 C10.5871,105.9887 10.6631,106.2347 10.5581,106.4327 L10.5581,106.4327 Z M3.4421,103.3787 C3.3571,103.1707 3.4561,102.9347 3.6641,102.8497 L4.3491,102.5697 C4.3941,102.5517 4.4391,102.5467 4.4851,102.5437 C4.5181,102.5147 4.5551,102.4857 4.5981,102.4687 L6.2371,101.8007 C6.4451,101.7147 6.6821,101.8147 6.7661,102.0217 C6.8511,102.2297 6.7511,102.4677 6.5441,102.5517 L4.9051,103.2207 C4.8601,103.2387 4.8141,103.2447 4.7691,103.2467 C4.7351,103.2757 4.7001,103.3047 4.6561,103.3217 L3.9711,103.6017 C3.9211,103.6217 3.8691,103.6317 3.8181,103.6317 C3.6581,103.6317 3.5061,103.5357 3.4421,103.3787 L3.4421,103.3787 Z M6.4731,96.7357 C6.4181,96.9087 6.2591,97.0187 6.0871,97.0187 C6.0461,97.0187 6.0041,97.0117 5.9631,96.9987 L4.2771,96.4567 C4.2331,96.4427 4.1961,96.4177 4.1611,96.3927 C4.1561,96.3927 4.1511,96.3947 4.1461,96.3947 C4.1051,96.3947 4.0631,96.3887 4.0221,96.3747 L3.3171,96.1477 C3.1041,96.0797 2.9861,95.8517 3.0551,95.6387 C3.1231,95.4247 3.3511,95.3077 3.5651,95.3757 L4.2701,95.6027 C4.3151,95.6157 4.3541,95.6417 4.3901,95.6687 C4.4351,95.6677 4.4801,95.6697 4.5261,95.6847 L6.2111,96.2257 C6.4241,96.2937 6.5421,96.5227 6.4731,96.7357 L6.4731,96.7357 Z M11.1961,88.8857 L11.0971,88.1527 C11.0661,87.9307 11.2221,87.7257 11.4441,87.6947 C11.6661,87.6667 11.8701,87.8207 11.9011,88.0427 L12.0001,88.7757 C12.0071,88.8237 12.0011,88.8697 11.9921,88.9137 C12.0121,88.9537 12.0301,88.9957 12.0361,89.0417 L12.2751,90.7967 C12.3051,91.0187 12.1501,91.2227 11.9281,91.2537 C11.9091,91.2557 11.8901,91.2567 11.8721,91.2567 C11.6721,91.2567 11.4981,91.1097 11.4711,90.9057 L11.2321,89.1517 C11.2261,89.1067 11.2321,89.0627 11.2411,89.0207 C11.2191,88.9797 11.2021,88.9347 11.1961,88.8857 L11.1961,88.8857 Z M19.3921,89.3277 L18.9971,89.9537 C18.9721,89.9937 18.9381,90.0257 18.9021,90.0547 C18.8921,90.0977 18.8791,90.1407 18.8541,90.1807 L17.9101,91.6767 C17.8321,91.7987 17.7001,91.8657 17.5661,91.8657 C17.4921,91.8657 17.4171,91.8457 17.3491,91.8037 C17.1601,91.6837 17.1031,91.4337 17.2231,91.2437 L18.1681,89.7467 C18.1931,89.7067 18.2271,89.6757 18.2621,89.6477 C18.2721,89.6037 18.2851,89.5607 18.3111,89.5197 L18.7061,88.8937 C18.8261,88.7047 19.0771,88.6477 19.2661,88.7677 C19.4551,88.8867 19.5131,89.1377 19.3921,89.3277 L19.3921,89.3277 Z M24.5691,94.6157 C24.6371,94.8297 24.5191,95.0587 24.3061,95.1267 L23.6011,95.3527 C23.5601,95.3647 23.5181,95.3717 23.4771,95.3717 C23.4721,95.3717 23.4671,95.3687 23.4611,95.3687 C23.4271,95.3957 23.3901,95.4197 23.3451,95.4337 L21.6601,95.9737 C21.6191,95.9857 21.5771,95.9917 21.5361,95.9917 C21.3641,95.9917 21.2041,95.8827 21.1491,95.7097 C21.0811,95.4967 21.1991,95.2687 21.4121,95.1997 L23.0981,94.6607 C23.1431,94.6457 23.1891,94.6447 23.2341,94.6457 C23.2701,94.6187 23.3081,94.5937 23.3541,94.5787 L24.0581,94.3537 C24.2721,94.2847 24.5001,94.4027 24.5691,94.6157 L24.5691,94.6157 Z M21.5491,101.1457 C21.6341,100.9377 21.8701,100.8387 22.0781,100.9237 L23.7161,101.5947 C23.7601,101.6117 23.7961,101.6397 23.8291,101.6697 C23.8751,101.6717 23.9201,101.6777 23.9651,101.6957 L24.6501,101.9767 C24.8571,102.0617 24.9571,102.2987 24.8721,102.5057 C24.8071,102.6627 24.6561,102.7577 24.4961,102.7577 C24.4451,102.7577 24.3921,102.7487 24.3421,102.7287 L23.6571,102.4467 C23.6141,102.4297 23.5781,102.4017 23.5451,102.3727 C23.5001,102.3707 23.4531,102.3637 23.4091,102.3457 L21.7711,101.6747 C21.5631,101.5897 21.4641,101.3527 21.5491,101.1457 L21.5491,101.1457 Z M12.0051,109.9287 L12.1621,109.2057 C12.1721,109.1587 12.1941,109.1187 12.2171,109.0807 C12.2111,109.0357 12.2091,108.9897 12.2191,108.9437 L12.5951,107.2137 C12.6431,106.9947 12.8581,106.8547 13.0781,106.9027 C13.2971,106.9507 13.4361,107.1667 13.3891,107.3857 L13.0131,109.1157 C13.0021,109.1647 12.9831,109.2087 12.9571,109.2477 C12.9621,109.2907 12.9651,109.3347 12.9551,109.3787 L12.7981,110.1017 C12.7571,110.2917 12.5891,110.4217 12.4021,110.4217 C12.3731,110.4217 12.3451,110.4187 12.3151,110.4117 C12.0971,110.3647 11.9571,110.1477 12.0051,109.9287 L12.0051,109.9287 Z M6.4861,106.3497 L5.9011,106.8017 C5.8271,106.8587 5.7401,106.8867 5.6531,106.8867 C5.5321,106.8867 5.4111,106.8327 5.3311,106.7287 C5.1951,106.5517 5.2271,106.2967 5.4041,106.1597 L5.9901,105.7067 C6.0271,105.6787 6.0691,105.6607 6.1121,105.6467 C6.1361,105.6077 6.1641,105.5717 6.2021,105.5427 L7.6021,104.4587 C7.7791,104.3217 8.0341,104.3547 8.1711,104.5317 C8.3081,104.7087 8.2761,104.9647 8.0981,105.1017 L6.6991,106.1847 C6.6601,106.2147 6.6171,106.2357 6.5731,106.2497 C6.5491,106.2857 6.5231,106.3207 6.4861,106.3497 L6.4861,106.3497 Z M2.7391,99.8407 C2.5151,99.8317 2.3401,99.6437 2.3491,99.4187 C2.3581,99.1947 2.5511,99.0097 2.7701,99.0297 L3.5101,99.0597 C3.5571,99.0617 3.6001,99.0747 3.6411,99.0907 C3.6841,99.0777 3.7291,99.0667 3.7791,99.0697 L5.5471,99.1397 C5.7711,99.1477 5.9461,99.3367 5.9361,99.5617 C5.9281,99.7797 5.7481,99.9507 5.5311,99.9507 L5.5151,99.9507 L3.7461,99.8807 C3.6981,99.8787 3.6531,99.8647 3.6101,99.8477 C3.5731,99.8587 3.5351,99.8707 3.4941,99.8707 C3.4891,99.8707 3.4831,99.8707 3.4781,99.8697 L2.7391,99.8407 Z M6.0831,92.5537 L7.3921,93.7437 C7.5581,93.8947 7.5711,94.1507 7.4201,94.3167 C7.3401,94.4047 7.2301,94.4497 7.1191,94.4497 C7.0221,94.4497 6.9251,94.4147 6.8471,94.3447 L5.5371,93.1537 C5.5031,93.1227 5.4791,93.0857 5.4581,93.0467 C5.4151,93.0297 5.3741,93.0067 5.3381,92.9737 L4.7901,92.4757 C4.6241,92.3247 4.6121,92.0677 4.7631,91.9017 C4.9131,91.7367 5.1701,91.7237 5.3361,91.8747 L5.8841,92.3727 C5.9191,92.4047 5.9441,92.4427 5.9651,92.4827 C6.0071,92.5007 6.0481,92.5207 6.0831,92.5537 L6.0831,92.5537 Z M7.6071,90.0187 C7.4881,89.8297 7.5451,89.5787 7.7341,89.4587 C7.9241,89.3407 8.1751,89.3967 8.2941,89.5867 L8.6881,90.2127 C8.7141,90.2527 8.7271,90.2967 8.7371,90.3407 C8.7721,90.3687 8.8061,90.3997 8.8311,90.4397 L9.7741,91.9377 C9.8941,92.1277 9.8371,92.3777 9.6471,92.4977 C9.5801,92.5397 9.5051,92.5607 9.4311,92.5607 C9.2961,92.5607 9.1641,92.4927 9.0871,92.3707 L8.1441,90.8727 C8.1191,90.8327 8.1071,90.7897 8.0971,90.7467 C8.0601,90.7187 8.0271,90.6867 8.0011,90.6457 L7.6071,90.0187 Z M8.8951,88.2667 C8.8131,88.0587 8.9161,87.8227 9.1241,87.7407 C9.3331,87.6597 9.5691,87.7607 9.6511,87.9697 L9.9941,88.8417 C10.0161,88.8977 10.0221,88.9567 10.0181,89.0147 C10.0601,89.0537 10.0961,89.1007 10.1181,89.1577 L10.9381,91.2427 C11.0201,91.4517 10.9171,91.6867 10.7091,91.7697 C10.6601,91.7887 10.6101,91.7977 10.5601,91.7977 C10.3981,91.7977 10.2451,91.6997 10.1821,91.5407 L9.3621,89.4547 C9.3401,89.3967 9.3341,89.3377 9.3381,89.2797 C9.2971,89.2407 9.2601,89.1947 9.2381,89.1387 L8.8951,88.2667 Z M22.4491,87.8977 C22.6231,88.0397 22.6491,88.2957 22.5081,88.4697 L21.9171,89.1967 C21.8781,89.2447 21.8301,89.2797 21.7791,89.3047 C21.7651,89.3597 21.7411,89.4127 21.7021,89.4597 L20.8341,90.5287 C20.7991,90.5727 20.7541,90.6037 20.7071,90.6277 C20.6921,90.6817 20.6681,90.7327 20.6311,90.7777 L18.9461,92.8527 C18.8661,92.9507 18.7481,93.0017 18.6311,93.0017 C18.5401,93.0017 18.4501,92.9727 18.3741,92.9107 C18.2011,92.7697 18.1741,92.5137 18.3161,92.3397 L20.0011,90.2657 C20.0371,90.2217 20.0811,90.1867 20.1291,90.1627 C20.1431,90.1107 20.1681,90.0607 20.2041,90.0167 L21.0731,88.9477 C21.1111,88.9007 21.1591,88.8667 21.2111,88.8417 C21.2251,88.7857 21.2481,88.7317 21.2871,88.6847 L21.8781,87.9577 C22.0191,87.7837 22.2751,87.7577 22.4491,87.8977 L22.4491,87.8977 Z M27.2441,96.4727 L26.3241,96.6487 C26.2981,96.6537 26.2721,96.6557 26.2471,96.6557 C26.2141,96.6557 26.1831,96.6467 26.1521,96.6397 C26.1051,96.6747 26.0511,96.7017 25.9901,96.7137 L24.6381,96.9747 C24.6131,96.9787 24.5861,96.9807 24.5611,96.9807 C24.5331,96.9807 24.5061,96.9727 24.4781,96.9667 C24.4321,96.9987 24.3811,97.0227 24.3221,97.0347 L21.6991,97.5397 C21.6721,97.5447 21.6471,97.5467 21.6211,97.5467 C21.4311,97.5467 21.2611,97.4117 21.2231,97.2177 C21.1811,96.9967 21.3251,96.7837 21.5451,96.7417 L24.1691,96.2367 C24.2251,96.2277 24.2811,96.2287 24.3331,96.2397 C24.3771,96.2097 24.4291,96.1877 24.4851,96.1767 L25.8371,95.9157 C25.8961,95.9037 25.9551,95.9087 26.0111,95.9237 C26.0571,95.8897 26.1101,95.8627 26.1711,95.8517 L27.0911,95.6747 C27.3091,95.6327 27.5231,95.7757 27.5661,95.9957 C27.6081,96.2167 27.4641,96.4297 27.2441,96.4727 L27.2441,96.4727 Z M23.1281,104.1987 L20.7941,102.8987 C20.5981,102.7907 20.5271,102.5427 20.6371,102.3477 C20.7451,102.1507 20.9931,102.0827 21.1891,102.1897 L23.5231,103.4897 C23.5741,103.5177 23.6151,103.5557 23.6481,103.5987 C23.7011,103.6037 23.7541,103.6187 23.8051,103.6457 L25.0071,104.3157 C25.0611,104.3457 25.1031,104.3877 25.1371,104.4347 C25.1941,104.4377 25.2511,104.4517 25.3051,104.4807 L26.1231,104.9377 C26.3191,105.0467 26.3891,105.2937 26.2801,105.4887 C26.2051,105.6227 26.0681,105.6977 25.9251,105.6977 C25.8581,105.6977 25.7901,105.6817 25.7281,105.6467 L24.9101,105.1907 C24.8561,105.1607 24.8141,105.1197 24.7801,105.0727 C24.7231,105.0687 24.6661,105.0557 24.6131,105.0247 L23.4101,104.3557 C23.3581,104.3277 23.3171,104.2887 23.2841,104.2457 C23.2311,104.2397 23.1781,104.2277 23.1281,104.1987 L23.1281,104.1987 Z M11.1121,109.2547 C11.0931,109.3087 11.0621,109.3537 11.0261,109.3927 C11.0311,109.4467 11.0261,109.5037 11.0071,109.5597 L10.5561,110.8597 C10.4981,111.0277 10.3411,111.1327 10.1731,111.1327 C10.1281,111.1327 10.0841,111.1257 10.0401,111.1107 C9.8281,111.0367 9.7161,110.8057 9.7891,110.5947 L10.2401,109.2937 C10.2581,109.2387 10.2871,109.1917 10.3241,109.1517 C10.3201,109.0987 10.3261,109.0437 10.3451,108.9887 L11.2201,106.4647 C11.2921,106.2517 11.5231,106.1407 11.7361,106.2137 C11.9481,106.2867 12.0601,106.5187 11.9871,106.7297 L11.1121,109.2547 Z M7.4471,103.6977 L5.1531,105.0687 C5.1051,105.0987 5.0531,105.1127 5.0001,105.1197 C4.9681,105.1647 4.9281,105.2047 4.8771,105.2347 L3.6961,105.9417 C3.6441,105.9727 3.5871,105.9877 3.5301,105.9937 C3.4981,106.0417 3.4571,106.0847 3.4051,106.1157 L2.6001,106.5977 C2.5351,106.6367 2.4631,106.6547 2.3921,106.6547 C2.2541,106.6547 2.1201,106.5847 2.0441,106.4577 C1.9291,106.2657 1.9911,106.0157 2.1831,105.8997 L2.9871,105.4197 C3.0401,105.3887 3.0971,105.3727 3.1541,105.3667 C3.1861,105.3187 3.2261,105.2757 3.2791,105.2447 L4.4601,104.5377 C4.5101,104.5087 4.5621,104.4917 4.6161,104.4847 C4.6471,104.4407 4.6871,104.4017 4.7361,104.3727 L7.0301,103.0007 C7.2231,102.8867 7.4721,102.9487 7.5861,103.1407 C7.7021,103.3327 7.6391,103.5817 7.4471,103.6977 L7.4471,103.6977 Z M2.9621,97.9817 L1.6021,97.7647 C1.5411,97.7547 1.4871,97.7287 1.4391,97.6957 C1.4041,97.7057 1.3691,97.7157 1.3311,97.7157 C1.3101,97.7157 1.2881,97.7137 1.2671,97.7107 L0.3421,97.5627 C0.1201,97.5267 -0.0299,97.3177 0.0051,97.0977 C0.0401,96.8757 0.2471,96.7237 0.4701,96.7607 L1.3951,96.9087 C1.4551,96.9187 1.5091,96.9427 1.5561,96.9757 C1.6121,96.9597 1.6701,96.9527 1.7311,96.9627 L3.0901,97.1807 C3.1461,97.1897 3.1981,97.2107 3.2431,97.2387 C3.2951,97.2257 3.3511,97.2227 3.4081,97.2307 L6.0461,97.6547 C6.2681,97.6897 6.4181,97.8977 6.3831,98.1197 C6.3511,98.3187 6.1791,98.4617 5.9831,98.4617 C5.9611,98.4617 5.9401,98.4597 5.9181,98.4557 L3.2791,98.0327 C3.2211,98.0237 3.1681,98.0007 3.1211,97.9707 C3.0901,97.9787 3.0591,97.9867 3.0261,97.9867 C3.0051,97.9867 2.9831,97.9857 2.9621,97.9817 L2.9621,97.9817 Z M4.4191,89.1887 C4.2721,89.0207 4.2901,88.7637 4.4601,88.6167 C4.6291,88.4697 4.8861,88.4887 5.0331,88.6587 L5.6461,89.3657 C5.6861,89.4127 5.7111,89.4657 5.7271,89.5207 C5.7791,89.5437 5.8281,89.5767 5.8691,89.6237 L6.7691,90.6637 C6.8071,90.7067 6.8331,90.7557 6.8491,90.8077 C6.8981,90.8307 6.9431,90.8637 6.9801,90.9067 L8.7301,92.9267 C8.8771,93.0967 8.8581,93.3527 8.6891,93.4997 C8.6121,93.5657 8.5171,93.5987 8.4231,93.5987 C8.3091,93.5987 8.1961,93.5507 8.1161,93.4577 L6.3671,91.4377 C6.3281,91.3947 6.3031,91.3447 6.2861,91.2917 C6.2391,91.2687 6.1931,91.2377 6.1561,91.1947 L5.2551,90.1537 C5.2151,90.1087 5.1901,90.0567 5.1741,90.0027 C5.1211,89.9787 5.0731,89.9437 5.0321,89.8967 L4.4191,89.1887 Z M12.9391,86.3327 L12.9241,85.3957 C12.9211,85.1717 13.0991,84.9877 13.3241,84.9837 C13.5491,84.9857 13.7321,85.1587 13.7361,85.3837 L13.7501,86.3197 C13.7511,86.3807 13.7371,86.4367 13.7141,86.4897 C13.7391,86.5417 13.7551,86.5997 13.7561,86.6607 L13.7771,88.0367 C13.7781,88.0937 13.7661,88.1477 13.7461,88.1977 C13.7681,88.2477 13.7821,88.3007 13.7831,88.3577 L13.8241,91.0297 C13.8271,91.2537 13.6491,91.4387 13.4251,91.4417 L13.4181,91.4417 C13.1971,91.4417 13.0161,91.2647 13.0121,91.0427 L12.9711,88.3707 C12.9701,88.3127 12.9811,88.2587 13.0021,88.2087 C12.9801,88.1607 12.9661,88.1067 12.9661,88.0487 L12.9441,86.6727 C12.9431,86.6117 12.9581,86.5547 12.9821,86.5017 C12.9561,86.4507 12.9401,86.3947 12.9391,86.3327 L12.9391,86.3327 Z M69.2471,115.8887 C70.6521,118.1867 71.6381,126.0907 71.6791,126.4267 C71.7061,126.6477 71.5481,126.8517 71.3261,126.8787 C71.3081,126.8807 71.2921,126.8817 71.2751,126.8817 C71.0741,126.8817 70.8981,126.7307 70.8731,126.5247 C70.8631,126.4447 69.8691,118.4617 68.5551,116.3117 C65.5291,111.3607 63.9941,107.3787 63.9941,104.4747 C63.9941,104.2497 64.1761,104.0677 64.4001,104.0677 C64.6251,104.0677 64.8071,104.2497 64.8071,104.4747 C64.8071,106.3667 65.5771,109.8827 69.2471,115.8887 L69.2471,115.8887 Z M72.9971,90.9847 L73.2211,114.5907 C73.2231,114.8147 73.0431,114.9977 72.8181,115.0007 L72.8151,115.0007 C72.5921,115.0007 72.4111,114.8207 72.4091,114.5987 L72.1851,91.0617 C71.2951,92.1547 69.6381,94.7377 70.3481,98.1687 C70.3831,98.3227 70.6361,99.8227 68.4071,103.0467 C68.2751,103.3117 66.9281,106.1287 68.2661,106.9327 C68.4581,107.0477 68.5201,107.2977 68.4051,107.4887 C68.3281,107.6157 68.1941,107.6867 68.0561,107.6867 C67.9851,107.6867 67.9131,107.6677 67.8481,107.6287 C65.7761,106.3837 67.6181,102.8027 67.6971,102.6497 L67.7231,102.6067 C69.7601,99.6707 69.5551,98.3447 69.5531,98.3317 C68.5081,93.2887 72.0081,90.0257 72.1571,89.8887 C72.1621,89.8847 72.1691,89.8827 72.1741,89.8787 L72.0251,74.1147 C72.0231,73.8907 72.2031,73.7067 72.4271,73.7047 L72.4311,73.7047 C72.6531,73.7047 72.8341,73.8837 72.8371,74.1067 L72.9861,89.8277 C73.0211,89.8447 73.0571,89.8607 73.0881,89.8887 C73.2381,90.0257 76.7371,93.2887 75.6921,98.3337 C75.6901,98.3447 75.4861,99.6707 77.5231,102.6067 L77.5481,102.6497 C77.6271,102.8027 79.4701,106.3837 77.3981,107.6287 C77.3321,107.6677 77.2601,107.6867 77.1891,107.6867 C77.0511,107.6867 76.9171,107.6157 76.8411,107.4887 C76.7251,107.2977 76.7871,107.0477 76.9801,106.9327 C78.3211,106.1267 76.9701,103.3117 76.8391,103.0467 C74.6101,99.8227 74.8631,98.3227 74.8991,98.1627 C75.6261,94.6517 73.8691,92.0297 72.9971,90.9847 L72.9971,90.9847 Z M81.4341,104.4747 C81.4341,107.3787 79.9001,111.3607 76.8741,116.3117 C75.5601,118.4617 74.5661,126.4447 74.5561,126.5247 C74.5311,126.7307 74.3561,126.8817 74.1541,126.8817 C74.1371,126.8817 74.1201,126.8807 74.1031,126.8787 C73.8801,126.8517 73.7221,126.6477 73.7491,126.4267 C73.7911,126.0907 74.7771,118.1867 76.1811,115.8887 C79.8521,109.8827 80.6221,106.3667 80.6221,104.4747 C80.6221,104.2497 80.8041,104.0677 81.0291,104.0677 C81.2521,104.0677 81.4341,104.2497 81.4341,104.4747 L81.4341,104.4747 Z M81.1771,130.4857 C80.8381,130.9487 80.6231,131.5087 80.5581,132.1037 C80.4021,133.5287 79.9201,136.1227 78.4551,137.6697 C78.4851,135.3147 78.5251,130.9677 78.4321,130.1277 C78.3311,129.2277 77.4191,127.3687 76.4851,127.2907 C76.4631,127.2887 76.4411,127.2877 76.4171,127.2877 C76.1481,127.2877 75.7311,127.4237 75.5131,128.1867 C75.2491,129.1087 74.7611,130.0767 74.3991,130.7277 C74.0051,131.4317 73.2811,131.8577 72.5461,131.8137 C71.8711,131.7727 71.6251,131.4417 71.6181,131.4317 C71.6061,131.4127 70.3971,129.5897 69.9201,127.9197 C69.6831,127.0897 69.2101,127.0047 68.9481,127.0237 C68.0131,127.1037 67.1011,128.9617 67.0011,129.8617 C66.9081,130.7007 66.9481,135.0487 66.9781,137.4027 C65.3901,135.7267 64.9611,132.7907 64.8491,131.5917 C64.8081,131.1457 64.6451,130.7267 64.3771,130.3817 C63.5551,129.3197 61.3881,125.8727 59.0471,116.8047 C56.7871,108.0457 54.1651,104.4697 52.3891,102.6827 C52.7771,102.6457 53.1581,102.5067 53.4801,102.2487 C54.3491,101.5507 55.7571,100.1977 57.5241,97.7157 C60.2751,93.8537 55.0421,85.4957 52.6641,82.0817 C52.5491,81.9157 52.3981,81.7827 52.2271,81.6847 C52.7951,81.7607 53.5611,81.7317 54.4281,81.3467 C57.0091,80.1997 59.0331,76.6297 60.4461,70.7357 C60.8361,70.3737 62.8611,68.6987 66.7701,68.8087 L78.6641,69.0747 C82.5731,68.9497 84.5991,70.6427 84.9881,71.0017 C86.4001,76.8957 88.4241,80.4657 91.0051,81.6127 C91.3581,81.7697 91.6921,81.8627 92.0041,81.9177 C92.0001,81.9217 91.9941,81.9237 91.9901,81.9277 C91.1191,82.5857 89.7111,83.8637 87.9431,86.2067 C85.1771,89.8707 90.4201,97.7747 92.8031,101.0037 C93.0581,101.3497 93.4711,101.5517 93.9081,101.5517 C93.9551,101.5517 94.0031,101.5487 94.0521,101.5437 C94.3231,101.5167 94.5621,101.4087 94.7601,101.2497 C94.6881,101.3967 94.6081,101.5277 94.5061,101.6207 C94.4031,101.7147 94.2861,101.8157 94.1581,101.9267 C92.5441,103.3187 89.1871,106.2177 86.3861,117.0707 C84.1191,125.8537 81.9891,129.3787 81.1771,130.4857 L81.1771,130.4857 Z M51.0771,82.6207 C51.1841,82.3737 51.4081,82.3257 51.4991,82.3157 C51.5181,82.3147 51.5371,82.3137 51.5561,82.3137 C51.7331,82.3137 51.8951,82.3977 51.9981,82.5447 C53.7761,85.0997 59.3831,93.7077 56.8631,97.2447 C55.1491,99.6507 53.8011,100.9497 52.9721,101.6147 C52.4611,102.0257 51.7041,101.9657 51.2501,101.4787 C50.8471,101.0467 50.6031,100.4837 50.5661,99.8957 C50.3691,96.7697 50.0271,92.8357 49.5141,91.8427 C48.9911,90.8307 49.4271,86.4147 51.0771,82.6207 L51.0771,82.6207 Z M50.4281,78.6307 C44.9351,64.7827 39.2041,57.8947 37.5781,56.1137 C37.4061,55.9257 37.2531,55.7187 37.0911,55.4997 C36.9551,55.3167 36.8191,55.1337 36.6731,54.9597 C31.1791,48.4467 26.6151,45.6587 22.9481,43.4177 C20.8201,42.1177 18.9821,40.9957 17.5731,39.4517 C16.1101,37.8497 14.7951,35.4517 16.8391,33.1337 C17.0071,32.9437 17.1691,32.7567 17.3151,32.5527 C27.5011,18.3737 20.8181,5.3447 18.5261,1.6897 C18.4141,1.5107 18.5111,1.3537 18.5431,1.3097 C18.5761,1.2657 18.6591,1.1747 18.7951,1.1747 C18.8221,1.1747 18.8511,1.1787 18.8831,1.1867 C19.3421,1.3097 19.7201,1.6177 19.7211,1.6177 C24.2041,5.7497 25.1591,10.6157 25.7901,13.8347 C25.8991,14.3927 26.0031,14.9197 26.1121,15.3767 C26.1501,15.5337 26.1851,15.6897 26.2201,15.8457 C26.2631,16.0357 26.3051,16.2257 26.3521,16.4167 C28.4081,24.8477 23.4351,32.6507 23.3841,32.7257 C23.0291,33.2457 22.9231,33.7357 23.0691,34.1827 C23.2831,34.8407 23.9541,35.0977 24.0321,35.1247 C38.9611,40.3797 46.1751,51.4047 51.9721,60.2637 C52.5921,61.2117 53.1951,62.1337 53.7881,63.0187 C55.0301,64.8717 56.0931,66.2977 56.9481,67.4427 C58.5001,69.5237 59.3271,70.6367 59.3541,71.7347 C57.7171,77.8057 55.6301,79.9127 54.1221,80.5947 C53.4771,80.8857 52.9101,80.9327 52.4761,80.8957 C51.6391,80.3857 50.7071,79.3377 50.4281,78.6307 L50.4281,78.6307 Z M88.6431,67.0777 C89.4971,65.9327 90.5611,64.5067 91.8021,62.6547 C92.3961,61.7697 92.9981,60.8477 93.6191,59.8997 C99.4151,51.0417 106.6291,40.0157 121.5601,34.7597 C121.6361,34.7327 122.3071,34.4767 122.5221,33.8177 C122.6671,33.3717 122.5611,32.8817 122.2061,32.3617 C122.1551,32.2867 117.1821,24.4837 119.2391,16.0527 C119.2861,15.8617 119.3281,15.6717 119.3701,15.4817 C119.4061,15.3257 119.4401,15.1697 119.4781,15.0127 C119.5871,14.5557 119.6911,14.0287 119.8001,13.4707 C120.4321,10.2507 121.3861,5.3857 125.8551,1.2657 C125.8591,1.2627 126.2421,0.9467 126.7061,0.8227 C126.7391,0.8147 126.7681,0.8107 126.7951,0.8107 C126.9311,0.8107 127.0151,0.9007 127.0471,0.9457 C127.0791,0.9897 127.1761,1.1467 127.0641,1.3257 C124.7731,4.9807 118.0891,18.0097 128.2751,32.1877 C128.4201,32.3917 128.5831,32.5787 128.7501,32.7687 C130.7941,35.0887 129.4801,37.4847 128.0171,39.0877 C126.6091,40.6307 124.7711,41.7537 122.6431,43.0537 C118.9761,45.2937 114.4111,48.0827 108.9181,54.5947 C108.7711,54.7697 108.6351,54.9517 108.5001,55.1347 C108.3371,55.3537 108.1841,55.5607 108.0121,55.7497 C106.3861,57.5307 100.6551,64.4197 95.1621,78.2667 C94.7621,79.2797 93.0191,80.9927 92.1401,80.8227 C90.4321,80.4947 87.9571,76.8937 87.1871,74.7187 C86.7171,73.3917 86.3811,72.3477 86.2881,71.9257 C86.0021,70.6177 86.8301,69.5087 88.6431,67.0777 L88.6431,67.0777 Z M94.8951,84.1757 C95.0921,87.1287 95.4351,90.8477 95.9521,91.7907 C96.4711,92.7377 96.0331,96.8857 94.3871,100.4547 L94.3871,100.4557 C94.2841,100.6807 94.0601,100.7267 93.9691,100.7357 C93.7621,100.7607 93.5711,100.6777 93.4561,100.5217 C91.6821,98.1167 86.0861,90.0137 88.5911,86.6957 C90.3031,84.4267 91.6511,83.2027 92.4801,82.5747 C92.7111,82.3997 92.9921,82.3137 93.2721,82.3137 C93.6191,82.3137 93.9651,82.4457 94.2181,82.7017 C94.6181,83.1057 94.8581,83.6287 94.8951,84.1757 L94.8951,84.1757 Z M94.6881,102.5407 C94.8231,102.4257 94.9441,102.3197 95.0521,102.2217 C95.7811,101.5597 95.9101,100.2767 95.9641,98.6387 C96.8591,95.8947 97.1501,93.1417 96.8201,91.8387 C97.2781,89.6817 96.5411,87.0787 95.7801,85.1617 C95.7531,84.8237 95.7291,84.4787 95.7041,84.1217 C95.6561,83.3807 95.3321,82.6737 94.7951,82.1307 C94.7011,82.0347 94.5981,81.9497 94.4901,81.8747 L94.3771,80.6407 L94.1951,80.7407 C94.9931,80.0777 95.6711,79.1867 95.9171,78.5657 C101.3591,64.8467 107.0091,58.0527 108.6121,56.2967 C108.8121,56.0777 108.9851,55.8437 109.1531,55.6177 C109.2781,55.4497 109.4021,55.2797 109.5381,55.1197 C114.9481,48.7067 119.4491,45.9567 123.0661,43.7467 C125.2471,42.4147 127.1301,41.2637 128.6171,39.6347 C131.0011,37.0227 131.2651,34.3947 129.3601,32.2317 C129.2001,32.0507 129.0581,31.8877 128.9341,31.7147 C119.0441,17.9467 125.5291,5.3037 127.7521,1.7567 C128.0031,1.3547 127.9841,0.8477 127.7021,0.4637 C127.4221,0.0857 126.9511,-0.0823 126.4981,0.0387 C125.8541,0.2097 125.3541,0.6257 125.3191,0.6557 C120.6401,4.9687 119.6561,9.9907 119.0031,13.3137 C118.8961,13.8637 118.7941,14.3827 118.6881,14.8227 C118.6501,14.9847 118.6141,15.1447 118.5781,15.3037 C118.5361,15.4887 118.4951,15.6727 118.4501,15.8587 C116.3111,24.6267 121.4821,32.7417 121.5361,32.8197 C121.7401,33.1187 121.8121,33.3697 121.7511,33.5627 C121.6741,33.8037 121.3881,33.9577 121.2891,33.9957 C106.1001,39.3407 98.8031,50.4937 92.9391,59.4557 C92.3211,60.4007 91.7191,61.3197 91.1271,62.2027 C89.8981,64.0387 88.8411,65.4547 87.9931,66.5927 C86.7441,68.2667 85.9061,69.3937 85.5781,70.4417 C85.1631,70.0377 82.9881,68.1357 78.6621,68.2627 L66.7901,67.9967 C62.1161,67.8807 59.9531,70.0677 59.7911,70.2397 C59.3741,69.3417 58.6261,68.3347 57.5981,66.9577 C56.7491,65.8187 55.6931,64.4027 54.4631,62.5667 C53.8711,61.6837 53.2691,60.7647 52.6511,59.8187 C46.7871,50.8577 39.4901,39.7057 24.3061,34.3607 C24.2021,34.3217 23.9151,34.1677 23.8391,33.9277 C23.7781,33.7337 23.8501,33.4827 24.0551,33.1837 C24.1081,33.1047 29.2791,24.9917 27.1401,16.2227 C27.0951,16.0367 27.0541,15.8527 27.0121,15.6677 C26.9761,15.5087 26.9411,15.3487 26.9021,15.1867 C26.7961,14.7477 26.6951,14.2287 26.5871,13.6787 C25.9351,10.3557 24.9501,5.3327 20.2571,1.0077 C20.2371,0.9907 19.7371,0.5747 19.0921,0.4027 C18.6411,0.2837 18.1681,0.4497 17.8891,0.8287 C17.6061,1.2117 17.5861,1.7197 17.8381,2.1217 C20.0611,5.6677 26.5471,18.3097 16.6561,32.0797 C16.5321,32.2527 16.3841,32.4227 16.2301,32.5957 C14.3251,34.7577 14.5891,37.3867 16.9731,39.9987 C18.4601,41.6277 20.3431,42.7787 22.5241,44.1107 C26.1411,46.3207 30.6431,49.0707 36.0521,55.4837 C36.1881,55.6447 36.3131,55.8137 36.4381,55.9827 C36.6051,56.2087 36.7791,56.4427 36.9781,56.6607 C38.5811,58.4167 44.2311,65.2097 49.6731,78.9297 C49.8791,79.4507 50.3901,80.1597 51.0201,80.7667 L50.9991,80.9917 C50.9781,81.2217 50.9431,81.4467 50.9001,81.6687 C50.6511,81.8067 50.4521,82.0227 50.3321,82.2967 C49.5321,84.1367 48.9941,86.1627 48.7201,87.9277 C48.4941,89.0037 48.3971,90.1037 48.5361,91.1247 C48.5751,91.5527 48.6521,91.8957 48.7651,92.1447 C48.7661,92.1487 48.7671,92.1527 48.7681,92.1577 C49.3501,93.9037 49.4011,95.8587 49.4461,97.5857 C49.4971,99.5997 49.5381,101.1897 50.3801,101.9547 C50.4891,102.0537 50.6101,102.1587 50.7451,102.2747 C52.2961,103.6127 55.5241,106.3987 58.2611,117.0077 C60.6391,126.2227 62.8821,129.7777 63.7361,130.8797 C63.9091,131.1027 64.0141,131.3737 64.0411,131.6657 C64.1621,132.9667 64.6381,136.1737 66.4521,138.0277 L67.8361,140.5197 L67.8111,138.9007 C67.7671,136.1857 67.7121,130.8207 67.8081,129.9507 C67.9001,129.1217 68.7241,127.8587 68.9891,127.8257 C68.9901,127.8267 69.0651,127.8837 69.1401,128.1427 C69.6511,129.9337 70.8901,131.8027 70.9391,131.8777 C70.9851,131.9467 71.4111,132.5597 72.4981,132.6247 C73.5411,132.6867 74.5641,132.0977 75.1081,131.1227 C75.4921,130.4357 76.0081,129.4067 76.2931,128.4087 C76.3591,128.1807 76.4251,128.1097 76.4221,128.1007 C76.7191,128.1407 77.5331,129.3937 77.6241,130.2177 C77.7211,131.0877 77.6651,136.4517 77.6221,139.1667 L77.5971,140.7857 L78.9811,138.2947 C80.6591,136.5797 81.1951,133.7397 81.3661,132.1917 C81.4151,131.7387 81.5771,131.3137 81.8321,130.9657 C82.8741,129.5427 84.9531,125.8727 87.1721,117.2737 C89.9101,106.6657 93.1371,103.8797 94.6881,102.5407 L94.6881,102.5407 Z"/>
</svg>
