<svg xmlns="http://www.w3.org/2000/svg" width="209" height="397"><g fill="none" fill-rule="evenodd"><path fill="#C29A5B" d="M133.08 209.8c-.4.99-.84 1.95-1.33 2.88a20.5 20.5 0 0 1 1.45 4.76c.5-1.54.67-3.2.46-4.86-.17-1.35-.38-2.21-.58-2.77zm-.56 9.3c.17-1.8-.74-4.35-1.23-5.57a40.04 40.04 0 0 1-1.94 3.13c.2.7.93 3.6.05 6.16a10.66 10.66 0 0 0 3.12-3.73zm-7.88 6.72a28.52 28.52 0 0 0 3.48-2.04c1.35-2.06.96-4.95.66-6.3a49.92 49.92 0 0 1-3.53 4.36c.13.57.4 2.27-.61 3.98zm-6.22 2.43c1.25-.36 2.9-.93 4.67-1.7a4.7 4.7 0 0 0 1.51-4.01 58.23 58.23 0 0 1-6.18 5.7zm-.68-.42a57.35 57.35 0 0 0 6.27-5.75c-1.48-.04-3.87.1-4.77 1.13-.3 1.46-.8 3.32-1.5 4.62zm1.72-5.73c1.67-.92 4.44-.8 5.21-.74 1.2-1.32 2.42-2.8 3.56-4.4-2.13-.06-6.1.02-7.43.94l-.12.09c-.3.74-.6 1.54-.86 2.4l-.2.64c-.01.15-.07.54-.16 1.07zm1.73-5.21c2.26-.84 6.43-.72 7.55-.66.71-1.04 1.39-2.12 2.01-3.26-2.64-.34-6.23-.57-6.86-.07a16.66 16.66 0 0 0-2.7 3.99zm11.43-7.96c-.82.03-1.37.14-1.45.16l-.02-.1c-.94.13-2.22.43-3.6 1.12l-.72.4c-.64.37-1.3.83-1.94 1.4 1.95-.18 5.07.2 6.23.35a31.94 31.94 0 0 0 1.5-3.33zm4.28-10.3c-.02-.01-.04 0-.06-.02l-.05-.05.03.15.08-.08zm-3.38 10.31c.39.73.68 1.9.89 3.54a11.8 11.8 0 0 1-3.63 10.15c-4.84 4.47-12.95 6.8-14.5 6.8-.1 0-.17 0-.21-.02l-.22-.1-.03-.26c-.02-.27.23-.4.34-.46 1.36-.7 2.3-5.03 2.65-7.19l.08-.52a27.6 27.6 0 0 1 1.3-3.58c.32-.73.68-1.4 1.05-2.03.62-1.05 1.3-1.94 1.99-2.7-.69.4-1.4.83-2.11 1.27v-.03a1.76 1.76 0 0 0-.27-.7c3.91-2.39 7.43-4.24 7.5-4.28.8-.42 1.65-.68 2.54-.8l.14-.02.46-.07-.06.1c1.92-.25 9.12-.55 12.17 8.02 2.47 6.93 10.13 9.75 14.24 11.26l.38.14c.75.27 1.97 1.18 3.04 1.99.53.39 1 .74 1.31.94l.16.09c.02-.46-.22-2.07-2.77-7.59-5.38-11.63-21.19-16.24-22.5-16.33l-3.36-.58c-.4-.07-.7-.34-.86-.7-.03-.06-.06-.1-.07-.17-.06-.22-.05-.46.02-.67.04-.24.16-.47.36-.63l.46-.4.27-.27a7.52 7.52 0 0 0 .94-1.1l.12-.19c.1-.14.18-.28.26-.43l.1-.2.18-.45.08-.26c.04-.14.08-.29.1-.44.03-.12.03-.24.04-.37l.03-.36c0-.26-.04-.52-.1-.79-.38-1.67.4-4.14 1.49-6.62.67-1.53 1.45-3.06 2.14-4.4.81-1.6 1.51-2.97 1.6-3.54.26-1.6-.03-8.86-.12-10.97l-.67.32a.85.85 0 0 0-.22-.72l1.17-.58.23.1c.13.08.2.21.21.36.08 1.62.44 9.8.15 11.6a4.3 4.3 0 0 1-.28.85 64.22 64.22 0 0 1 5.18-6.6c5.26-5.8 14.79-2.34 17.6-1.13l-.25.72c-2.62-1.11-11.9-4.5-16.8.92a66.08 66.08 0 0 0-9.22 13.32c-.85 1.92-1.52 3.86-1.55 5.31 1.1-2.08 7.37-13.59 13.77-18.41.17-.13.4-.1.53.07.12.17.1.4-.07.53-4.45 3.34-8.94 10.2-11.52 14.55 2.07-2.86 5.02-6.58 7.62-8.6a.38.38 0 0 1 .46.6c-3.71 2.88-8.3 9.55-9.7 11.62 2.14-1.82 6.2-5.02 10.57-7.01l-.09-.05c.25-.44 6.25-10.75 14-11.35l1.6-.15-.2.78-1.35.12c-6.16.48-11.36 7.78-12.92 10.2 3.2-1.29 6.48-1.83 9.24-.64l.95.43c.76-.13 1.55-.8 2.31-1.78l-.15 1.3c-.4.39-.79.7-1.2.92l1.11.52-.02.83a71.04 71.04 0 0 0-3.3-1.53c-7.64-3.31-20.25 8.11-21.46 9.24a4.84 4.84 0 0 1-.2 1.13l-.1.26-.04.1a31.09 31.09 0 0 1 6.6-5.04.37.37 0 1 1 .35.66c-3.03 1.62-6.01 4.44-7.83 6.35 3.36-2.58 11.03-7.72 19.8-8.63.22-.03.39.13.41.33.02.21-.13.4-.33.42-8.88.92-16.6 6.27-19.72 8.7 2.38-1.15 6.6-2.95 10.46-3.42a.37.37 0 0 1 .1.74c-3.14.38-6.6 1.71-9 2.8 2.57-.35 7.06-1.15 10.44-2.82a.37.37 0 1 1 .33.67c-3.36 1.67-7.66 2.47-10.31 2.84 4.57.24 15.28.27 23.19-3.82a.38.38 0 0 1 .35.66c-6.47 3.35-14.76 4-20.18 4-1.48 0-2.73-.05-3.7-.1.25.02.73.13 1.38.3 2.54.54 6 1.06 9 .78.22-.01.38.14.4.34.02.2-.13.4-.34.4-.61.07-1.24.1-1.88.1-1.02 0-2.06-.08-3.07-.18.86.35 1.79.76 2.75 1.22 7.19 1.73 10.78 1.26 14.93.7l.34-.04c1.3-.17 2.77-1.44 4.18-3.08l.38.7c-1.47 1.66-3.04 2.94-4.46 3.13l-.34.04c-2 .27-3.88.52-6.08.52-1.85 0-3.91-.18-6.48-.66.28.15.56.31.83.48.08-.04.17-.06.27-.04.06.01 6.1 1.34 10.62.59.22-.03.4.1.44.3.01.1-.01.19-.06.26l-.4.2c-1 .15-2.08.22-3.14.22-.75 0-1.49-.03-2.2-.08 1.18.22 2.49.44 3.84.6l-1.15.62a64.92 64.92 0 0 1-5.8-1.11 34.03 34.03 0 0 1 4.06 3.31 24.5 24.5 0 0 1 5.36 7.34 98.95 98.95 0 0 1 1.19 2.68c2.08 4.88 1.8 5.77 1.34 6.18-.12.1-.3.2-.53.2-.22 0-.5-.08-.83-.3-.33-.2-.83-.57-1.37-.98-.94-.7-2.08-1.55-2.71-1.82l-.09-.03-.37-.14-.6-.23c-2.94-1.08-7.23-2.79-10.48-5.92a14.47 14.47 0 0 1-3.76-5.71c-2.16-6.08-6.45-7.32-9.14-7.46zm-34.44-16.88c-.6.39-1.16.82-1.7 1.26.28.8.79 2.29 1 3.48a7.5 7.5 0 0 0 .7-4.74zm-1.36 5.87h-.02c.19-.38-.31-2.32-.94-4.1-.56.5-1.09 1.03-1.6 1.56.2.75.75 3 .65 4.57.8-.67 1.43-1.35 1.9-2.03zm-2.8 2.72c.37-.78.03-2.99-.36-4.6-.78.87-1.48 1.77-2.1 2.64.16.55.53 2.02.3 3.19l.45-.18c.64-.34 1.2-.7 1.7-1.05zm-5.41 2.9c.7-.5 1.56-.94 2.3-1.27.42-.62.28-1.87.08-2.78a37.75 37.75 0 0 0-2.38 4.05zm-.53-.61c.52-1.01 1.3-2.39 2.32-3.9-.58.12-1.38.46-1.95 1.4-.19.92-.3 1.77-.37 2.5zm.71-4a3.75 3.75 0 0 1 2.17-.71c.62-.86 1.3-1.73 2.07-2.6-.95.03-2.54.25-3.52 1.23-.29.69-.53 1.39-.72 2.09zm1.36-3.42a7.79 7.79 0 0 1 3.57-.64c.47-.5.96-.98 1.49-1.45a8.6 8.6 0 0 0-3.38.02c-.61.5-1.14 1.11-1.55 1.8l-.13.27zm3.12-3c1.14 0 2.26.19 2.68.27.42-.35.86-.69 1.32-1.01l-.37-.01c-.3 0-.67.01-1.12.05-.88.08-1.73.32-2.5.7zm5.54-1.02l.03.1c.01.05.9 3.24-1.35 6.62l-.01.03h-.01a13.03 13.03 0 0 1-4.85 4.13c-1.65.61-4.28 1.87-4.51 2.76-.03.08-.1.33-.35.37l-.24.05-.15-.21c-.38-.54.02-6.65 2.27-10.48a7.85 7.85 0 0 1 6.07-3.8c2.36-.2 2.85.22 3.01.35l.09.08zm-54.98 55.53a.37.37 0 0 0-.01.53l.18.17c.25-.02.6 0 1.13.01-.26-.2-.52-.43-.77-.7a.37.37 0 0 0-.53 0zm-.42.88c-.56-.46-1.13-.99-1.7-1.61a.37.37 0 1 0-.56.5c.82.9 1.66 1.63 2.45 2.2a1.71 1.71 0 0 0-.19-.54l-.15-.19.1-.27a.56.56 0 0 1 .05-.09zm3.58-4.72a.38.38 0 0 0-.33.41c.19 1.44 1.2 3.15 2.13 4.44.42.1.82.22 1.2.36-.96-1.25-2.38-3.3-2.58-4.89a.38.38 0 0 0-.42-.32zm4.26 5.82c-.05-2.7-2.54-6.19-2.65-6.35a.38.38 0 0 0-.61.44c.02.04 2.2 3.09 2.49 5.49.28.13.53.27.77.42zm.6.47c.08-.48.24-1.07.5-1.74a9.97 9.97 0 0 0-3.38-6.64.38.38 0 0 0-.5.56 9.47 9.47 0 0 1 3.16 7.61l.22.2zm-15.83 10.24l.2.01h.27c1.47 0 2.88-.8 3.74-2.16.26-.41.7-.77 1.29-1.06a14.7 14.7 0 0 1 4.27-1.1 5.2 5.2 0 0 1-1.21-.82c-1.18.2-2.47.52-3.5 1.02-.76.38-1.34.85-1.7 1.43a3.4 3.4 0 0 1-3.1 1.7l-.03.5-.15-.52c-.52-.04-.84-.17-.95-.4-.15-.3-.16-1.2 1.5-3.66 1.18-1.74 4.49-2.58 7.22-2.99a8.84 8.84 0 0 0-.11-1.68 13.53 13.53 0 0 1-4.64-3.74l-1.11-1.48c-1.39-1.8-1.78-2.32-1.95-3.77.74.89 2.1 2.26 4.23 2.5 2.56.27 4.42 1.87 5.5 3.1.27.46.57.86.88 1.21l.63.03c.16 0 .32.03.48.04a6.3 6.3 0 0 1-.33-.32c-.16-.26-.51-.8-1.07-1.45-.11-.2-.22-.4-.32-.62-1.54-3.46-1.86-4.41-2.57-6.5l-.33-1a7.5 7.5 0 0 0-.9-1.97c0-.02-.04-.07.02-.12a.09.09 0 0 1 .06-.03.1.1 0 0 1 .05.01c2.08 1.14 5.77 3.2 7.11 4.22a10.3 10.3 0 0 1 3.22 6.83c.17-.33.41-.62.69-.89a10.95 10.95 0 0 0-3.45-6.54c-1.38-1.04-5.11-3.13-7.2-4.28a.84.84 0 0 0-1.03.16.83.83 0 0 0-.1 1.03c.47.77.6 1.14.81 1.8l.34 1.02c.63 1.86.96 2.84 2.1 5.45a8.74 8.74 0 0 0-4.51-1.94c-2.18-.23-3.44-1.84-4.05-2.61-.3-.4-.5-.63-.8-.51-.31.11-.29.46-.28.57.14 2.38.53 2.89 2.17 5.04l1.1 1.46a14.29 14.29 0 0 0 5.01 4.02c-2.88.45-6.35 1.4-7.7 3.39-1.54 2.29-2.02 3.73-1.57 4.66.28.57.87.9 1.77.96zm137.34-9.44c-1.01.18-2.22.14-3.32.03l.02.17c0 .31-.08.58-.17.82 1.2.13 2.51.17 3.64-.03a4.02 4.02 0 0 0 2.03-.91c1-.9 2.29-1.2 3.5-.76l.12.04c.48.18.75.39.8.63.05.35-.18 1.2-2.45 3.12-2.48 2.1-9.29.73-11.2.3.04.13.1.28.13.44.05.2.07.4.08.63 1.35.3 3.88.76 6.34.76 2.06 0 4.07-.33 5.3-1.36 2.1-1.78 2.96-3.03 2.78-4.06-.11-.62-.6-1.1-1.45-1.4l-.18-.07a4.38 4.38 0 0 0-4.44.99c-.37.32-.88.55-1.53.66zm-66-101.98l-.25-.1a4.83 4.83 0 0 0-1.64-.28 6.06 6.06 0 0 0-1.85 1.54c.5.02 1 .05 1.49.11.26-.24 1.15-1 2.24-1.27zm2.25 1.23c-.42-.3-.88-.57-1.35-.82-1-.1-1.97.53-2.49.95.82.12 1.6.28 2.32.46.2-.17.75-.55 1.52-.59zm2.2 1.84c-.37-.36-.84-.79-1.37-1.22a2.08 2.08 0 0 0-1.72.15c1.27.36 2.35.76 3.09 1.07zm-.02.54c-.72-.31-1.83-.74-3.17-1.12.3.58.8 1.35 1.32 1.48a9.74 9.74 0 0 1 1.85-.36zm-2.5.56a5.16 5.16 0 0 1-1.3-1.86c-.74-.19-1.53-.35-2.36-.47.52 1.04 1.34 2.4 1.9 2.65.45-.04.92-.1 1.43-.2l.33-.12zm-2.5.36c-.78-.8-1.53-2.3-1.75-2.76a17.4 17.4 0 0 0-1.58-.12c.46 1.24 1.07 2.52 1.35 2.64a7.5 7.5 0 0 0 1.97.24zm-3.82-3.38c.18-.23.72-.87 1.36-1.39-.6.15-1.2.4-1.72.78-.4.27-.66.49-.85.67.4-.04.8-.06 1.2-.06zm4.3-1.72c2.93 1.03 5.9 4.12 5.94 4.58l.01.16-.14.1c-.16.08-.3-.02-.35-.05-.53-.37-2.5.13-3.63.54-.85.18-1.63.26-2.32.26-.83 0-1.54-.1-2.17-.28l-.03-.01a6.17 6.17 0 0 1-3.04-1.95c.08-.13.15-.27.2-.43l.02-.07c.4.52 1.1 1.23 2.21 1.72-.43-.74-.84-1.8-1.05-2.35-.37 0-.74.02-1.11.05a3.55 3.55 0 0 0-.14-.67l-.08-.34c.2-.17.44-.36.73-.56a5.48 5.48 0 0 1 4.96-.7zm20.3 101.82a37.75 37.75 0 0 0-1.94-4.58 4.75 4.75 0 0 0-4.07-1.3 58.03 58.03 0 0 1 6 5.88zm-.39.7a57.14 57.14 0 0 0-6.06-5.97c.03 1.48.3 3.87 1.37 4.7 1.47.24 3.36.63 4.7 1.27zm-5.8-1.42c-1.02-1.63-1.03-4.4-1-5.18a49.12 49.12 0 0 0-4.59-3.33c.05 2.2.35 6.35 1.41 7.49.94.34 1.97.65 3.1.9l1.07.12zm-5.3-1.47c-.95-2.22-1.04-6.39-1.04-7.51a38.63 38.63 0 0 0-3.35-1.84c-.21 2.65-.26 6.24.27 6.85v.01c1.08.91 2.43 1.76 4.12 2.49zm-.06-12.02a11.27 11.27 0 0 0-4.88-.22c-1.33.23-2.18.49-2.73.72 1 .34 1.98.74 2.93 1.18a20.2 20.2 0 0 1 4.68-1.68zm-5.1 8.58a33.4 33.4 0 0 1 .04-6.25 31.5 31.5 0 0 0-3.41-1.33l-.03.02c.01.74.24 4.31 3.4 7.56zm6.8-7.99c-1.8-.07-4.3.96-5.5 1.5a39.8 39.8 0 0 1 3.22 1.79c.7-.24 3.55-1.1 6.15-.36a10.7 10.7 0 0 0-3.88-2.92zm3.1 7.12c.56-.16 2.25-.5 4 .42a28.42 28.42 0 0 0-2.2-3.37c-2.13-1.26-5-.72-6.33-.35a50 50 0 0 1 4.53 3.3zm6.29 3.28c1.25 2.83 1.86 5.14 1.73 5.51l-.08.23-.26.04h-.04c-.25 0-.38-.22-.44-.32-.43-.74-1.98-1.29-3.66-1.68a33.46 33.46 0 0 0-4.18-.66c-4-.9-6.79-2.42-8.76-4.11l-.02.02-.06-.09a13.37 13.37 0 0 1-4.08-6.21 12.1 12.1 0 0 1-.55-2.39c-.33.35-.62.72-.87 1.12-2.22 3.54-2.1 8.86-1.2 13.89l-.76-.02c-.9-5.14-.98-10.58 1.32-14.27.43-.68.96-1.29 1.58-1.82.15-.18.36-.36.65-.52 1.25-1.04 4.3-4.56 3.53-13.73l-.03-.37c.23.16.44.32.68.46l.11.06c.56 7.17-1.13 11-2.64 12.94.52-.15 1.12-.28 1.81-.4 3.79-.68 7.64.49 10.32 3.1 2.32 2.28 4.16 5.38 5.44 8.11a.78.78 0 0 1-.03.05l.49 1.06zm-37.67-62.27c-.8-.29-1.6-.69-2.4-1.24l-.03.03-.12-.13c-.6-.43-1.2-.96-1.75-1.59-1.82-1.4-4.82-3.13-8.45-2.82-3.23.28-5.57-1.58-6.69-2.54.68 2.34 1.3 2.9 3.84 5.15.55.48 1.18 1.04 1.9 1.7a18.95 18.95 0 0 0 7.5 3.92c1.22.04 2.56.13 3.87.32.15.03.55.03.98.05h.42c-.01-.12-.03-.24-.03-.37-.06.03-.12.07-.19.07h-.03c-.19-.02-4.69-.44-9.41-4a.37.37 0 1 1 .45-.6 19.45 19.45 0 0 0 9.02 3.85c.07 0 .12.03.18.07.02-.3.08-.58.16-.82a12.09 12.09 0 0 1-5.99-2.18.38.38 0 1 1 .43-.6 11.38 11.38 0 0 0 5.99 2.05c.1-.12.22-.23.35-.32zm-3.37 5.77a12.21 12.21 0 0 1-5.98 1.52c-2.02 0-3.43-.45-3.45-.46a.37.37 0 0 1 .23-.71 12 12 0 0 0 8.15-.65 10.41 10.41 0 0 1-6.5-.53.5.5 0 0 1 .42-.9c.04.01 3.8 1.7 7.8-.25-.7-.03-1.4-.11-2.1-.23a59.85 59.85 0 0 0-4.24-.11c-1.34 0-6.31 1.39-7.76 5.69 1.3.4 5.14 1.4 8.33.43 3.78-1.15 4.07-1.55 5.1-3.8zM75.95 177.5c.5.07 1.01.11 1.57.07 2.82-.25 5.25.62 7.1 1.68a83.67 83.67 0 0 1-3.18-4.8c-.32.1-.82.22-1.55.19-.4-.02-.71-.1-1-.16-.59-.15-1.06-.26-2.14.26-.82.4-.86 2.08-.8 2.76zm9.92 2.23c.2.27.4.53.6.77.9.7 1.53 1.34 1.82 1.65a10 10 0 0 0 3.23 1.5c.14-.02.27-.05.43-.06-1.69-1.42-4.68-4.2-5.51-6.72-.07-.2.04-.41.23-.48.2-.06.41.05.48.24.88 2.68 4.61 5.86 5.94 6.93h.07c-.5-3.43-5.05-7.74-5.1-7.79a.38.38 0 0 1 .52-.54c.2.19 4.87 4.62 5.34 8.34l.58.01.24.01a13.27 13.27 0 0 0-6.43-9.93.38.38 0 0 1 .38-.65 14.04 14.04 0 0 1 6.8 10.58c.1 0 .18 0 .26-.02.06-.5.09-1 .08-1.47-.1-.61-.22-1.42-.28-2.34-1.09-4.56-4.88-7.82-6.26-8.5-2.1-1.02-7.67-2.85-10.81-3.85a.27.27 0 0 0-.32.12c-.03.04-.1.19.03.33.93 1 1.22 1.54 1.72 2.42l.72 1.27c1.52 2.66 2.21 3.87 5.24 8.18zm10.98 2.36a9.89 9.89 0 0 0 3.14-8.21c-.03-.2.1-.4.31-.43.2-.04.4.1.43.3.02.16.4 2.72-.88 5.53 2.1-3.12 2-6.4 2-6.44a.5.5 0 1 1 1-.04c.01.23.15 4.92-3.47 8.64a10.04 10.04 0 0 0 3.91-6.12c.14-1.54.38-4.13.24-6.57-.01-.15 0-.5.03-.9a5.32 5.32 0 0 1-2.07 1.61c-2.34.84-2.77 1.08-4.25 4.75-1.13 2.8-.69 6.26-.39 7.88zm7.1-5.26c-.62 1.99-2.37 5.14-5.61 6.45.33.11.67.34 1.04.76.24.27.56.95 1.01 1.94.22.5.48 1.06.58 1.19.91 1.22 4.23 3.84 4.27 3.87l2.73 2.62.56-1.65c.28-1.5.6-3 .94-4.46.11-.46.1-.94-.04-1.39l-4.87-15.97c.01 2.02-.16 3.96-.27 5.22-.03.35-.15.84-.34 1.42zm-13.66 8.45c-.4 1.01-.06 2.69.46 3.06.07.05.22.15.54-.12 3.13-2.7 6.04-.1 7.78 1.44l4.15 3.77c.35.33.65.63.87.91l.07.08c.56.69 1.11 1.38 1.7 2.04.47.53.96 1.15 1.46 1.85l.2.25-.31.22.32-.19c.37.64.53 1.4.45 2.16-.24 2.1-.42 4.13-.53 6.16-.25-.37-.46-.77-.67-1.18.11-1.67.25-3.35.45-5.07a2.77 2.77 0 0 0-.34-1.68 23.45 23.45 0 0 0-1.59-2.02 59.6 59.6 0 0 1-1.72-2.07l-.07-.08c-.2-.25-.47-.52-.8-.82l-4.14-3.77c-1.76-1.56-4.16-3.7-6.8-1.43-.48.41-1.01.47-1.45.16a1.7 1.7 0 0 1-.46-.55 5 5 0 0 0-1.98 1.84c-1.18 2.58-1.71 3.13-5.72 4.35-1.09.33-2.24.46-3.34.46-3.14 0-5.91-1-6.07-1.06l-.43-.16.12-.44c1.37-5.17 7.05-6.88 8.86-6.88h.36a18.84 18.84 0 0 1-5.52-3.33c-.73-.67-1.35-1.22-1.9-1.7-2.84-2.52-3.43-3.05-4.25-6.2-.04-.16-.13-.52.16-.7.3-.19.56.03 1.06.47.76.65 2.12 1.8 3.98 2.3-.04-.74 0-2.68 1.24-3.29 1.32-.64 2-.47 2.65-.31.27.06.52.13.85.14.5.02.87-.04 1.12-.1l-1.07-1.87-.73-1.28c-.48-.86-.74-1.33-1.61-2.27a1.01 1.01 0 0 1-.12-1.24c.26-.4.73-.57 1.18-.43 3.16 1 8.78 2.85 10.92 3.9 1.42.68 4.35 3.18 5.93 6.76.09-1.17.3-2.39.76-3.52 1.57-3.88 2.17-4.36 4.84-5.32.79-.28 1.71-1.27 2.25-2.16L100 155.2c-.28-.8-.75-1.86-1.33-3.1l.16.05c.18.03.43.07.73.09.5 1.08.9 2 1.15 2.73l3.25 10.67.26.03c.46.13.45.42.35 1.97l5.58 18.3c.17.57.2 1.18.05 1.77-.34 1.45-.66 2.95-.94 4.46-.03.17-.08.36-.13.54l-.04.17c-.08.31-.2.62-.34.9l-.15.3-.35.55-.13.21-3.38-3.25c-.1-.08-3.4-2.69-4.37-3.98a9.76 9.76 0 0 1-.66-1.33c-.3-.65-.7-1.54-.9-1.75-.68-.77-1.04-.67-1.84-.46-.47.13-1.07.29-1.83.27l-.66-.02c-2.68-.08-3.79-.07-4.19.95zm73.68 60.36l.1.03c.45-.22 1-.37 1.62-.44a6.67 6.67 0 0 1-1.69-.34c0 .28-.01.53-.03.75zm4.7-.84v.01c.75-.26 1.56-.67 2.4-1.24a17 17 0 0 1-4.1-1.8 24 24 0 0 0-1.85 1.1c1.5 1.05 3.16 2 3.55 1.93zm-2.9-5.88a8.6 8.6 0 0 0-.93 3.24c.58-.38 1.17-.72 1.76-1.04.1-.46.5-2.04 1.54-3.23l-.26.05a6.7 6.7 0 0 0-2.11.98zm5.98-1.4c-.71 0-1.43.03-2.15.12-1.2.67-1.81 2.12-2.1 3 1.03-.5 2.04-.93 3-1.29a3.7 3.7 0 0 1 1.25-1.83zm3.9.37c-.7-.12-1.5-.23-2.4-.3-1 .28-1.53.92-1.8 1.43 1.65-.56 3.11-.91 4.2-1.13zm.5.66c-1.08.2-2.66.57-4.45 1.17.8.43 1.95.9 2.65.66.5-.6 1.14-1.3 1.8-1.83zm-2.44 2.63a7.36 7.36 0 0 1-2.94-1.13c-.98.36-1.99.78-3.01 1.3 1.41.79 3.4 1.69 4.21 1.54.49-.4.98-.84 1.49-1.37l.25-.34zm-6.5 4l.18-.04a22.55 22.55 0 0 1-2.92-1.8c-.18.13-.36.25-.54.4l-.06-.55c-.02-.1-.06-.19-.09-.28l.25-.18c.02-.3.12-1.5.45-2.67a7.14 7.14 0 0 0-1.15 1.82 5.36 5.36 0 0 0-.5-.7 7.67 7.67 0 0 1 4.85-3.96c4.22-1.11 10.1.14 10.52.64l.15.18-.1.24c-.11.24-.37.24-.46.23-.86 0-2.7 2.04-3.76 3.5a12.91 12.91 0 0 1-5.07 3.46c-.06-.03-.11-.06-.18-.08-.4-.1-.83-.15-1.26-.19l-.31-.03zm-35.39-50.1a40.68 40.68 0 0 0-5.53-2.28c.46 1.02 1.29 2.46 2.2 2.74 1-.24 2.26-.47 3.33-.47zm-4.38.72c-1.11-.9-1.85-2.69-2.08-3.3a35.22 35.22 0 0 0-4-.96c.7 1.55 2 4.16 3.02 4.68.76-.03 1.56-.1 2.45-.24.08-.03.3-.1.61-.18zm-4.2.43c-1.24-1.35-2.38-3.95-2.74-4.82a28.9 28.9 0 0 0-2.73-.28c.65 2 1.5 4.04 1.99 4.45.95.36 2.1.6 3.47.65zm-4.76-1.24a27.54 27.54 0 0 1-1.5-3.89c-.56-.01-1.11 0-1.67.02v.02c.12.44.82 2.48 3.17 3.85zm-2.99-4.62c.5-.02.99-.03 1.48-.02.18-.22 1.3-1.48 2.6-2.42-1.09.19-2.15.58-3.12 1.19-.56.35-.81.8-.96 1.25zm8.6-1.97a8.13 8.13 0 0 0-2.76-.59c-1.25.45-2.67 1.82-3.37 2.57.89.05 1.76.15 2.62.28a8.98 8.98 0 0 1 4-2.02c-.17-.08-.33-.17-.5-.24zm4.18 2.52c-.73-.56-1.5-1.1-2.32-1.57-1.74-.24-3.48.82-4.36 1.47 1.4.25 2.74.6 3.98.97.38-.29 1.36-.9 2.7-.87zm1.22 1.01a3.55 3.55 0 0 0-2.97.15c2.23.73 4.07 1.55 5.3 2.15-.6-.67-1.4-1.48-2.33-2.3zm3.2 1.14a16.56 16.56 0 0 1-.98-11.22l.75.09c-1.35 4.49-.02 9 .9 10.78.34.66.43 1.61.37 2.72.11.17.18.3.18.38l.01.24-.22.13h-.03c-.39 3.44-2.06 7.9-3.35 9.73-1.27 1.82-6.57 4.58-10.35 6.39a5.17 5.17 0 0 0-.88-.42 93.2 93.2 0 0 0 6.66-3.44c.61-.36 1.2-.72 1.71-1.06a9.05 9.05 0 0 0 2.25-1.9c1.36-1.92 2.9-6.36 3.22-9.53-1.13-.44-4.15.2-5.93.75-1.16.19-2.21.28-3.17.28a12.1 12.1 0 0 1-4.3-.73l-.03.07-.22-.16a8.01 8.01 0 0 1-4.66-4.72c-.62 3.67-1.14 7.68-1.52 11.66l-.72.6-.09.09c.94-10.27 2.83-20.93 4.9-25.56a55 55 0 0 1 6.75-11.4l.78-.94c.16.23.3.46.41.69l-.6.73a54.18 54.18 0 0 0-6.66 11.22c-1.07 2.41-2.1 6.48-2.97 11.28.2-.47.54-.95 1.14-1.33a9.16 9.16 0 0 1 8.33-.78c3.65 1.5 7.04 4.8 8.61 6.72a3.49 3.49 0 0 0-.29-1.36zm4.7-17.9c-.76.34-1.54.69-2.3 1a13.8 13.8 0 0 0-1.68 2.06c.1.27.2.58.28.93.9-1.5 2.14-2.84 3.7-4zm33.65 23.43l.54-1 .13-.26-.23-.2c-.01 0-.46-.38-1.32-1 .13.42.27.83.42 1.25l.19.15-.08.14.35.92zm6.5 9.56l.24.03c-.17.18-.43.42-.72.68.1.25.18.52.24.78 1.4-1.2 1.5-1.47 1.4-1.8-.1-.34-.47-.37-.77-.4l-.27-.03-1.29-.06-.16-.01c.19.25.36.51.5.78l.83.03zM93.22 223.5c-.96-3.27-6.36-14.8-10.39-16.55a22.83 22.83 0 0 1-3.64-1.84c-1.86 1.61-2.6 3.55-2.23 5.77.79 4.51 6.02 9.23 9.5 11.88 1.4.93 2.5 1.67 2.97 2 .13-.11.26-.21.4-.3-.46-.7-2.41-3.7-5.51-8.15a.38.38 0 0 1 .61-.43c3.2 4.57 5.17 7.62 5.56 8.22.37-.17.72-.3.99-.38l.14-.04a38.7 38.7 0 0 0-2.2-4.75c-.47-.8-4.2-6.12-4.23-6.17a.37.37 0 1 1 .61-.43c.16.22 3.78 5.39 4.26 6.22a39.34 39.34 0 0 1 2.3 4.96c.32-.05.6-.05.86-.01zm-9.14 11.79a29.53 29.53 0 0 1-7.85 1.87h-.04a.5.5 0 0 1-.04-1c2.65-.22 5.17-.93 7.22-1.69-.64.09-1.33.14-2.04.14-1.24 0-2.56-.16-3.88-.58a.5.5 0 1 1 .3-.95c3.55 1.14 7.2.17 8.94-.45a6.96 6.96 0 0 1-.71-.2 65.07 65.07 0 0 0-8.97-2.7c-1.9-.46-9.5-.21-12.96 5.52 1.45.88 6.69 3.82 11.65 3.54 5.62-.32 6.23-.79 8.38-3.5zm-2.22-15.46c-2.52-2.45-4.87-5.42-5.55-8.4a6.7 6.7 0 0 1 .09-3.5c-1.07-.03-2.99.14-3.5 1.18-.7 1.49-.55 2.14-.34 2.96.1.37.2.8.22 1.31.05.94-.1 1.6-.25 2.02l.64.07c1.53.15 5.2 2.2 8.7 4.36zm21.65 16.66l.02.01-.06.08c-.05.1-.1.21-.14.33l-.07-.04-.17.24c-.04-.03-4-2.92-6.53-4.93-2.12-1.68-2.27-4-2.37-5.53-.03-.4-.05-.76-.1-1.02-.16-.73-.36-1.12-.68-1.3-.34-.2-.92-.16-1.7.1-1.61.54-3.07 1.38-2.82 3.81.07.63.08 1.17.09 1.63.04 1.48.05 2.09 1.61 3.04.34.2 1.62.53 2.56.76 1 .25 1.62.41 1.88.55 1.6.8 4.96 4.36 6.34 5.86l.53.58-.05.2a33.82 33.82 0 0 0-1.29 7.4c-.07 1.1-.07 2.2-.01 3.3l-.76-.01a28.9 28.9 0 0 1 .3-5.95c0-.05.03-.09.04-.13l.1-.4h-.07c.17-1.1.39-2.19.66-3.24h-.01l.26-.97-.25-.28c-1.05-1.14-4.6-4.93-6.12-5.7-.2-.1-1.02-.3-1.73-.48-1.37-.34-2.36-.6-2.77-.85l-.14-.1a.94.94 0 0 1-.5.13c-1.38.05-3.64 1-4.6 2.2-1.78 2.26-2.75 3.17-5.4 3.64-.62.1-1.36.2-2.21.26a63.96 63.96 0 0 1-2.34.13c-5.9 0-11.66-3.81-11.9-3.98l-.39-.25.22-.4a12.29 12.29 0 0 1 7.03-5.71c.72-.25 1.43-.44 2.12-.57 2.2-.44 4.16-.38 5.16-.14 2.16.52 5.79 1.4 9.1 2.73.19.08.84.24 1.42.39l.81.2.05-.02a3.33 3.33 0 0 1-.36-1.4l-.24.01c-.9 0-2.75-.29-6.48-1.7a.37.37 0 1 1 .27-.7c4.27 1.61 5.9 1.7 6.41 1.65v-.03c0-.29-.02-.62-.04-.96-.73-.06-2.88-.43-8.77-2.47a.37.37 0 1 1 .24-.71c5.72 1.98 7.81 2.36 8.48 2.42a5.33 5.33 0 0 1-.01-.8c-.02-.02-.05-.03-.06-.06-.04-.06-.63-.77-4-1.38a.37.37 0 1 1 .14-.74c2.39.44 3.53.94 4.07 1.31.06-.21.14-.41.23-.6-.1-.08-1.37-1.22-7-2.36a.37.37 0 0 1-.3-.44c.04-.2.24-.34.44-.3 3.1.63 4.94 1.26 6.01 1.75a43.7 43.7 0 0 1-1.63-1.18c-4.75-3.13-11-6.97-12.93-7.16l-.88-.09c-2.7-.28-3.8-.34-4.19.93-.16.57.02 1.5.23 2.6.3 1.53.63 3.34.2 5.02-.2-.23-.42-.45-.63-.67l.03-.15-.65-.5a64.22 64.22 0 0 0-2.04-2c1.11.43 2.13 1.12 2.75 1.59 0-1.08-.21-2.17-.4-3.15-.23-1.19-.42-2.21-.2-2.95.53-1.79 2.1-1.75 4.44-1.52.12-.28.32-.9.27-1.9-.02-.45-.11-.81-.2-1.17-.22-.9-.43-1.73.4-3.46.81-1.69 3.66-1.65 4.45-1.6a7.68 7.68 0 0 1 2.11-2.74c.28-.34.58-.12.72-.03.25.18 1.04.72 3.62 1.85 4.67 2.03 10.55 15.4 10.96 17.67.42.4.6.99.72 1.54.07.3.1.68.12 1.12.1 1.48.24 3.52 2.1 5 1.9 1.51 4.64 3.54 5.86 4.44a52.98 52.98 0 0 0 2.05-5.2.53.53 0 0 0 .35.1c.12 0 .27-.02.43-.06a53.92 53.92 0 0 1-2.2 5.61zm19.14-85.26l-.28-.09-.05.65.76.04.04-.45-.47-.15zm-2.57-26.36c.18.38.35.72.45 1 1.4 3.84 2 8.68 2.16 13.5.15-.04.31-.07.48-.08l.29.02c-.17-4.87-.79-9.76-2.23-13.7-.1-.3-.28-.66-.47-1.06-.42-.87-.94-1.95-1.09-3-.14-.98.13-1.7.48-1.8.41-.14 1.28.43 2.37 2.5 1.4 2.62 2.22 10.05 2.6 17.63.27.18.53.41.77.67-.33-7.77-1.15-15.74-2.7-18.66-1.48-2.77-2.6-3.08-3.28-2.86-.76.25-1.17 1.33-.98 2.64.17 1.15.71 2.29 1.15 3.2zm-33.7 1.62a.59.59 0 0 0-.5.32c-.6 1.14.15 2.4.66 3.04.18.23.35.49.54.81.64 1.13 2.2 3.85 4.03 7.13.18-.21.38-.35.6-.44a633 633 0 0 0-3.98-7.06c-.21-.36-.4-.65-.6-.9-.3-.4-.95-1.35-.63-2.13.6.19 2.5 2.15 3.08 3.03l4.29 6.29.32-.16.36-.17-4.34-6.38c-.38-.57-2.75-3.38-3.8-3.38h-.02zm27.02 49.68c-.42 2-.81 3.9-2.34 5.81-.09-.23-.17-.47-.24-.71l-.92-3.09c-2.16-7.15-6.15-20.42-7.52-27.02a2.2 2.2 0 0 1-.62.64c1.44 6.74 5.17 19.13 7.42 26.6l.92 3.08c.14.47.3.91.48 1.37l.22.55.4-.44c2.02-2.21 2.48-4.46 2.93-6.64.24-1.18.5-2.4 1-3.61 1.23-2.94 2.8-4.77 4.17-6.38 1.6-1.86 2.85-3.34 2.82-5.66l-.2.1-.57.2c-.07 1.87-1.15 3.15-2.62 4.87-1.34 1.58-3.02 3.54-4.29 6.58-.53 1.27-.8 2.53-1.04 3.75zm-11.94-46.63c-.39.14-1.28.47-2.27 11.9a.5.5 0 0 1-.39.46.51.51 0 0 1-.53-.2c-.05.29-.11.56-.18.8.27.15.58.2.9.12.53-.13.9-.57.95-1.11.62-7.29 1.3-10.51 1.71-11.17.84 1.32.38 9.2-.14 14.37.24.12.48.25.7.4.47-4.6 1.26-14.06-.11-15.4-.19-.2-.42-.25-.64-.17zm47.14 119.5l-4.77-2.95-.36-.24-.53.85.37.24 4.77 2.95c1.28.78 3.1 1.88 4.94 1.75a4.52 4.52 0 0 1-1.55-1.15l-.04-.05c-.9-.28-1.84-.8-2.83-1.4zm-1.18 4.68c.63.9 1.07 1.51 1.37 1.75.58.45 1.07.6 1.5.6.49 0 .9-.2 1.32-.4.4-.2.87-.42 1.5-.52l.27-.04c.14-.38.3-.75.5-1.09l-.27.04-.65.1c-.78.13-1.34.4-1.79.61-.74.36-1.01.5-1.77-.1-.2-.15-.78-.98-1.16-1.53a9.4 9.4 0 0 0-.91-1.2c-1.2-1.1-4.94-3.08-5.07-3.15l-.4-.24-.5.87.41.25c.04.02 3.77 1.99 4.88 3 .11.1.49.65.77 1.05zm-74.6 4.62c-.18.04-4.3.91-5.76 1.65-.22.1-.58.4-1.2.9-.52.43-1.3 1.07-1.55 1.17-.88.36-1.11.15-1.73-.4-.37-.32-.83-.73-1.55-1.06l-.6-.28-.24-.11c.1.38.15.78.18 1.18l.24.11c.59.27.97.61 1.31.92.45.4.92.81 1.67.81.3 0 .67-.07 1.1-.24.36-.15.94-.62 1.8-1.32.37-.3.89-.72 1.02-.79 1.34-.67 5.47-1.55 5.54-1.57l.4-.1-.43-.92-.2.05zm-5.93-.53l5.22-1.48-.45-.91-5.03 1.43c-1.12.3-2.17.55-3.11.58l-.05.03c-.67.42-1.27.62-1.82.69 1.74.63 3.8.06 5.24-.34zM47.8 307.32c.21.78.64 1.88 1.06 2.4.06-.04.11-.06.13-.06l.51-.15-1.69-2.34-.01.15zm16.88-13.49l-1.75.3a.49.49 0 0 0-.29.18.47.47 0 0 0-.34-.06l-2.56.45a.49.49 0 0 0-.33.21.46.46 0 0 0-.28-.04l-8.43 1.48c-.08-.35-.17-.69-.28-1.02l7.23-2.61c.1-.04.18-.11.24-.2.04.01.07.04.11.04a.5.5 0 0 0 .17-.03l1.32-.48a.5.5 0 1 0-.34-.94l-1.32.48a.5.5 0 0 0-.23.18.49.49 0 0 0-.29 0l-7.24 2.62-.33-.7 7.22-4.53a.5.5 0 0 0 .22-.38c.06.02.11.04.17.04a.5.5 0 0 0 .26-.07l1.5-.94a.5.5 0 0 0-.53-.85l-1.5.94a.5.5 0 0 0-.22.37.5.5 0 0 0-.43.04l-7.2 4.52c-.18-.28-.37-.55-.58-.82l5.58-4.98a.5.5 0 0 0 .13-.2.49.49 0 0 0 .25-.1l1.1-.86a.5.5 0 1 0-.62-.78l-1.1.86a.48.48 0 0 0-.15.22c-.1.02-.2.05-.27.12L48 291.25l-.46-.47 4.87-6.4c.07-.1.1-.23.1-.35a.5.5 0 0 0 .3-.17l1.57-2.08a.5.5 0 0 0 .1-.33.5.5 0 0 0 .29-.18l1.07-1.4a.5.5 0 0 0-.8-.6l-1.07 1.4c-.07.1-.1.21-.1.33a.5.5 0 0 0-.29.18l-1.57 2.07a.5.5 0 0 0-.1.34.5.5 0 0 0-.3.19l-4.83 6.35c-.28-.22-.57-.43-.88-.62l3.76-7.2c.05-.1.06-.2.04-.31.1-.05.18-.11.24-.21l.64-1.24a.5.5 0 1 0-.88-.46l-.65 1.24a.49.49 0 0 0-.04.3.5.5 0 0 0-.24.22l-3.73 7.16c-.32-.16-.64-.31-.97-.44l2.76-8.52a.48.48 0 0 0 0-.31c.1-.06.19-.13.23-.25l.67-1.64a.5.5 0 0 0-.92-.38l-.67 1.64a.5.5 0 0 0 0 .34.5.5 0 0 0-.26.3l-2.76 8.5c-.33-.1-.67-.18-1.01-.25l1.27-7.81a.49.49 0 0 0-.03-.25c.06-.06.1-.14.13-.23l.27-1.37a.5.5 0 1 0-.97-.2l-.28 1.37c-.02.1 0 .18.02.26a.5.5 0 0 0-.13.26l-1.27 7.83-.65-.04-.22-8.75a.51.51 0 0 0-.16-.35.49.49 0 0 0 .1-.27l-.02-2.6a.48.48 0 0 0-.13-.32.5.5 0 0 0 .13-.33l-.01-1.77a.5.5 0 0 0-1 0v1.78c0 .12.06.23.13.32a.5.5 0 0 0-.12.32l.01 2.6c0 .15.06.27.16.36a.49.49 0 0 0-.1.28l.23 8.75c-.4.02-.79.06-1.17.12l-1.45-8.43a.49.49 0 0 0-.27-.36.5.5 0 0 0 .15-.45l-.28-1.37a.5.5 0 0 0-.98.2l.28 1.37a.5.5 0 0 0 .27.34.5.5 0 0 0-.16.44l1.46 8.48c-.27.07-.54.15-.8.24l-3.3-8.82a.49.49 0 0 0-.2-.24.5.5 0 0 0 .02-.35l-.54-1.68a.5.5 0 0 0-.63-.33.5.5 0 0 0-.32.63l.54 1.69c.04.11.12.2.21.26a.5.5 0 0 0 0 .37l3.28 8.84-.79.4-4.12-7.27a.48.48 0 0 0-.19-.18c0-.09 0-.17-.05-.26l-.67-1.23a.5.5 0 0 0-.87.48l.66 1.23a.5.5 0 0 0 .2.2c-.01.08 0 .17.05.25l4.14 7.31-.67.5-6.13-7.61a.49.49 0 0 0-.27-.17.5.5 0 0 0-.09-.3l-1.57-2.08a.5.5 0 0 0-.3-.18.5.5 0 0 0-.09-.33l-1.07-1.41a.5.5 0 1 0-.8.6l1.07 1.41c.08.1.18.15.3.18-.01.11.01.23.1.33l1.56 2.08c.07.09.17.14.28.17 0 .11.02.23.1.32l6.17 7.66c-.23.21-.44.44-.64.68l-6.64-5.96a.5.5 0 0 0-.2-.1.48.48 0 0 0-.13-.24l-.97-1a.5.5 0 1 0-.72.7l.97 1c.07.07.15.1.24.12.02.1.06.2.14.27l6.69 6c-.16.2-.3.43-.44.65l-8.3-5.02a.48.48 0 0 0-.34-.06.5.5 0 0 0-.2-.27l-1.5-.95a.5.5 0 0 0-.53.85l1.5.94c.08.05.17.08.26.08l.07-.02c.03.12.1.22.22.29l8.34 5.04c-.13.25-.25.51-.35.78l-7.94-3.26a.5.5 0 0 0-.27-.02.5.5 0 0 0-.21-.16l-1.3-.52a.5.5 0 1 0-.37.93l1.3.52a.5.5 0 0 0 .19.03l.07-.02c.05.07.12.13.2.17l8 3.28c-.07.24-.14.48-.19.73l-9.69-2.15a.5.5 0 0 0-.32.05.48.48 0 0 0-.27-.18l-2.54-.58a.48.48 0 0 0-.34.05.5.5 0 0 0-.28-.19l-1.73-.4a.5.5 0 0 0-.6.39.5.5 0 0 0 .38.6l1.72.39h.12a.5.5 0 0 0 .23-.05c.06.09.16.16.28.19l2.54.58h.11a.5.5 0 0 0 .21-.05c.07.09.16.16.27.18l9.75 2.16-.07.77-8.98-.4a.6.6 0 0 0-.23.07.48.48 0 0 0-.25-.11l-1.39-.15a.49.49 0 0 0-.55.45.5.5 0 0 0 .45.55l1.39.14h.05a.5.5 0 0 0 .21-.05c.08.06.17.1.27.1l9.03.4c.01.3.03.59.06.88l-9.6 1.3a.5.5 0 0 0-.3.17.45.45 0 0 0-.33-.08l-1.76.24a.5.5 0 0 0 .14 1l1.75-.25a.5.5 0 0 0 .3-.17.49.49 0 0 0 .34.09l9.63-1.32c.05.22.1.44.17.66l-8.1 2.59a.49.49 0 0 0-.22.15.5.5 0 0 0-.27 0l-1.33.45a.5.5 0 0 0 .32.95l1.33-.44c.1-.03.16-.1.22-.17.04 0 .06.03.1.03.05 0 .1 0 .15-.02l8.12-2.6c.09.24.19.47.3.7l-8.67 4.54a.48.48 0 0 0-.21.24.5.5 0 0 0-.32.04l-2.32 1.19a.49.49 0 0 0-.23.25.48.48 0 0 0-.34.04l-1.57.81a.5.5 0 1 0 .45.89l1.58-.81a.5.5 0 0 0 .23-.27c.04.01.07.03.11.03a.5.5 0 0 0 .23-.05l2.31-1.2a.5.5 0 0 0 .23-.24c.03 0 .05.03.09.03a.5.5 0 0 0 .23-.06l8.66-4.55c.13.22.26.45.41.66l-6.91 5.39a.5.5 0 0 0-.14.19.49.49 0 0 0-.26.07l-1.15.79a.5.5 0 0 0 .56.83l1.15-.79a.48.48 0 0 0 .17-.2c.1-.01.2-.04.28-.1l6.9-5.38.59.64-6.23 7.05a.5.5 0 0 0-.12.31.49.49 0 0 0-.3.16l-1.2 1.3a.5.5 0 1 0 .74.68l1.2-1.31a.5.5 0 0 0 .12-.32.49.49 0 0 0 .31-.16l6.21-7.03c.19.17.4.32.6.47l-4.28 6.96a.48.48 0 0 0-.06.26.5.5 0 0 0-.2.17l-.73 1.2a.5.5 0 1 0 .85.52l.73-1.2a.49.49 0 0 0 .07-.25.5.5 0 0 0 .2-.18l4.24-6.93c.34.2.68.39 1.03.55l-3.76 8.56a.49.49 0 0 0-.02.33.5.5 0 0 0-.22.24l-1.01 2.4a.5.5 0 1 0 .92.38l1-2.4c.05-.1.05-.22.02-.32.1-.05.18-.12.22-.23l3.78-8.58c.24.1.5.17.75.24l-1.9 8.08a.49.49 0 0 0 0 .25.48.48 0 0 0-.14.22l-.38 1.34a.5.5 0 1 0 .96.28l.39-1.35a.48.48 0 0 0 0-.26.49.49 0 0 0 .14-.25l1.9-8.08c.3.05.6.1.9.13l-.35 8.9c0 .12.04.23.12.33a.47.47 0 0 0-.14.3l-.05 1.05.04-.04 1-1.04a.5.5 0 0 0-.1-.25.5.5 0 0 0 .13-.32l.27-7.04a112.65 112.65 0 0 1-.4-2.87 9.87 9.87 0 1 1 8.08-3.52c.09.45.14.89.17 1.3l.17-.2 3.1 2.97 1.1-.32-3.55-3.4c.2-.25.37-.5.54-.76l5.31 3.5 1.26-.37-6.06-3.99c.14-.27.28-.54.4-.82l6.99 2.91c.06.03.12.04.19.04l.04-.01c.05.07.11.14.2.18l1.25.61c.07.04.15.06.22.06a.5.5 0 0 0 .22-.95l-1.26-.62a.5.5 0 0 0-.26-.04.49.49 0 0 0-.22-.2l-7.03-2.92c.08-.26.15-.52.21-.79l8.2 1.48h.09c.08 0 .16-.02.23-.06.07.09.17.16.29.19l1.73.37a.5.5 0 0 0 .6-.38.5.5 0 0 0-.4-.6l-1.72-.37a.5.5 0 0 0-.34.06.5.5 0 0 0-.3-.2l-8.2-1.47c.04-.29.07-.57.09-.87l7.21-.05c.09 0 .17-.03.24-.07a.5.5 0 0 0 .25.08l1.4.04h.01a.5.5 0 0 0 .01-1l-1.4-.04a.5.5 0 0 0-.24.08.48.48 0 0 0-.27-.09l-7.2.05a11 11 0 0 0-.07-.98l8.44-1.47a.5.5 0 0 0 .33-.22.48.48 0 0 0 .28.04l2.56-.45a.5.5 0 0 0 .3-.18.5.5 0 0 0 .25.08h.09l1.74-.31a.5.5 0 0 0 .4-.58.5.5 0 0 0-.57-.4zm129.57-.25l-1.75.3a.5.5 0 0 0-.29.18.46.46 0 0 0-.34-.06l-2.56.44a.5.5 0 0 0-.33.22.47.47 0 0 0-.28-.04l-9.44 1.65c-.09-.28-.19-.55-.3-.81l8.26-3c.1-.03.18-.1.24-.19.04.01.07.04.11.04a.5.5 0 0 0 .17-.03l1.32-.48a.5.5 0 0 0 .3-.64.5.5 0 0 0-.64-.3l-1.32.48c-.1.03-.17.1-.23.18a.48.48 0 0 0-.29 0l-8.37 3.03c-.08-.15-.18-.29-.27-.43l8.3-5.22c.13-.08.2-.22.21-.37.06.02.11.04.17.04a.5.5 0 0 0 .26-.08l1.5-.94a.5.5 0 1 0-.53-.85l-1.5.95a.49.49 0 0 0-.22.37.49.49 0 0 0-.43.04l-8.32 5.23c-.16-.21-.32-.41-.49-.6l6.61-5.9c.07-.06.1-.13.13-.2a.49.49 0 0 0 .25-.1l1.1-.88a.5.5 0 0 0-.63-.78l-1.1.87a.48.48 0 0 0-.14.22c-.1.01-.2.05-.27.12l-6.64 5.92c-.09-.1-.19-.17-.28-.26l5.76-7.57a.5.5 0 0 0 .1-.35.5.5 0 0 0 .3-.17l1.57-2.08a.5.5 0 0 0 .1-.34.48.48 0 0 0 .29-.17l1.07-1.41a.5.5 0 1 0-.8-.6l-1.07 1.4a.5.5 0 0 0-.1.34.5.5 0 0 0-.29.18l-1.57 2.07a.5.5 0 0 0-.1.34.5.5 0 0 0-.3.18l-5.74 7.55c-.22-.16-.44-.32-.67-.46l4.46-8.54a.5.5 0 0 0 .04-.32c.1-.05.18-.11.24-.21l.65-1.24a.5.5 0 1 0-.9-.47l-.64 1.24a.48.48 0 0 0-.04.32.5.5 0 0 0-.24.21l-4.44 8.51-.73-.35 3.23-9.96a.5.5 0 0 0 0-.31c.1-.06.19-.13.23-.25l.67-1.64a.5.5 0 1 0-.92-.38l-.67 1.64a.5.5 0 0 0 0 .34.5.5 0 0 0-.26.3l-3.22 9.92c-.26-.08-.53-.14-.8-.2l1.52-9.28a.48.48 0 0 0-.03-.25c.06-.06.1-.14.13-.23l.28-1.37a.5.5 0 0 0-.4-.6.5.5 0 0 0-.59.4l-.27 1.37c-.02.1 0 .18.02.26a.5.5 0 0 0-.13.26l-1.5 9.26-.38-.05-.26-10.17a.47.47 0 0 0-.16-.34c.05-.08.1-.17.1-.28l-.02-2.6a.5.5 0 0 0-.13-.32.5.5 0 0 0 .13-.33l-.01-1.77a.5.5 0 0 0-1 0v1.78c0 .12.06.23.13.32a.5.5 0 0 0-.12.32l.01 2.6c0 .14.06.27.16.36a.48.48 0 0 0-.1.28l.26 10.1H169c-.3 0-.6.01-.91.04l-1.67-9.7a.48.48 0 0 0-.27-.36.5.5 0 0 0 .15-.45l-.28-1.37a.5.5 0 0 0-.59-.4.5.5 0 0 0-.39.6l.28 1.36a.5.5 0 0 0 .27.35.5.5 0 0 0-.16.44l1.67 9.66-.62.13-3.68-9.9a.49.49 0 0 0-.21-.24c.04-.1.06-.22.02-.34l-.54-1.69a.5.5 0 0 0-.95.3l.54 1.7c.03.11.12.2.21.26a.5.5 0 0 0 0 .37l3.65 9.82c-.23.07-.47.15-.69.25l-4.6-8.1a.5.5 0 0 0-.18-.18c0-.09 0-.18-.05-.26l-.67-1.23a.5.5 0 0 0-.87.48l.66 1.23c.05.08.11.15.2.2 0 .08 0 .17.05.25l4.56 8.04c-.21.1-.41.23-.61.36l-6.61-8.2a.5.5 0 0 0-.27-.17c0-.1-.02-.22-.09-.3l-1.57-2.08a.5.5 0 0 0-.3-.18.5.5 0 0 0-.09-.33l-1.07-1.41a.5.5 0 0 0-.8.6l1.07 1.41c.08.1.18.15.3.18-.01.11.01.23.1.33l1.56 2.08c.07.09.17.14.28.16 0 .12.02.24.1.33l6.56 8.14c-.23.17-.45.35-.66.53l-7.01-6.29a.5.5 0 0 0-.2-.1.49.49 0 0 0-.13-.24l-.97-1a.5.5 0 0 0-.72.69l.97 1c.07.07.15.1.24.13.02.1.06.2.14.26l6.96 6.25-.49.54-8.53-5.15a.49.49 0 0 0-.33-.06.49.49 0 0 0-.2-.28l-1.5-.94a.5.5 0 0 0-.53.85l1.5.94a.5.5 0 0 0 .26.08l.07-.02c.03.12.1.22.22.29l8.44 5.1c-.16.23-.3.48-.45.72l-7.94-3.26a.48.48 0 0 0-.27-.02.49.49 0 0 0-.21-.16l-1.3-.52a.5.5 0 0 0-.65.28.5.5 0 0 0 .28.65l1.3.52a.5.5 0 0 0 .19.03l.07-.02c.05.07.12.13.2.17l7.88 3.23c-.11.24-.21.48-.3.73l-9.46-2.1a.5.5 0 0 0-.32.05.48.48 0 0 0-.27-.18l-2.54-.58a.48.48 0 0 0-.34.05.49.49 0 0 0-.28-.19l-1.73-.4a.5.5 0 0 0-.6.39.5.5 0 0 0 .38.6l1.73.39h.1a.5.5 0 0 0 .24-.06c.06.1.16.17.28.2l2.54.57.11.02c.07 0 .14-.02.21-.06a.5.5 0 0 0 .27.18l9.37 2.08-.19.83-8.48-.37a.49.49 0 0 0-.24.05.48.48 0 0 0-.24-.1l-1.39-.15a.5.5 0 0 0-.55.45.5.5 0 0 0 .45.55l1.39.14h.05c.08 0 .15-.02.21-.05.08.06.17.1.27.1l8.4.37c-.03.32-.05.64-.05.96v.05l-8.85 1.2a.5.5 0 0 0-.3.17.45.45 0 0 0-.34-.08l-1.76.24a.5.5 0 0 0 .14.99l1.75-.24a.48.48 0 0 0 .3-.17.49.49 0 0 0 .34.08l8.77-1.2c.03.29.07.56.12.84l-7.2 2.3a.48.48 0 0 0-.21.15.48.48 0 0 0-.27 0l-1.33.45a.5.5 0 1 0 .32.95l1.33-.44c.1-.03.16-.1.22-.17.04 0 .06.03.1.03.05 0 .1 0 .15-.02l7.11-2.27c.09.3.18.6.3.9l-6.78 3.55 1.38.4 5.78-3.03c.15.3.3.6.48.89l-3.7 2.88 1.18.35 3.08-2.4c.22.3.45.6.7.88l-1.84 2.08 1.07.3 1.48-1.67c.25.23.5.44.78.65l-.88 1.43.17.05.16.06c.26-.31.52-.85.73-1.4.13-.35.25-.7.33-1a9.84 9.84 0 0 1 6.05-17.64 9.87 9.87 0 0 1 2.08 19.5 59.95 59.95 0 0 1-.29 1.99l.69 5.4c.01.1.06.18.11.25a.49.49 0 0 0-.04.26l.21 1.39a.5.5 0 1 0 .99-.15l-.2-1.38a.48.48 0 0 0-.12-.24.5.5 0 0 0 .04-.25l-.8-6.39c.37-.1.74-.21 1.1-.34l1.58 5.1c.03.09.1.16.16.22a.49.49 0 0 0 0 .27l.66 2.15c.03.1.1.18.17.24a.5.5 0 0 0 0 .3l.45 1.45a.5.5 0 1 0 .95-.3l-.45-1.45a.5.5 0 0 0-.17-.24c.03-.1.04-.2 0-.3l-.66-2.14a.48.48 0 0 0-.16-.23.48.48 0 0 0 0-.27l-1.6-5.2c.37-.18.72-.37 1.07-.59l3.06 6.23c.04.08.1.14.16.19 0 .08 0 .17.04.26l.56 1.28a.5.5 0 0 0 .92-.41l-.57-1.28a.48.48 0 0 0-.18-.2c.01-.1 0-.19-.04-.28l-3.12-6.37c.35-.27.69-.55 1-.86l4.6 6.36c.07.1.18.16.3.18 0 .12.02.24.1.34l1.08 1.4a.5.5 0 0 0 .7.09.5.5 0 0 0 .1-.7l-1.1-1.4a.49.49 0 0 0-.29-.18c0-.1-.02-.22-.09-.32l-4.7-6.52.54-.7 4.97 4.77c.07.07.16.1.26.12.02.08.06.16.13.23l1.05.92a.5.5 0 0 0 .7-.04.5.5 0 0 0-.04-.7l-1.04-.93a.5.5 0 0 0-.25-.11.48.48 0 0 0-.12-.22l-5.11-4.9c.16-.28.31-.56.45-.86l7.06 4.64a.5.5 0 0 0 .27.09l.05-.01c.03.1.1.2.2.26l2.18 1.4a.5.5 0 0 0 .27.09l.06-.02c.04.11.1.22.2.28l1.5.96a.5.5 0 0 0 .54-.84l-1.49-.96a.49.49 0 0 0-.34-.07.49.49 0 0 0-.2-.27l-2.19-1.41a.48.48 0 0 0-.31-.07.5.5 0 0 0-.2-.26l-7.22-4.75c.1-.28.2-.57.27-.87l7.17 3a.5.5 0 0 0 .19.03l.04-.01a.5.5 0 0 0 .2.18l1.25.61a.5.5 0 0 0 .67-.23.5.5 0 0 0-.23-.66l-1.26-.62a.5.5 0 0 0-.26-.04.5.5 0 0 0-.22-.2l-7.33-3.05c.04-.24.08-.48.1-.73l8.6 1.55h.1a.5.5 0 0 0 .23-.06c.07.09.17.16.29.19l1.73.37.1.01a.5.5 0 0 0 .1-.98l-1.72-.38a.49.49 0 0 0-.34.05.5.5 0 0 0-.3-.19l-8.74-1.57v-.04l-.03-.72 7.87-.06c.09 0 .17-.03.24-.07a.5.5 0 0 0 .25.08l1.4.04h.01a.5.5 0 0 0 .02-1l-1.4-.04h-.02a.5.5 0 0 0-.24.08.48.48 0 0 0-.26-.1l-7.99.07c-.04-.28-.1-.56-.16-.84l9.32-1.62a.5.5 0 0 0 .33-.22.48.48 0 0 0 .28.04l2.56-.45a.5.5 0 0 0 .3-.18.5.5 0 0 0 .25.08l.09-.01 1.74-.3a.5.5 0 0 0 .4-.58.5.5 0 0 0-.57-.4zm-47.38 16.2l-.7.35a.5.5 0 1 0 .46.89l.61-.32-.12-.22a3.77 3.77 0 0 1-.25-.7zM53.53 6.95c.23-.12.8-.8 1.28-.85-.52-.17-1.05-.9-1.27-1.04-.73-.48-1.1.8-1.43.86.32.1.68 1.43 1.42 1.03zm-5.64-.01c.3-.17 1.07-1.06 1.7-1.13-.7-.24-1.39-1.2-1.68-1.37-.97-.64-1.47 1.07-1.9 1.14.44.12.9 1.87 1.88 1.36zm-6.74.6c.42-.25 1.48-1.56 2.37-1.7-1-.28-2-1.62-2.43-1.86-1.38-.85-2.04 1.6-2.64 1.72.62.15 1.33 2.62 2.7 1.83zm115.28-1.23c-.33-.05-.7-1.34-1.44-.86-.22.15-.74.87-1.27 1.04.47.05 1.06.73 1.28.85.74.4 1.1-.93 1.43-1.03zm6.09-.34c-.43-.07-.93-1.78-1.9-1.14-.29.18-.97 1.13-1.67 1.37.63.07 1.4.96 1.7 1.13.97.52 1.43-1.24 1.87-1.36zm7.57.12c-.61-.12-1.27-2.57-2.65-1.72-.43.24-1.43 1.58-2.43 1.86.9.14 1.95 1.45 2.37 1.7 1.37.78 2.09-1.7 2.7-1.84zM146.07 2l.06.36v8.1c0 .45.36.82.8.82h2.6c.25 0 .46-.2.46-.46v-.4c0-.25-.2-.45-.46-.45h-1.72a.42.42 0 0 1-.41-.42V6.5c.02-.11.1-.2.2-.24l1.45-.42a.35.35 0 0 0 .25-.33v-.6c0-.23-.22-.4-.45-.33l-1.09.32a.3.3 0 0 1-.36-.21V2.9c0-.23.18-.42.41-.42h1.59c.25 0 .45-.2.45-.45v-.4c0-.25-.2-.46-.45-.46h-3.22a.25.25 0 0 0-.25.32l.14.5zm-6.7.7c.16-.06.32-.16.48-.19.31-.06.57.28.57.56v7.7c0 .28.22.5.5.5h.27a.5.5 0 0 0 .51-.5V3.04c0-.18.1-.35.25-.45.17-.12.37-.1.55-.03l.32.14c.1.05.2-.07.2-.24v-.77-.01a.5.5 0 0 0-.5-.5h-2.85a.5.5 0 0 0-.5.5v.78c0 .17.1.29.2.24zm-6.34 4.7l1.49-.43-.55-4.35a.16.16 0 0 0-.16-.15h-.01a.17.17 0 0 0-.17.16l-.6 4.77zm-.69-4.57a2.1 2.1 0 0 0-.06-.84l-.14-.5a.25.25 0 0 1 .24-.32h2.35c.19 0 .34.14.37.32l1.17 9.32a.42.42 0 0 1-.41.47h-.43a.42.42 0 0 1-.41-.37l-.3-2.36v-.03l-.04-.28-1.83.53-.08.66-.18 1.48c-.03.2-.2.37-.42.37h-.42a.42.42 0 0 1-.42-.47l1.01-7.98zm-7 6.72c0 .23.2.42.43.42h.23c.33 0 .6-.25.83-.76.22-.51.33-1.5.34-2.98-.02-1.69-.13-2.74-.34-3.14-.22-.41-.5-.6-.83-.6h-.23a.42.42 0 0 0-.42.42v6.64zm-1.46-8.05a.25.25 0 0 1 .24-.32h2.04c.79 0 1.36.38 1.73 1.14.36.76.55 2.06.55 3.9 0 1.67-.19 2.92-.55 3.78-.37.85-.94 1.28-1.73 1.28h-1.37a.7.7 0 0 1-.7-.71V2.4c-.02-.13-.03-.26-.07-.4l-.14-.5zm-11.9 4.34c0 .2.22.3.36.16.53-.5 1.05-1.2 1.09-1.82.04-.77-.5-1.43-1.22-1.64a.18.18 0 0 0-.23.17v3.13zM110.5 1.5a.26.26 0 0 1 .25-.33s.87-.02 1.27.02a3.05 3.05 0 0 1 2.18 1.31c.34.5.52 1.08.51 1.68 0 .66-.3 1.33-.75 1.96a.97.97 0 0 0-.17.77l.8 3.82a.45.45 0 0 1-.44.55h-.36a.45.45 0 0 1-.45-.37l-.66-3.15a.15.15 0 0 0-.25-.1l-.17.14a.7.7 0 0 0-.28.56v2.48c0 .24-.2.44-.44.44h-.4a.43.43 0 0 1-.43-.44V2.45c0-.15-.02-.3-.07-.45l-.14-.5zm-7.53.48l.06.36v6.33c0 .51.06.93.18 1.24.34.91 1.01 1.37 2.02 1.37.84 0 1.45-.35 1.83-1.06.21-.4.32-.91.32-1.55V2.46c.01-.17.03-.32.08-.48l.14-.5a.25.25 0 0 0-.25-.31h-1.21a.25.25 0 0 0-.25.32l.14.49c.05.14.06.28.07.43v6.42c0 .77-.3 1.16-.87 1.16-.63 0-.94-.39-.94-1.16V2.37l.06-.4.14-.48a.25.25 0 0 0-.24-.32h-1.18c-.17 0-.29.16-.24.32l.14.49zm-6.57 4.2c.04 1.8.16 2.88.35 3.23.2.36.44.54.74.54.31 0 .56-.18.75-.54.2-.35.3-1.43.35-3.23-.04-1.8-.16-2.87-.35-3.23-.19-.36-.44-.53-.75-.53-.3 0-.55.17-.74.53-.19.36-.3 1.43-.35 3.23zm-.75 3.99c-.36-.86-.54-2.17-.54-3.94 0-1.84.18-3.17.54-4A1.9 1.9 0 0 1 97.52 1c.88 0 1.5.41 1.87 1.24.36.82.54 2.15.54 3.99 0 1.77-.18 3.08-.54 3.94-.36.86-.99 1.29-1.87 1.29-.88 0-1.5-.43-1.87-1.3zM82.05 2c.03.12.04.24.05.36v8.1c0 .45.36.82.8.82h2.6c.25 0 .46-.2.46-.46v-.4c0-.25-.2-.45-.46-.45H83.8a.42.42 0 0 1-.42-.42V6.5c.02-.11.1-.2.2-.24l1.45-.42a.35.35 0 0 0 .25-.33v-.6c0-.23-.22-.4-.44-.33l-1.1.32a.3.3 0 0 1-.36-.21V2.9c0-.23.18-.42.42-.42h1.58c.25 0 .45-.2.45-.45v-.4c0-.25-.2-.46-.45-.46h-3.22a.25.25 0 0 0-.25.32l.14.5zM74.2 2c.07.15.11.3.14.45l1.5 8.35c.05.28.29.48.56.48h.14c.28 0 .52-.2.57-.48l1.52-8.47c.03-.11.06-.22.11-.33l.23-.5c.07-.16-.02-.32-.19-.32h-.83a.51.51 0 0 0-.5.42l-.82 4.6c-.03.14-.24.14-.27 0l-.86-4.6a.51.51 0 0 0-.5-.42h-.84c-.17 0-.27.16-.2.32l.24.5zm-5.82 5.4l1.49-.43-.55-4.35a.16.16 0 0 0-.16-.15h-.01a.16.16 0 0 0-.16.16l-.61 4.77zm-.69-4.57c.04-.28.02-.56-.06-.84l-.14-.5a.25.25 0 0 1 .25-.32h2.35c.18 0 .34.14.36.32l1.17 9.32a.42.42 0 0 1-.4.47h-.44a.42.42 0 0 1-.4-.37l-.3-2.36-.02-.03-.03-.28-1.83.53-.08.66-.18 1.48c-.03.2-.2.37-.41.37h-.43a.42.42 0 0 1-.41-.47l1-7.98zm-6.33 8.57a1.83 1.83 0 0 0 1.48-.39c.55-.43.92-1.22.95-2 .03-.8-.16-1.61-.53-2.3-.32-.6-.7-1.13-1.07-1.66-.22-.31-.43-.6-.62-.91-.76-1.25-.45-1.61-.2-1.77.21-.13.41-.15.61-.06.2.08.37.26.48.48.11.2.34.3.57.26l.2-.03a.52.52 0 0 0 .38-.74c-.24-.5-.64-.89-1.12-1.1a1.79 1.79 0 0 0-1.8.16c-.89.64-1.2 1.87-.18 3.45.2.33.43.65.65.96.36.51.7 1 .98 1.52.28.51.41 1.11.4 1.7-.02.42-.22.88-.5 1.1a.57.57 0 0 1-.47.12 1 1 0 0 1-.61-.4c-.44-.59-.42-1.4-.2-2.05a.51.51 0 0 0-.26-.62l-.17-.1a.53.53 0 0 0-.75.29c-.35.99-.35 2.24.37 3.2.35.48.87.8 1.4.9zm109.3 89.5l1.23-.35-.45-3.57a.13.13 0 0 0-.13-.12h-.01a.13.13 0 0 0-.14.13l-.5 3.91zm-.52-5.1h1.93a.3.3 0 0 1 .3.26l.96 7.64c.02.2-.14.38-.34.38h-.35a.34.34 0 0 1-.34-.3l-.24-1.93-.01-.03-.03-.23-1.5.44-.07.54h.01l-.15 1.21a.34.34 0 0 1-.34.3h-.35a.34.34 0 0 1-.34-.38l.82-6.54c.03-.23.02-.47-.05-.7l-.11-.4a.2.2 0 0 1 .2-.27zm-4.1 8.28h.32c.2 0 .36-.16.36-.36v-6.84c0-.14.02-.27.06-.4l.11-.41a.2.2 0 0 0-.2-.27h-.98a.2.2 0 0 0-.2.27l.12.4c.03.12.04.23.05.34v6.9c0 .2.16.37.36.37zm-4.14-7.9v3.67c0 .08-.12.1-.15.02l-1.25-3.81a.38.38 0 0 0-.36-.26h-.73a.2.2 0 0 0-.2.27l.11.4c.04.13.05.25.06.38v6.86c0 .2.16.37.37.37h.29c.2 0 .37-.17.37-.37v-4.06c0-.09.12-.1.15-.02l1.34 4.19c.05.15.2.26.36.26h.31c.21 0 .38-.17.38-.37v-6.83c0-.14.02-.27.06-.4l.11-.41a.2.2 0 0 0-.2-.27h-.65c-.2 0-.37.17-.37.38zm-7.32 3.45c0 .15.19.23.3.13.43-.41.86-.98.89-1.5.04-.63-.4-1.17-1-1.35a.15.15 0 0 0-.19.15v2.57zm-1.1-3.16l-.1-.41a.2.2 0 0 1 .2-.26s.7-.02 1.04 0a2.49 2.49 0 0 1 2.2 2.45c0 .55-.24 1.1-.62 1.62a.8.8 0 0 0-.13.63l.66 3.13a.37.37 0 0 1-.37.45h-.3a.37.37 0 0 1-.36-.3l-.54-2.59a.13.13 0 0 0-.2-.07l-.15.1a.58.58 0 0 0-.23.47v2.03c0 .2-.16.36-.35.36h-.33a.35.35 0 0 1-.36-.36v-6.88c0-.12-.02-.24-.05-.37zm-4.48.34c-.25 0-.45.15-.6.44-.17.3-.26 1.18-.3 2.65.04 1.48.13 2.36.3 2.65.15.3.35.44.6.44s.46-.14.61-.44c.16-.29.26-1.17.29-2.65-.03-1.47-.13-2.35-.29-2.65-.15-.29-.36-.44-.61-.44zm.02-1.16c.73 0 1.24.34 1.53 1.02.3.67.45 1.76.45 3.27 0 1.45-.15 2.53-.45 3.23-.3.7-.8 1.06-1.53 1.06-.72 0-1.23-.35-1.53-1.06-.3-.7-.45-1.78-.45-3.23 0-1.5.15-2.6.45-3.27.3-.68.8-1.02 1.53-1.02zm-7.68.42l.11.4c.03.12.05.23.05.34v6.92c0 .2.16.35.36.35h.33c.2 0 .35-.16.35-.35v-3.52c0-.1.07-.2.18-.23l1.19-.35c.12-.03.2-.15.2-.27v-.49a.29.29 0 0 0-.36-.27l-.9.26a.24.24 0 0 1-.3-.23v-1.37c0-.21.16-.38.37-.38h1.38c.2 0 .37-.17.37-.37v-.35c0-.2-.17-.36-.37-.36h-2.76a.2.2 0 0 0-.2.27zm-3.6.74v6.9c0 .2.16.37.36.37h.3c.2 0 .37-.16.37-.36v-6.84c0-.14.02-.27.06-.4l.11-.41a.2.2 0 0 0-.2-.27h-.97a.2.2 0 0 0-.2.27l.11.4c.03.12.05.23.05.34zm-5.25 7.27h2.3a.4.4 0 0 0 .4-.4v-.9c0-.41-.5-.1-.67-.01-.25.13-.52.2-.8.23h-.26a.4.4 0 0 1-.4-.4v-5.77c0-.12.02-.24.05-.36l.12-.4a.2.2 0 0 0-.2-.27h-.98a.2.2 0 0 0-.2.26l.12.41c.03.13.04.24.05.36v6.77c0 .27.21.48.47.48zm-4.46-3.53l-.45-3.57a.13.13 0 0 0-.13-.12h-.01a.13.13 0 0 0-.14.13l-.5 3.91 1.23-.35zm.47-4.5l.97 7.65c.02.2-.14.38-.34.38h-.35a.34.34 0 0 1-.34-.3l-.24-1.93-.01-.03-.03-.23-1.5.44-.07.54h.01l-.15 1.21a.34.34 0 0 1-.34.3h-.35a.34.34 0 0 1-.34-.38l.82-6.54c.03-.23.02-.47-.05-.7l-.11-.4a.2.2 0 0 1 .2-.27h1.93a.3.3 0 0 1 .3.27zm-7.1 8.17c.44 0 .82-.17 1.16-.51.26-.27.42-.64.48-1.1a.33.33 0 0 0-.34-.37h-.38c-.15 0-.29.1-.33.25-.08.37-.27.56-.57.56-.24.02-.44-.11-.6-.38-.15-.28-.26-1.18-.3-2.71.04-1.64.14-2.6.28-2.87.15-.27.33-.4.55-.4.37.01.58.2.66.58.03.15.17.26.32.26h.37c.2 0 .36-.18.33-.38a1.65 1.65 0 0 0-.5-1 1.65 1.65 0 0 0-1.14-.5c-.63 0-1.1.3-1.4.89-.32.58-.49 1.72-.5 3.4.01 1.58.16 2.69.44 3.32.28.64.77.96 1.46.96zm-10.3.67c.06.06.15.03.24-.02.2-.13.34-.28.43-.46.14-.26.22-.5.21-.86 0-.34-.28-.6-.61-.6-.17 0-.31.05-.43.17a.58.58 0 0 0-.18.43c0 .25.14.43.36.54l.18.07c.09.04.13.15.1.24a.77.77 0 0 1-.21.26c-.06.05-.15.15-.08.23zm-4.16-8.08c-.25 0-.45.15-.6.44-.16.3-.26 1.18-.3 2.65.04 1.48.14 2.36.3 2.65.15.3.35.44.6.44s.46-.14.62-.44c.15-.29.25-1.17.28-2.65-.03-1.47-.13-2.35-.28-2.65-.16-.29-.37-.44-.62-.44zm.02-1.16c.73 0 1.24.34 1.53 1.02.3.67.45 1.76.45 3.27a8.8 8.8 0 0 1-.45 3.23c-.3.7-.8 1.06-1.53 1.06-.72 0-1.23-.35-1.53-1.06a8.8 8.8 0 0 1-.44-3.23c0-1.5.14-2.6.44-3.27.3-.68.8-1.02 1.53-1.02zm-7.4.89c-.32.58-.49 1.72-.5 3.4.01 1.58.16 2.69.44 3.32.28.64.77.96 1.46.96.45 0 .83-.17 1.17-.51.26-.27.42-.64.48-1.1a.34.34 0 0 0-.34-.37h-.38c-.15 0-.3.1-.33.25-.08.37-.27.56-.57.56-.24.02-.44-.11-.6-.38-.15-.28-.26-1.18-.3-2.71.04-1.64.14-2.6.28-2.87.15-.27.33-.4.55-.4.36.01.58.2.66.58.03.15.17.26.32.26h.37c.2 0 .36-.18.33-.38a1.65 1.65 0 0 0-.5-1 1.65 1.65 0 0 0-1.14-.5c-.63 0-1.1.3-1.4.89zm-4.87 7.64a1.49 1.49 0 0 0 1.22-.31c.45-.36.75-1 .77-1.65a3.79 3.79 0 0 0-.43-1.9c-.26-.47-.57-.91-.87-1.34-.18-.26-.36-.5-.52-.75-.62-1.02-.36-1.32-.16-1.45.17-.1.34-.13.5-.05.16.06.3.2.4.39.08.16.27.25.46.22l.16-.03a.43.43 0 0 0 .32-.6c-.2-.41-.53-.74-.92-.9-.48-.21-1.03-.2-1.47.12-.73.53-.99 1.53-.16 2.83.17.27.36.53.54.79.3.42.58.82.8 1.25.23.42.34.9.33 1.39-.02.35-.18.72-.4.9a.47.47 0 0 1-.4.1.82.82 0 0 1-.5-.33c-.36-.48-.34-1.15-.16-1.68a.42.42 0 0 0-.21-.51l-.15-.08a.43.43 0 0 0-.6.23c-.3.82-.3 1.85.3 2.63.29.4.7.66 1.15.73zm-5.24-7.37v6.9c0 .2.16.37.36.37h.32c.2 0 .36-.16.36-.36v-6.84c0-.14.02-.27.06-.4l.11-.41a.2.2 0 0 0-.2-.27h-.98a.2.2 0 0 0-.2.27l.12.4c.03.12.04.23.05.34zm-5.6-.27c-.32.58-.49 1.72-.5 3.4.01 1.58.16 2.69.44 3.32.28.64.77.96 1.46.96.44 0 .83-.17 1.17-.51.26-.27.42-.64.48-1.1a.34.34 0 0 0-.34-.37h-.38c-.15 0-.3.1-.33.25-.08.37-.27.56-.57.56-.24.02-.44-.11-.6-.38-.15-.28-.26-1.18-.3-2.71.04-1.64.14-2.6.28-2.87.15-.27.33-.4.55-.4.36.01.58.2.65.58.04.15.18.26.33.26h.37c.2 0 .36-.18.33-.38a1.65 1.65 0 0 0-.5-1 1.65 1.65 0 0 0-1.14-.5c-.63 0-1.1.3-1.4.89zm-5.87-.74h-.73a.2.2 0 0 0-.2.27l.11.4c.04.13.05.25.06.38v6.86c0 .2.17.37.37.37h.3c.2 0 .37-.17.37-.37v-4.06c0-.09.11-.1.14-.02l1.34 4.19c.05.15.2.26.36.26h.31c.21 0 .38-.17.38-.37v-6.83c0-.14.02-.27.06-.4l.11-.41a.2.2 0 0 0-.2-.27h-.65c-.2 0-.37.17-.37.38v3.67c0 .08-.12.1-.15.02l-1.25-3.81a.38.38 0 0 0-.36-.26zm-5.98 5.1l1.22-.35-.44-3.57a.13.13 0 0 0-.13-.12h-.02a.13.13 0 0 0-.13.13l-.5 3.91zm-.52-5.1h1.92a.3.3 0 0 1 .3.26l.96 7.64c.03.2-.13.38-.33.38h-.35a.34.34 0 0 1-.34-.3l-.25-1.93v-.03l-.03-.23-1.5.44-.07.54-.15 1.21a.34.34 0 0 1-.34.3h-.35a.34.34 0 0 1-.33-.38l.82-6.54c.03-.23.01-.47-.05-.7l-.11-.4a.2.2 0 0 1 .2-.27zM66 99.62c0 .15.2.23.3.13.44-.41.86-.98.9-1.5.03-.63-.41-1.17-1-1.35a.15.15 0 0 0-.2.15v2.57zm-1.09-3.16l-.11-.41a.2.2 0 0 1 .2-.26s.71-.02 1.04 0a2.5 2.5 0 0 1 1.79 1.08c.27.4.42.9.42 1.38 0 .54-.25 1.1-.62 1.6a.8.8 0 0 0-.14.64l.66 3.13a.37.37 0 0 1-.36.45h-.3a.37.37 0 0 1-.36-.3l-.55-2.59a.13.13 0 0 0-.2-.07l-.14.1a.57.57 0 0 0-.24.47v2.03c0 .2-.15.36-.35.36h-.33a.35.35 0 0 1-.35-.36v-6.88c0-.12-.02-.24-.06-.37zm-5.66.34v6.92c0 .2.16.35.35.35h.33c.2 0 .36-.16.36-.35v-3.52c0-.1.07-.2.17-.23l1.2-.35c.11-.03.2-.15.2-.27v-.49a.29.29 0 0 0-.37-.27l-.9.26a.24.24 0 0 1-.3-.23v-1.37c0-.21.17-.38.38-.38h1.38c.2 0 .36-.17.36-.37v-.35c0-.2-.16-.36-.36-.36h-2.77a.2.2 0 0 0-.2.27l.12.4c.03.12.04.23.05.34zm-10.67-1h-.74a.2.2 0 0 0-.2.26l.11.4c.04.13.06.25.06.38v6.86c0 .2.17.37.37.37h.3c.2 0 .37-.17.37-.37v-4.06c0-.09.12-.1.14-.02l1.34 4.19c.05.15.2.26.36.26h.32c.2 0 .37-.17.37-.37v-6.83c0-.14.02-.27.06-.4l.12-.41a.2.2 0 0 0-.2-.27h-.65c-.21 0-.38.17-.38.38v3.67c0 .08-.12.1-.14.02l-1.26-3.81a.38.38 0 0 0-.35-.26zm-5.99 5.1l1.23-.36-.45-3.57a.13.13 0 0 0-.13-.12h-.01a.13.13 0 0 0-.14.13l-.5 3.91zm-.52-5.12H44a.3.3 0 0 1 .3.27l.96 7.64c.02.2-.14.38-.34.38h-.35a.34.34 0 0 1-.34-.3l-.25-1.93v-.03l-.03-.23-1.5.44-.07.54-.15 1.21a.34.34 0 0 1-.33.3h-.35a.34.34 0 0 1-.34-.38l.82-6.54c.03-.23.02-.47-.05-.7l-.11-.4a.2.2 0 0 1 .2-.27zm-6.39 7.66a2.84 2.84 0 0 1-.3-2.63.44.44 0 0 1 .61-.23l.15.08c.19.1.27.31.2.5-.17.54-.19 1.2.17 1.69.14.18.32.3.5.33.15.02.27 0 .4-.1.22-.18.38-.55.4-.9.01-.48-.1-.97-.33-1.4-.23-.42-.5-.82-.8-1.24-.18-.26-.37-.52-.54-.79-.83-1.3-.58-2.3.16-2.83.44-.32.98-.33 1.46-.13.4.17.73.5.93.9a.43.43 0 0 1-.32.6l-.17.04a.43.43 0 0 1-.45-.22.85.85 0 0 0-.4-.4c-.16-.07-.33-.05-.5.06-.2.13-.46.43.16 1.45l.51.75c.3.43.62.87.87 1.35.3.57.46 1.24.44 1.9a2.28 2.28 0 0 1-.78 1.64 1.5 1.5 0 0 1-1.21.31 1.85 1.85 0 0 1-1.16-.73z"/><path fill="#A01C2D" d="M86.68 384.05a4.88 4.88 0 0 1-9.73-.7 5.5 5.5 0 1 0 9.71-.28c.04.32.04.65.02.98zm8.75-137.76c-1.88.93-1.98 1.16-2.43 2.28-.12.29-.33.57-.57.82 1.18-.06 2.45-.3 3.21-.45.63-.12 2.92-1.18 3.64-3.23a7.12 7.12 0 0 0-3.85.59zm-.45-8.81l-.54-.38c-.36-.25-.6-.41-.97-.84.13 1.5.4 4.15.67 5.15a5.28 5.28 0 0 0 5.24 3.28c.24-.67.83-2.9-.96-4.48a31.09 31.09 0 0 0-3.44-2.73zm.12 8.14c.16-.08.32-.14.48-.2a11.43 11.43 0 0 0-1.97.44.25.25 0 0 1-.09-.49c.06-.01 1.22-.4 2.81-.54a4.8 4.8 0 0 1-.27-.15 7.66 7.66 0 0 0-3.75-.05.25.25 0 0 1-.15-.48 7.47 7.47 0 0 1 2.93-.16 6.3 6.3 0 0 1-1.42-1.78c-2.01-.46-2.36-.31-3.68.54-.41.26-.98.42-1.54.48l.29.2c1.02.93 2.26 1.72 3 2.19.33.2 1.27.5 2.42.5l.94-.5zm13.03-33.35h-.03c-.3 0-.73.54-.86 1.3-.12.8.13 1.47.44 1.52.14.02.3-.08.46-.27.2-.25.36-.63.43-1.03.06-.41.03-.81-.08-1.12-.09-.23-.22-.38-.36-.4zm10.51.25a7.56 7.56 0 0 0-4.7.04l-3.62 1.18c.75.28 1.61.78 2.47 1.66a.37.37 0 1 1-.53.53 5.6 5.6 0 0 0-3.04-1.72l-.03.12a5.6 5.6 0 0 1 2.32 2.4c.1.18.03.4-.15.5a.38.38 0 0 1-.5-.15 4.99 4.99 0 0 0-1.75-1.93 7.5 7.5 0 0 0 3.77 5.6c.45.26 1.07.53 2.57.82 1.76.33 3-.67 3.7-1.56.32-.98.66-1.88 1.03-2.7l.02-.09c.2-.6.44-1.4.17-3.3-.1-.71-1-1.15-1.73-1.4zm-8.74 6.52a8.19 8.19 0 0 1-1.02-1.78l-.11-.33c-.23.8-.67 1.74-1.52 2.7a.37.37 0 0 1-.53.03.37.37 0 0 1-.03-.53 5.71 5.71 0 0 0 1.53-3.42l-.19.07a7.52 7.52 0 0 1-2.65 4.56.37.37 0 0 1-.53-.03.38.38 0 0 1 .03-.53 6.85 6.85 0 0 0 2.4-4.04l-.16-.1c-1.71 1.72-5.55 5.83-5.84 7.38-.44 2.43 0 3.76 1.45 4.33a6.3 6.3 0 0 1 2.7 2.84 7.64 7.64 0 0 0 3.89-2.9c1.53-2.3 2.24-5.46 1.48-6.65-.27-.41-.59-.99-.9-1.6zM97 202.83l-.07.04.08.2.29.78c.22.7.37 1.39.52 2.06.33 1.48.64 2.87 1.67 4.22.38.5 1.1.98 1.93 1.4l4.97 1.66c-.39-.5-1.29-1.34-3.07-1.59a.37.37 0 0 1-.32-.42c.03-.2.22-.36.43-.32a5.4 5.4 0 0 1 3.38 1.66l.03-.06a6.97 6.97 0 0 0-3.53-2.65.38.38 0 0 1 .27-.7 7.81 7.81 0 0 1 3.74 2.73c.28-.24.6-.37.93-.31.41.07.75.39.94.88l.03.12c.88-.46 1.99-1.32 2.91-2.96.1-.18.33-.24.51-.14.18.1.25.33.15.51a7.98 7.98 0 0 1-2.95 3.1h.2l.24-.08v-.03l.46-.12 1.59-.51.22-.1.63-.19.22-.06.31-.1.11-.03c1.14-.36 2.78-1 4.2-2.5 1.04-1.07 1.46-2.31 1.12-3.32-.17-.5-.5-.85-.87-.91-.71-.12-1.27-.67-1.6-1.6-.15-.42-.52-.7-.93-.7-.59-.04-1.38.14-2.86 1.48-3.1 2.81-3.67 3.44-3.9 5.06l-.15.95-1.96-2.89c-.33-.47-.58-.97-.83-1.46l-.1-.2c-.57-1.1-1.96-2.01-3.9-2.57-2.28-.65-4.54-.63-5.05-.33zm8.76 13.13c-.46.17-1 .3-1.7.3-.58 0-1.24-.08-2-.29a.38.38 0 0 1 .2-.72c1.93.53 3.1.16 3.74-.24-.49.14-1.1.24-1.81.24-.9 0-1.97-.16-3.18-.65a.37.37 0 1 1 .28-.7c2.54 1.02 4.35.51 5.16.16-1.06-.27-3.4-.91-5.27-1.83l-.05-.02a6.9 6.9 0 0 0-3.72.96c-.9.61-1.44 1.26-1.92 1.82-.4.5-.8.96-1.33 1.32-1.03.7-1.19.93-1.2 1 .04 0 .31.12.52.21.32.15.72.33 1.12.6l.54.4c1.01.77 2.9 2.19 4.32 2.34a4.46 4.46 0 0 0 2.37-.35 47.72 47.72 0 0 1 3.93-4.55zm-50.07 38.78c-.26-.13-.5-.18-.68-.18-.17 0-.29.05-.32.1-.02.05 0 .15.08.28.12.18.33.35.58.48.5.25.93.2 1 .08.01-.05 0-.15-.09-.28a1.5 1.5 0 0 0-.57-.48zm-.5-1.1a3.68 3.68 0 0 0-.39-1.73.25.25 0 1 1 .45-.22c.44.92.5 1.7.42 2.26l.16.05c.24-.52.43-1.32.24-2.42a.25.25 0 0 1 .5-.08c.13.81.08 1.48-.06 2.01l2.18-1.57a5.32 5.32 0 0 0 1.96-2.66c.16-.53-.33-1.33-.72-1.7-.72-.7-.97-1.6-1.13-2.19-.05-.15-.1-.36-.15-.46-.7 0-3.63.74-4.44 2.45a8.11 8.11 0 0 0-.8 2.79c-.01.21.02.43.1.63a7.02 7.02 0 0 0 1.69 2.83zm-1.24.98l.01-.11a4.95 4.95 0 0 0-3.29-.27.25.25 0 0 1-.1-.5 5.44 5.44 0 0 1 3.59.31 3.32 3.32 0 0 0-2-.76.25.25 0 0 1-.24-.27.25.25 0 0 1 .27-.23c.75.06 1.3.26 1.72.5-.38-.55-.76-1.27-1.11-2.23l-.05-.2a9.1 9.1 0 0 1-.16-.38c-.35-.9-2.5-1.82-4.41-1.89l-1.33-.06c-.63-.03-1.33-.06-1.73-.06.34 1.06.5 3.23.33 3.86-.27 1.02.3 1.8 1.85 2.55.9.43 4.35.1 6.65-.26zm12.74-2.36a6.71 6.71 0 0 0-4.33-1.13c-1.43.2-2.48.85-3.16 1.36l-.07.05-.22.17-.12.09c-.16.13-.3.23-.4.29l-.16.1-.93.68-.27.22-.01-.02-.15.1v.02c.7-.29 1.64-.5 2.9-.35a.25.25 0 1 1-.06.5 5.17 5.17 0 0 0-2.87.4l.05.07.1.2c.57-.16 1.3-.22 2.24-.02.13.03.22.16.2.3a.26.26 0 0 1-.3.19 4.33 4.33 0 0 0-2.04 0v.1l.01-.01c.34-.1.65.11 1.49.66l.4.27c1.02.71 2.16 1.52 4.09.33a6.62 6.62 0 0 0 2.03-1.76c.1-.13.2-.35.3-.58.16-.33.32-.68.5-.9.23-.27.46-.44.65-.57.2-.15.35-.25.43-.42 0-.02-.06-.14-.3-.34zm-9.58 4.7c-.26-.27-.47-.5-.48-.75-.08.05-.18.08-.28.1.24.76.36 1.84-.02 3.23a.25.25 0 0 1-.3.17.25.25 0 0 1-.18-.3c.38-1.38.22-2.4-.02-3.09l-.1-.01c.1.58.1 1.48-.49 2.57a.25.25 0 0 1-.33.1.25.25 0 0 1-.1-.34c.53-1 .51-1.81.41-2.3-.37 1.3-1.1 3.95-1.09 5.23.01 1.8.02 2.08 1.1 3.42.81 1 2.88 1.49 3.22 1.42.1-.05.5-.56.82-1.73.5-1.8.6-4.2-.34-5.52a16.87 16.87 0 0 0-1.82-2.2zm-2.52-1.15a4.76 4.76 0 0 0-2.03 3.02.25.25 0 0 1-.3.19.25.25 0 0 1-.18-.3 5.4 5.4 0 0 1 1.98-3.16c-.51.16-1.3.65-1.87 2.14a.25.25 0 0 1-.47-.17c.4-1.06.91-1.67 1.4-2.04a34 34 0 0 1-4.13.34c-.18.1-.74.45-1.15 1.18-.5.87-.47 2.56-.46 3.46v.49a5.2 5.2 0 0 1-.12.93l-.05.26c.13-.02.4-.08.9-.27.46-.16.9-.2 1.37-.22.55-.04 1.12-.08 1.85-.34a4.82 4.82 0 0 0 2.07-1.71l1.2-3.8h-.01zm106.09-5.62c-.02-.1-.27-.23-.65-.23-.1 0-.21 0-.33.03-.56.1-.86.42-.84.55.01.05.09.12.23.17.2.07.48.08.75.02.27-.05.52-.16.69-.3.11-.1.15-.2.15-.24zm-1.44-1.58c.01-.56.14-1.22.5-1.98.06-.12.2-.17.33-.11.13.05.18.2.12.33-.48 1-.51 1.81-.43 2.38l.17-.02c.1-.56.35-1.28 1.02-2.03a.25.25 0 0 1 .37.33c-.5.57-.74 1.1-.85 1.55.6-.3 1.43-.93 2.4-2.26.13-.18.22-.38.26-.59.1-.48.23-1.49 0-2.9-.32-1.9-3.02-3.43-3.59-3.58-.17.07-.46.37-.7.6-.5.51-1.18 1.2-1.96 1.63-.41.22-.48.9-.46 1.42.03 1.1.44 2.2 1.15 3.1l1.67 2.13zm10.59 1.07c-.26-.39-.69-1.03-.1-1.43.01-.06.15-.7-.08-1.28a1.4 1.4 0 0 0-1.05-.85c-1.86-.45-4.18-.15-4.75.62l-.27.33-.1.17c-.74 1-1.4 1.65-2 2.08l-.3.3c.05.04.08.09.1.13.81-.14 2.08-.15 3.62.68a.25.25 0 1 1-.24.44 4.95 4.95 0 0 0-3.24-.63l-.01.1c2.1.97 5.33 2.23 6.31 2.07 1.7-.29 2.46-.9 2.49-1.95 0-.21-.2-.53-.38-.78zm-10.12 1.97a3.4 3.4 0 0 0-.23 2.34.25.25 0 0 1-.24.3.25.25 0 0 1-.24-.2 3.9 3.9 0 0 1 .24-2.61l-.1-.02a5.05 5.05 0 0 0-.87 2.97c0 .14-.1.25-.25.25-.16 0-.25-.11-.25-.25.01-1.44.43-2.45.86-3.11-.09-.05-.17-.11-.24-.18-.08.25-.34.4-.66.6-.44.24-1.18.67-2.36 1.62-1.26 1-1.83 3.34-1.83 5.21 0 1.22.23 1.82.33 1.9.34.12 2.69-.19 3.26-.59.77-.53 1.07-1.05 1.63-1.98l.62-1.01c.23-.37.37-.96.44-1.63l-.1-3.6v-.01zm-3.67-.87l.46-.15c.96-.3 1.32-.4 1.61-.23l.01.01.03-.1a5.8 5.8 0 0 0-1.74-.57.25.25 0 0 1-.2-.28.25.25 0 0 1 .28-.21c.68.11 1.25.3 1.72.53a5.5 5.5 0 0 0-2.08-.76.25.25 0 0 1-.21-.29c.02-.1.1-.16.2-.18l-.18-.05a.25.25 0 0 1-.2-.28.25.25 0 0 1 .28-.21c1.24.2 2.1.66 2.7 1.13l-.01-.01-.11-.14-.02.01-.18-.27-.76-.96-.1-.11a5.5 5.5 0 0 1-.3-.39l-.08-.12-.17-.21-.06-.08a6.83 6.83 0 0 0-2.67-2.17c-1.4-.61-2.2-.1-2.42.07-.27.2-.4.48-.36.7.1.56-.15 1.1-.72 1.59a.64.64 0 0 0-.22.7c.15.44.53 1.2 1.48 2.23 1.53 1.68 2.85 1.21 4.02.8zm9.8 2.09c-1.3-.38-2.84-1-3.88-1.45.37.48.7 1.21.8 2.33a.25.25 0 0 1-.23.27h-.02a.25.25 0 0 1-.25-.22c-.14-1.6-.77-2.28-1.22-2.58a5.4 5.4 0 0 1 1.05 3.58c0 .13-.12.24-.25.24a.25.25 0 0 1-.25-.26 4.78 4.78 0 0 0-1.09-3.42c.09.83.21 2.47.07 3.9v.04c.09.25.55 1.5 1.53 2.2.63.46 1.16.65 1.68.84.45.15.86.3 1.26.59.43.31.67.45.8.5l.02-.27a5.27 5.27 0 0 1 .27-1.39c.26-.87.75-2.48.5-3.46a3.07 3.07 0 0 0-.78-1.44zM92.8 147.18c.15-.05.22-.13.22-.17.01-.05-.04-.14-.16-.24a1.52 1.52 0 0 0-.7-.27 1.93 1.93 0 0 0-.26-.02c-.18 0-.35.03-.48.08-.15.06-.22.14-.22.18-.01.05.04.14.16.24.17.13.42.23.7.27.27.04.54.01.74-.07zm-.62-2.14c.2-.52.53-1.1 1.12-1.7a.25.25 0 1 1 .36.35 4.09 4.09 0 0 0-1.19 2.12l.16.04c.27-.5.75-1.1 1.64-1.6a.25.25 0 1 1 .25.43c-.67.38-1.07.8-1.32 1.2a7.05 7.05 0 0 0 3.01-1.36c.18-.12.33-.28.44-.47.25-.42.7-1.33.94-2.74.33-1.9-1.73-4.23-2.2-4.56-.2.01-.57.2-.87.35-.64.31-1.5.74-2.39.88-.46.08-.74.7-.9 1.2a5.32 5.32 0 0 0 .08 3.3l.87 2.56zm4.62-.04l-.16.14a8.48 8.48 0 0 1-2.99 1.42l.1.23c.8.13 2 .54 3.18 1.83a.25.25 0 1 1-.37.34 4.95 4.95 0 0 0-2.85-1.66.75.75 0 0 1-.05.1c1.68 1.6 4.32 3.86 5.3 4.02 1.7.28 2.61-.04 2.98-1.03.08-.2-.02-.57-.1-.87-.12-.45-.31-1.2.37-1.38.03-.05.38-.62.34-1.24a1.4 1.4 0 0 0-.7-1.14c-1.62-1.04-3.9-1.51-4.7-.98l-.35.22zm-10.3 10c.9-.25 1.36-.63 2.19-1.34l.91-.75c.34-.27.67-.78.95-1.4l1.1-3.45c-.37.34-.86 1-1 2.14a.25.25 0 0 1-.24.22h-.03a.25.25 0 0 1-.22-.27 3.9 3.9 0 0 1 1.08-2.39l-.09-.05a5.06 5.06 0 0 0-1.79 2.52.25.25 0 0 1-.32.15.25.25 0 0 1-.15-.32 5.63 5.63 0 0 1 1.84-2.66l-.11-.13-.24.06c-.45.1-1.34.33-3.43.94-1.49.43-2.67 2.29-3.29 3.88-.5 1.32-.53 2.19-.43 2.35.28.22 2.6.7 3.27.5zm2.33-8.08c.63-.14 1.22-.3 1.56-.38a5.57 5.57 0 0 0-2.02 0 .25.25 0 0 1-.29-.21.25.25 0 0 1 .2-.3c1-.16 1.82-.09 2.48.08.07-.06.14-.12.23-.17a5.82 5.82 0 0 0-1.41-1.05.25.25 0 1 1 .23-.44c.26.14.48.3.69.44-.35-.35-.8-.7-1.4-1.03a.25.25 0 0 1-.1-.33.25.25 0 0 1 .34-.1c1.1.6 1.77 1.3 2.17 1.94v-.01l-.05-.17h-.03l-.08-.31-.4-1.15-.06-.14c-.04-.1-.1-.26-.15-.46l-.05-.14-.09-.26-.02-.1a6.85 6.85 0 0 0-1.82-2.92c-1.12-1.04-2.05-.82-2.3-.73-.32.11-.55.33-.58.55-.08.56-.5 1-1.2 1.26a.64.64 0 0 0-.43.59c0 .47.1 1.3.66 2.6 1.1 2.56 2.95 3.16 3.92 2.94zm2.42 4.88c0 .26.03 1.6.72 2.59.45.63.9.99 1.32 1.33.37.3.71.57 1 .97.3.44.48.65.58.74l.11-.25a5.13 5.13 0 0 1 .71-1.23c.53-.73 1.52-2.1 1.61-3.1a3.18 3.18 0 0 0-.27-1.62 33.92 33.92 0 0 1-3.2-2.65c.2.58.27 1.38 0 2.48a.25.25 0 1 1-.5-.13c.4-1.53.03-2.4-.3-2.82a5.4 5.4 0 0 1-.18 3.71.25.25 0 0 1-.47-.17c.6-1.57.4-2.75.17-3.43a.25.25 0 0 1-.13.07c-.21.86-.6 2.28-1.16 3.47v.04zm33.72 33.6c-.03-.7.05-1.43.32-1.94.86-1.64.98-2-.07-4.76-.88-2.34-3.23-4.16-4.06-4.74-1.89 2.82-.44 6.4.17 7.2.7.91 1.9 2.46 3.2 3.73l.44.51zm12.48-12.77l-1.06-.34a58.82 58.82 0 0 0-7-1.84 7.63 7.63 0 0 0-7.42 2.57c2.75 4.16 8.42 4.05 9.81 3.64 1.66-.5 5.66-2.32 7.9-3.36.04-.02.06-.06.06-.12-.02-.06-.05-.09-.1-.1-1.03-.07-1.47-.22-2.2-.45zm-9.62 6.63a.25.25 0 0 1-.18-.09c-.01 0-.9-.98-2.28-1.9.21.38.4.76.55 1.16.13.33.23.61.32.89a6.7 6.7 0 0 0 2.3 1.2c1.13.24 3.03.64 4.86.74l.67.1c-.48-.5-.9-1.11-1.02-1.67-.27-1.13-.42-1.69-1.14-2.3-.45.13-1.14.22-1.97.22-.63 0-1.34-.05-2.09-.18a13.36 13.36 0 0 1 2.88 2.22c.1.1.08.26-.02.35a.25.25 0 0 1-.35-.02c-.02-.02-1.7-1.85-4.62-3.05 1.38.92 2.24 1.86 2.28 1.91a.25.25 0 0 1-.19.42zm-1.21-27.12c-.25.02-.43.1-.48.22-.04.08-.04.18 0 .3.12.33.51.7 1 .92.36.18.76.26 1.08.24.25-.02.43-.1.49-.23.13-.28-.28-.87-1-1.21a2.35 2.35 0 0 0-1.09-.24zm3.83-3.37a.38.38 0 0 1 .35.66 5.55 5.55 0 0 0-2.49 2.42l.11.06a5.62 5.62 0 0 1 2.94-1.54c.21-.04.4.09.44.29.05.2-.08.4-.28.44-1.12.24-1.85.7-2.34 1.13.95.18 2.43.18 4.69-.53.3-.1.59-.26.82-.47.51-.46 1.5-1.5 2.42-3.28 1.3-2.55-1.08-4.82-1.39-5l-.56-.28a7.9 7.9 0 0 1-.89-.5c-.52-.35-1.22-.82-3.12-1.1-.71-.09-1.39.64-1.83 1.28a7.52 7.52 0 0 0-1.28 4.49l.12 3.84a6.77 6.77 0 0 1 2.29-1.91zm4.47 3.39l-.59.15c-.08.03-.15.08-.24.1-1.38.44-2.5.62-3.41.66l-.94.17c.7.2 1.53.5 2.39 1.04a.37.37 0 0 1-.4.64c-.08-.06-.16-.1-.24-.14.36.28.73.6 1.1 1.02a.37.37 0 0 1-.56.5 6.4 6.4 0 0 0-2.9-1.93c1.2 2.18 4.02 6.89 5.4 7.59 2.21 1.1 3.62 1.05 4.57-.18.2-.27.23-.8.25-1.27.03-.66.05-1.59.9-1.53.1-.04.84-.63 1.1-1.53.21-.7.05-1.38-.47-2-1.77-2.13-4.61-3.7-5.96-3.3zm-7.54 2.32c-.56.95-1.83 3-3.23 4.54l-.03.06a6.9 6.9 0 0 0-.13 3.83c.34 1.04.8 1.74 1.22 2.35.35.53.69 1.03.89 1.66.38 1.17.56 1.4.62 1.43a7.03 7.03 0 0 1 1.24-1.35l.53-.4c1.02-.76 2.91-2.18 3.46-3.5.48-1.14.37-2.12.32-2.37a47.7 47.7 0 0 1-3.25-5.03c.07.88-.13 2.06-1.04 3.54a.38.38 0 0 1-.51.12.38.38 0 0 1-.12-.51c1.05-1.72 1.02-2.94.82-3.67a7.65 7.65 0 0 1-1.8 4.67.37.37 0 0 1-.52.07.38.38 0 0 1-.06-.53c1.68-2.15 1.7-4.03 1.59-4.9zm-12.94 4.25c.08.58.18 1.3.8 1.75 1.02.74 3.9.56 6.42-.41.6-.23 1.24-.78 1.88-1.47l3-4.3c-.6.23-1.66.86-2.4 2.5a.38.38 0 0 1-.68-.31 5.4 5.4 0 0 1 2.54-2.78l-.05-.04c-.96.29-2.3.98-3.53 2.63a.37.37 0 0 1-.52.08.37.37 0 0 1-.08-.53 7.81 7.81 0 0 1 3.68-2.82c-.02-.04-.05-.08-.06-.13-.11-.3-.1-.6.02-.86.18-.37.58-.6 1.1-.65h.12a7.1 7.1 0 0 0-2.01-3.62.38.38 0 0 1 .53-.52 7.97 7.97 0 0 1 2.15 3.69l.06-.2-.01-.25h-.04s.02-.18.02-.47l-.05-1.68c0-.07 0-.15-.02-.23a6.82 6.82 0 0 1-.01-.66v-.2l-.01-.39v-.12a9.61 9.61 0 0 0-1.21-4.7c-.74-1.29-1.83-2.03-2.88-2-.52.02-.96.25-1.12.58-.3.65-1 1.03-1.98 1.1-.45.02-.81.3-.94.69-.2.63-.41 1.8-.2 3.77.33 3.22 2.31 3.84 3.91 4.33l.64.21c1.27.45 1.74.61 1.9.99.1.27-.01.52-.07.64-.21.45-.65.4-1.3.33-.7-.08-1.88-.22-4-.13-2.27.08-3.78 1.68-4.49 2.62-.9 1.23-1.33 2.55-1.2 3.07.04.14.06.3.09.5zm19.9 226.83a5.5 5.5 0 1 1-10.26-2.23 4.88 4.88 0 1 0 9.71.28c.3.6.5 1.27.55 1.95z"/><path fill="#DCDCDC" d="M207.53 38.88c0 .74-.07 1.6.06 2.35.16.98.51 1.29.6 1.95.07.46-.66.4-1.08.42a5.72 5.72 0 0 1-3.05-.93 7.62 7.62 0 0 1-2.76-3.31c-.46-.94-.84-1.96-1.25-2.9-.2-.45-1.58-3.23-2.22-2.43-.14.16-.18.45-.2.66a40.75 40.75 0 0 0-.1 5.8c.05.56.08 1.05.53 1.43.3.27.25.74.18 1.1-.04.22-.1.35-.31.43-.44.17-1.18.02-1.65.02h-1.97c-.27 0-.78.09-1.01-.12-.25-.22-.18-.8-.11-1.09.07-.34.36-.57.46-.92.1-.4.17-.8.22-1.22.2-1.96.08-7.92-.1-8.95a3.2 3.2 0 0 0-.32-.98c-.1-.19-.21-.31-.26-.52-.11-.52.06-.84.6-.86 1-.03 2.1-.06 3.11.05 2.1.22 4.28 2.34 5.36 4.03.51.8.75 1.72 1.31 2.48.12.16.4.18.43-.05.2-1.18.06-2.66-.1-3.83-.1-.77-.75-1.41-.54-2.21.14-.56.92-.36 1.4-.36.9.02 2.03-.12 2.93-.02.22.02.63-.03.77.21.11.18.07.77.03.94-.09.34-.35.71-.46 1.06-.5 1.57-.34 3.05-.42 4.68-.05.98-.08 2.1-.08 3.09zm-22.6-1.2c-.38 0-1.04.03-1.4.02l-1.59-.06c-.48-.03-.1-.98.04-1.43.08-.27.17-.55.28-.82.07-.2.18-.38.24-.58.06-.18.1-.36.18-.54l.15-.3c.1-.2.22-.4.39-.55.33-.29.58.11.7.43.29.72.57 1.47.8 2.2.12.42.6 1.62.21 1.62zm4.81.9c-.38-.75-1.6-3.75-1.86-4.52-.2-.62-.37-1.19-.65-1.79-.26-.56-.45-1.08-.65-1.67-.15-.46 1-1.06.4-1.63-.35-.35-1.62-.2-2.08-.19-.79.02-1.86.17-2.64.19-1.3.01-2.44-.17-3.75-.14-.3 0-.6.02-.9 0a1 1 0 0 0-.34.03c-.35.12-.3.55-.28.84.05.49.22.96.56 1.33.28.3.65.5.98.75.43.32 1.16.37 1.01.94-.3 1.09-.79 2.42-1.3 3.4-.46.84-.8 1.76-1.18 2.63-.42.96-.8 1.95-1.29 2.88-.21.4-.65.93-.5 1.42.13.44.64.48 1.03.47.8-.01 1.3-.1 2.1-.1.54.01 1 .1 1.35-.36.5-.67.82-2.1 1.29-2.12l.48-.03h1.22l.95-.02c.68-.02 1.3.06 2 0 .44 0 .67.27.78.63.1.33.22.63.29.95.09.39.17.84.63.97.26.07.54.03.8.05.62.04 1.23 0 1.85-.03.4-.02 1.08.11 1.4-.18.26-.24.06-.73-.03-1a37.94 37.94 0 0 0-1.67-3.7zm-21.07-8.93c-.06-.3-.08-.76.3-.84.43-.08.99-.06 1.43-.05.36 0 .7.02 1.06.03.35-.01.11-.02.46-.03.41-.01 1.18-.08 1.56.1.26.12.22.55.18.8-.03.2-.18.34-.28.5-.25.37-.21.9-.22 1.32-.02 1.66-.11 3.36-.04 5.01.03.64-.06 1.26-.01 1.9.06.84-.07 1.7.01 2.53.02.19-.02.74.08.88.12.19.31.33.36.53.27 1.13-.58 1.14-1.47 1.18-.41.02-.23.01-.63 0-.4.01-.81.02-1.23 0-.86-.04-1.73-.05-1.46-1.18.05-.2.23-.34.36-.53.1-.14.06-.7.07-.88.09-.83-.05-1.69.02-2.53.05-.64-.05-1.26-.02-1.9.08-1.65-.01-3.35-.04-5 0-.43.03-.96-.21-1.32-.11-.17-.25-.31-.28-.52zm-10.71 5.1c-.05-.77.06-1.55.05-2.32.03-.5.7-.49 1.25-.51.45-.02.9.02 1.34.06.66.06 1.4.14 1.83.7.42.53.57 1.3.51 1.96a2.17 2.17 0 0 1-1.22 1.72c-.53.28-.9.52-1.53.81-.4.2-1.32.62-1.77.7-.42.03-.42-.1-.45-.42l-.02-.26c-.03-.71.05-1.71.01-2.43zm-4.04-3.04c.3 3.05.15 6.13.01 9.18 0 .17-.04.59-.07.7-.07.25-.25.45-.33.69-.09.23-.13.64.01.86.07.11.18.16.3.2.4.1 1.08.17 1.5.18.9.01 1.64-.08 2.54-.09.81-.03.89-.48.72-.93-.07-.18-.18-.34-.28-.52-.09-.16-.2-.43-.2-.62 0-.04.02-.07.04-.1.2-.27.58-.36.88-.48l1.81-.73c.2-.08.44.04.5.26.05.17.09.34.15.5.25.63.54 1.33 1.01 1.83 1.15 1.22 3.45 1.07 4.29-.46.28-.52.46-1.4.02-1.53-.54-.16-1.26-.3-1.7-.72-.4-.38-.87-1.13-.6-1.35.04-.02 1.46-1.24 1.92-2.02.39-.65.44-1.42.5-2.15a6.24 6.24 0 0 0-.46-2.73 4 4 0 0 0-1.08-1.76 5.17 5.17 0 0 0-2.2-1.11c-.96-.25-1.99-.2-2.99-.22-.94 0-1.89 0-2.84.02l-1.84.09c-.57.02-1.24-.09-1.78.1-.25.1-.4.28-.4.55.02.38.22.62.35.96.19.48.17.9.22 1.4zm-11.07.6c.06-.53.6-.49.87-.51.43-.04 1.09-.03 1.52 0 .69.05 1.46.15 1.68.95.16.56.18 1.05-.12 1.5-.33.5-.86.5-1.38.52-.62.02-1.33 0-2.02-.05-.4-.03-.47-.07-.5-.54-.05-.51-.12-1.3-.05-1.87zm4.63 6.1c.18.58.23 1-.11 1.47-.38.52-1.01.6-1.6.63-.7.02-1.51 0-2.29-.05-.46-.03-.54-.07-.58-.56-.05-.54-.09-1.4 0-2 .07-.55.63-.46.95-.48.49-.03 1.23-.03 1.72 0 .78.06 1.66.16 1.91 1zm-8.86-7.83c.13.2.12.38.18.6.07.63.16 1.25.16 1.9 0 .79.04 1.59.03 2.38 0 .85.09 1.68.06 2.53l-.07 1.5c-.03.8.12 1.7-.26 2.45-.13.25-.32.5-.35.8-.02.18.03.37.2.48.15.1.34.13.52.14.37.02.73-.01 1.1.02.36.04.73.1 1.1.12 1.42.08 2.84-.05 4.27 0 .75.01 1.51-.02 2.25-.18.66-.15 1.4-.3 1.98-.65.8-.5 1.66-1.2 1.87-2.14a4.13 4.13 0 0 0-.35-3.12 3.27 3.27 0 0 0-1.05-1.12c-.09-.06-1.1-.56-1.06-.66.04-.1.98-.57 1.37-1.03.69-.79.8-1.7.61-2.73a3.04 3.04 0 0 0-.98-1.8 3.86 3.86 0 0 0-.86-.57 5.9 5.9 0 0 0-1.03-.4 9.18 9.18 0 0 0-1.16-.24 14.77 14.77 0 0 0-2.5-.18 34.24 34.24 0 0 0-2.41.06l-1.05.05c-.68.03-1.37.05-2.05 0-.3-.01-.72.02-.93.25-.23.25-.17.64-.04.91.1.22.32.43.45.63zm-20.95 6.54a5.65 5.65 0 0 1 2.86-4.31c.55-.33.31-.35.08-.82-1.35-2.7 1.08-6.2 4.13-5.2 1.2.4 2.12 1.7 2.07 2.98-.02.58-.16 1.11-.67 1.44-.41.26-.95.35-1.42.22a1.43 1.43 0 0 1-1-.9.27.27 0 0 1-.03-.12c.01-.12.14-.1.23-.12.2-.01.38-.06.51-.23.38-.49-.07-1.13-.64-1.15-.77-.02-1.23.45-1.28 1.23-.03.37 0 .83.24 1.14.2.26.56.31.86.4.18.04.2.38.21.54.02.22-.02.43-.11.63-.18.4-.5.58-.84.83-.5.36-1.09.77-1.55 1.17a3.84 3.84 0 0 0-1.38 2.96 3.36 3.36 0 0 0 1.43 2.64c1.77 1.25 4.91.79 6.1-1.1.37-.6.49-1.33.41-2.03a4.26 4.26 0 0 0-.85-2.01c-.05-.08-.1-.16-.19-.2-.23-.13-.56.16-.76.26-.82.43-1.69.73-2.24 1.53-.34.49-.2 1.13.44 1.21.42.05.84-.05 1.17-.33.28-.25.46-.63.79-.83.14-.09.33-.14.5-.07.21.1.23.4.25.63.27 2.29-2.64 3.32-4.35 2.24-.78-.5-1.3-1.4-1.31-2.34-.02-.96.63-1.84 1.3-2.47 1.21-1.16 2.81-1.75 4.3-2.5.35-.16.73-.36 1-.63.33-.33.38-.89.35-1.33-.02-.2-.14-.64.04-.8.18-.15.56.1.72.2.28.16.48.33.64.53.72.94.47 2.37-.35 3.13-.13.12-.5.28-.44.5.03.12.16.22.24.32.1.11.17.24.25.36a5.59 5.59 0 0 1 .78 2.49 5.74 5.74 0 0 1-.62 3.03c-1.51 2.9-5.48 3.91-8.37 2.7a5.75 5.75 0 0 1-3.5-5.82zm-19.79 4.6c.27-.58.24-1.22.23-1.83-.02-.62.05-1.23.07-1.85.05-1.3.06-2.62.05-3.93 0-.78-.07-1.57-.17-2.35-.07-.49-.04-.85-.23-1.3-.18-.44-.53-1.13-.05-1.57.08-.07.15-.1.24-.11.21-.04.43-.05.65-.06 2.78-.04 5.62-.18 8.39-.02 1.13.06 1.42-.01 1.67.57.11.28.4 1.46.47 1.76.1.4.1.84-.2 1.15a.15.15 0 0 1-.1.04.07.07 0 0 1-.05.02c-.64-.02-1.1-.35-1.68-.52-1.08-.33-2.31-.1-3.43-.16-.52-.02-1.21 0-1.5.53-.18.34-.36 3.02.52 2.65 1.37-.58 2.64-1.23 4.13-1.46.53-.07.92-.2 1.1.35.22.66.07 1.81-.03 2.3-.1.5-.85 1.59-1.56 1.82a1.4 1.4 0 0 1-.19.08c-.35.14-.45.04-.67-.22-.35-.4-.57-.67-1.11-.62-.64.07-1.7.53-2.05 1.1-.33.54-.32 1.32.04 1.85.3.44.94.35 1.44.4.79.08 1.56-.05 2.35-.05.74 0 1.9-.2 2.6-.43.24-.09.6-.28.81-.07.4.37-.15 1.39-.26 1.78-.14.46-.2.9-.44 1.32-.17.3-.35.48-.7.52-.69.07-1.42.06-2.12.06-1.98 0-4.04-.07-5.78-.05-.57 0-1.14.02-1.71-.04-.35-.03-.86.04-1.05-.33-.27-.5.13-.94.32-1.33zm-16.14-7.26a7.1 7.1 0 0 1 2.49-4.38c.9-.69 2.15-1.34 3.24-1.65a9.11 9.11 0 0 1 4.66 0c1.68.41 3.64 1.67 3.67 3.65.02 1.57-1.28 2.84-2.62 3.46-.45.2-2.04.78-2.3 0-.1-.32.28-.86.39-1.12.71-1.7-.76-2.71-2.35-2.47a3.67 3.67 0 0 0-2.89 2.58 4.9 4.9 0 0 0 .16 2.97c.27.78.6 1.43 1.32 1.89.63.4 1.38.6 2.1.7a4.31 4.31 0 0 0 3.6-1.42c.36-.37 1.37.42 1.63.7.23.23.6.58.85.95.14.2.23.42.23.62 0 .94-1.53 1.64-2.24 1.96-2.76 1.25-6.6 1.12-9.04-.78-2.22-1.73-3.3-4.9-2.9-7.66zm-9.95 1.75c.09-.27.18-.55.29-.82.07-.2.17-.38.24-.58.06-.18.1-.36.18-.54l.15-.3c.1-.2.22-.4.38-.55.34-.29.59.11.71.43a29 29 0 0 1 .79 2.2c.12.42.6 1.62.22 1.62-.39 0-1.04.04-1.4.03l-1.59-.06c-.48-.03-.1-.98.03-1.43zm-5.67 7.31c.8-.01 1.3-.1 2.1-.1.54.01 1 .1 1.34-.36.5-.67.83-2.1 1.3-2.12l.48-.03h1.22l.94-.02c.7-.02 1.31.06 2 0 .45 0 .68.27.8.63.1.33.2.63.28.95.08.39.17.84.63.97.25.07.54.03.8.05.61.04 1.23 0 1.84-.03.4-.02 1.1.11 1.41-.18.25-.24.06-.73-.04-1a38.2 38.2 0 0 0-1.66-3.7c-.38-.75-1.61-3.75-1.87-4.52-.2-.62-.36-1.19-.64-1.79-.26-.56-.45-1.08-.65-1.67-.15-.46 1-1.06.4-1.63-.35-.35-1.62-.2-2.09-.19-.78.02-1.85.17-2.63.19-1.3.01-2.45-.17-3.75-.14-.3 0-.6.02-.9 0-.11 0-.23 0-.34.03-.35.12-.3.55-.28.84.05.49.22.96.56 1.33.28.3.65.5.98.75.43.32 1.16.37 1 .94a17.8 17.8 0 0 1-1.3 3.4c-.45.84-.79 1.76-1.17 2.63-.43.96-.8 1.95-1.29 2.88-.21.4-.66.93-.5 1.42.13.44.63.48 1.03.47zM55.34 32.9c0-.27.01-.65.22-.84.26-.24.65-.2.96-.22 1.22-.05 2.76-.12 3.64 1 .43.54.65 1.16.74 1.86.3 2.1-2.22 5.56-4.83 5.7-.86.05-.63-.67-.68-1.5-.08-1.36.06-2.7-.03-4.06-.05-.65 0-1.3-.02-1.94zM51 30.92c.5.55.5 1.46.53 2.17.02.93.05 1.9 0 2.83-.03.76.1 1.53.02 2.29-.07.74-.04 1.5-.11 2.24-.09.8-.92 1.55-.5 2.4.22.47.66.4 1.1.45.46.07.92.1 1.38.12 1.28.04 1.98-.03 3.25-.1a8.1 8.1 0 0 0 6.92-4.34c.5-.96.86-2 1.06-3.07.15-.74.17-1.47.07-2.17a5.52 5.52 0 0 0-3.8-4.59c-1.95-.64-3.78-.25-5.75-.3-1.09-.02-2.09-.15-3.2-.13-.3 0-.6.02-.9 0-.12 0-.24 0-.35.04-.35.12-.3.54-.28.83.05.5.22.97.56 1.33zM36.62 43.47h-1.97c-.27 0-.78.09-1.01-.12-.25-.22-.18-.8-.11-1.09.07-.34.36-.57.46-.92.1-.4.17-.8.21-1.22.2-1.96.1-7.92-.1-8.95a3.23 3.23 0 0 0-.31-.98c-.1-.19-.21-.31-.26-.52-.11-.52.06-.84.6-.86 1-.03 2.1-.06 3.11.05 2.1.22 4.28 2.34 5.36 4.03.5.8.75 1.72 1.31 2.48.12.16.39.18.43-.05.2-1.18.06-2.66-.1-3.83-.1-.77-.75-1.41-.54-2.21.14-.56.92-.36 1.4-.36.9.02 2.03-.12 2.93-.02.22.02.63-.03.77.21.11.18.07.77.03.94-.09.34-.35.71-.46 1.06-.5 1.57-.34 3.05-.42 4.68-.05.98-.08 2.1-.08 3.09 0 .74-.07 1.6.06 2.35.16.98.51 1.29.6 1.95.07.46-.66.4-1.08.42a5.72 5.72 0 0 1-3.05-.93 7.64 7.64 0 0 1-2.77-3.31c-.45-.94-.83-1.96-1.24-2.9-.2-.45-1.58-3.23-2.23-2.43-.13.16-.17.45-.2.66a40.75 40.75 0 0 0-.1 5.8c.06.56.1 1.05.54 1.43.3.27.25.74.18 1.1-.05.22-.1.35-.31.43-.44.17-1.18.02-1.65.02zm-11.35-5.8c-.39 0-1.04.04-1.4.03l-1.59-.06c-.48-.03-.1-.98.04-1.43.08-.27.17-.55.28-.82.07-.2.18-.38.24-.58.06-.18.1-.36.18-.54l.15-.3c.1-.2.22-.4.38-.55.34-.29.59.11.71.43.28.72.57 1.47.8 2.2.11.42.6 1.62.21 1.62zm4.8.91c-.37-.75-1.6-3.75-1.85-4.52-.21-.62-.37-1.19-.65-1.79a16.2 16.2 0 0 1-.65-1.67c-.15-.46 1-1.06.4-1.63-.35-.35-1.62-.2-2.08-.19-.79.02-1.86.17-2.64.19-1.3.01-2.45-.17-3.75-.14-.3 0-.6.02-.9 0a1 1 0 0 0-.34.03c-.35.12-.3.55-.28.84.05.49.22.96.56 1.33.28.3.65.5.98.75.43.32 1.16.37 1.01.94a17.8 17.8 0 0 1-1.31 3.4c-.45.84-.79 1.76-1.17 2.63-.43.96-.8 1.95-1.29 2.88-.21.4-.65.93-.5 1.42.13.44.63.48 1.03.47.8-.01 1.3-.1 2.1-.1.54.01 1 .1 1.34-.36.5-.67.83-2.1 1.3-2.12l.48-.03h1.22l.95-.02c.68-.02 1.3.06 2 0 .44 0 .67.27.78.63.1.33.22.63.29.95.08.39.17.84.63.97.25.07.54.03.8.05.61.04 1.23 0 1.85-.03.4-.02 1.08.11 1.4-.18.26-.24.06-.73-.04-1a37.95 37.95 0 0 0-1.66-3.7zm-19.69-4.11a1 1 0 0 0-.27 1c.23.79.4 1.62.65 2.4a14.03 14.03 0 0 0 .33.93c.48 1.15 1.23 1.52 2.37 1.85.44.13.26 1.02-.02 1.53-.63 1.15-2.11 1.54-3.3 1.1-1.47-.54-2.14-2.45-2.46-3.86l-.33-1.4a.47.47 0 0 0-.74-.27l-.34.26c-.55.41-.94.72-1.2.93-.3.22-.46.58-.45.95.03.51.08 1.02.17 1.52v.03c.08.4.31.68.45 1.07.17.45.1.9-.71.93-.9 0-1.65.1-2.55.08-.42 0-1.1-.08-1.5-.18-.11-.03-.22-.08-.3-.2-.14-.22-.1-.62-.01-.86.09-.24.27-.43.33-.68.04-.12.07-.53.08-.7.14-3.06.28-6.13-.02-9.19-.05-.5-.03-.92-.21-1.4-.14-.34-.34-.58-.35-.95 0-.27.14-.46.4-.55.54-.2 1.12-.08 1.69-.1.65-.03 1.3-.08 1.96-.1l.28.01c.32.04.9-.04 1 .35.06.23-.02.58-.12.79-.2.37-.44.55-.51 1-.1.65-.01 1.31-.05 1.97-.03.5-.04 1-.04 1.49 0 .25.27.37.5.25a18.01 18.01 0 0 0 5.04-4.74c.26-.36.6-.53 1.04-.62.37-.08 1.84-.31 2.5-.05.22.08.35.22.34.42a4.7 4.7 0 0 1-1 2.27c-.43.6-.75.97-1.3 1.46-.46.4-.9.83-1.35 1.26zm38.17 296.31l-3.82 13.98c-.77-1.1-1.4-3.59-1.65-5.3l-.04-.14c-.04-.13-4.62-12.55-5.19-14.24-.44-1.3-.26-1.94-.25-2 .19-.24 1.12-1.22 2.02-2.16 1.72-1.8 4.07-4.25 5.74-6.27 2.62-3.18 4.03-3.75 4.02-3.75l12.55-3.64c.4.34 1.1 1.16.52 2.41-.75 1.61-3.76 3.41-4.91 4-2.08 1.3-5.76 3.44-6.8 3.6l-.6.1.05.6c0 .02.1 1.71-2.56 4.46a33.5 33.5 0 0 1-1.69 1.64c-1.6 1.43-2.27 1.63-2.88 1.8a.65.65 0 0 0 .37 1.25 6.7 6.7 0 0 0 2.73-1.52l2.4 5.18zm39.56 55.53a6.2 6.2 0 0 1-6.22 5.72l-.54-.03a6.25 6.25 0 0 1-3.76-10.76l1.68-1.58-1.09 2.03a4.1 4.1 0 0 0 .48 4.6 4.11 4.11 0 0 0 6.67-4.8l-1.2-1.98 1.77 1.48a6.25 6.25 0 0 1 2.2 5.32zm-7.6-3.85a.93.93 0 0 1 .24-.08l.17-.06c.13-.11.21-.4.3-.66l.04-.15c.03-.11.14-.45.41-.45.28 0 .38.36.41.48.14.5.3.83.65.93.2.05.36.2.39.4a.42.42 0 0 1-.2.4c-.15.11-.3.15-.41.17-.16.03-.2.04-.24.26l-.03.17c-.03.19-.05.38-.16.57a.44.44 0 0 1-.32.24h-.03c-.1 0-.2-.04-.27-.13-.2-.22-.25-.46-.3-.67-.07-.3-.11-.5-.52-.62-.22-.07-.36-.22-.38-.4-.02-.16.07-.3.24-.4zm.44-11.47a.54.54 0 1 1-.09-1.09.54.54 0 0 1 .09 1.09zm1.1 7.62a.54.54 0 1 1-1.09.08.54.54 0 0 1 1.09-.08zm-.8-3.69a.54.54 0 1 1-.09-1.08.54.54 0 0 1 .1 1.08zM69.27 350.1a.65.65 0 1 1 .3-1.26c.54.13 13.28 3.28 15.84 10.58a.65.65 0 1 1-1.23.43 7.2 7.2 0 0 0-.38-.87c-2.26-4.48-9.12-7.2-12.55-8.3-1.18-.38-1.95-.57-1.98-.58zm23.13 29.77c-.14-5.19-2.26-18.87-2.28-19a.64.64 0 0 1 .11-.49c.1-.13.25-.23.43-.26.16-.02.32.02.45.1 1.63-3.72.85-7.83.84-7.88l-.01-.12c-.02-1.85-2.75-7.9-4.38-11.52-.85-1.9-1.3-2.91-1.42-3.34a18.13 18.13 0 0 0-1.93-4.58c-1.24-2.25-4.64-9.57-5.26-13.46-.54-3.43-4.22-13.31-4.7-14.58a2.1 2.1 0 0 0-1.4-.55c-.66.03-1.34.5-2 1.38 0 0-2.95 5.58-1.71 9.87.16.55.31 1.02.47 1.47l1.1-.5.36-.17.3.24c.07.05 1.49 1.17 1.62 2.66.06.73-.2 1.43-.74 2.04-.1.1-.2.23-.3.35.72.03 2.45-.01 4.55-.86a.65.65 0 1 1 .49 1.2c-2.01.82-3.7.97-4.7.97h-.06c.1.83.21 2.2.37 4.1.2 2.46.53 6.4.78 7.64 1.56.69 3.04 1.37 4.05 1.85l.28.13.08.3c0 .04.64 2.94-3.15 3.9-2.99.74-6.73-.54-7.67-.9a29.17 29.17 0 0 0-3.38 1.25 3.78 3.78 0 0 0-2.2 3.1 22.38 22.38 0 0 1-.78 4.65.65.65 0 0 1-.82.42.64.64 0 0 1-.44-.63c0-.06 0-.13.02-.19.31-.94.56-2.45.73-4.37a5.08 5.08 0 0 1 2.95-4.16c.45-.2.9-.4 1.33-.56 1.33-.51 2.4-.8 2.45-.82l.21-.06.2.08c.05.02 4.13 1.67 7.09.92 1.94-.48 2.2-1.53 2.21-2.04-4.42-2.08-9.34-4.17-10.15-4.06-2.14.25-8.04 1.19-9.91 2.43-1.88 1.25-1.9 1.61-1.96 3.38l-.03.7-.08 1.76c-.15 3.84-.28 5.98-.54 6.86-.03.11-.06.2-.1.28a.65.65 0 0 1-1.16-.6c.26-.57.42-4.49.5-6.59l.08-1.77.03-.7c.02-.62.06-1.13.16-1.58.22-1.03.77-1.75 2.38-2.82.2-.14.46-.27.73-.4-.05-.98.2-4.22 5.12-6.29 4.63-1.94 7.25-4.96 8.98-6.95l.7-.8c.3-.33.44-.67.4-1.04-.04-.58-.49-1.15-.83-1.5a72.77 72.77 0 0 0-6.46 3.3c-1.06.68-3.52 1.6-6.13 2.57-2.25.84-4.57 1.7-5.4 2.22-1.1.7-3.22 6.45-4.38 10.3v.02a.63.63 0 0 1-.12.23l-.55 2c-.49 2.34-.95 4.83-1.3 6.86l-.05.16c-.04.1-.4.99.53 1.71l1.16.87c5.68 4.24 12.33 9.38 13.3 11.56.55 1.25 2.8 4.16 6.34 8.18a22.2 22.2 0 0 1 4.88 9.11c.43 1.69.59 3.18.48 4.45-.05.6-.35 2.33-.89 5.13a7.64 7.64 0 0 0 3.65 8.09c4.54 2.6 9.23 1.5 12.37.13a7.29 7.29 0 0 0 4.39-6.88c-.03-1.16-.08-2.44-.13-3.76-.06-1.38-.12-2.8-.15-4.14zm-10.73 2.17v-.4.4zm-31.13-61.24l1.11 4.45c-.73.86-1.5 2.48-2.21 4.22l-.06.02-2.18-4.72a6.92 6.92 0 0 0 2.78-3.1c.22-.3.4-.6.56-.87zm-9.86-15.58c.11-1.79-1.39-7.43-1.87-9.18a2.82 2.82 0 0 1 1.85-.34c1.2.2 2.34 1.17 3.36 2.84.82 1.72 2.87 6.63 2.48 8.7l-.03.14.04.14c.05.22.5 1.87 1.25 2.89-.78.59-1.92 1.62-3.4 3.42-.63.76-1.36 1.58-2.11 2.41a63 63 0 0 1-.77-3.72l-.13-.8c-.29-1.84-.77-4.9-.67-6.5zm132.46 18.13c.03.12.18.75-.25 2a1682 1682 0 0 1-5.18 14.24l-.04.13c-.24 1.72-.88 4.2-1.65 5.31l-3.83-13.98 2.4-5.18a6.68 6.68 0 0 0 2.73 1.52c.35.1.7-.1.81-.44.1-.35-.1-.71-.45-.81-.6-.17-1.28-.37-2.87-1.8l-.02-.02c-.5-.45-1.07-1-1.67-1.62-2.65-2.75-2.56-4.44-2.56-4.45l.07-.63-.62-.09c-1.05-.15-4.72-2.28-6.85-3.63-1.1-.55-4.11-2.35-4.86-3.96a1.91 1.91 0 0 1 .52-2.4l12.5 3.61c.02 0 1.43.57 4.07 3.76 1.67 2.02 4.02 4.48 5.73 6.27.9.94 1.83 1.91 2.02 2.17zm-31.66 27.01c-.03 0-.8.2-1.98.58-3.43 1.1-10.29 3.81-12.55 8.3-.15.28-.28.57-.38.87a.65.65 0 1 1-1.23-.43c2.56-7.3 15.3-10.45 15.84-10.58a.65.65 0 0 1 .3 1.26zm-13.46 32.37c.35-.1.5-.42.64-.92.04-.12.14-.48.41-.48.28 0 .38.34.42.45l.04.14c.08.26.17.55.3.67.03.02.1.04.16.05.08.02.17.04.25.09.18.1.26.24.25.4-.02.18-.16.32-.38.4-.4.13-.45.31-.52.62-.05.2-.1.45-.3.67a.35.35 0 0 1-.27.13H129a.44.44 0 0 1-.32-.24 1.6 1.6 0 0 1-.16-.57l-.03-.18c-.04-.21-.08-.22-.24-.25-.11-.03-.26-.06-.42-.17a.42.42 0 0 1-.19-.41.52.52 0 0 1 .39-.4zm1.78-11.47a.54.54 0 1 1 .09-1.09.54.54 0 0 1-.09 1.09zm-.01 7.7a.54.54 0 1 1-1.09-.08.54.54 0 0 1 1.09.08zm-.3-3.77a.54.54 0 1 1 .1-1.08.54.54 0 0 1-.1 1.08zm-.09 17.08a6.27 6.27 0 0 1-4.56-1.44 6.21 6.21 0 0 1 0-9.57l1.78-1.49-1.21 1.97a4.13 4.13 0 1 0 7.16.21l-1.09-2.03 1.68 1.59a6.24 6.24 0 0 1-3.76 10.76zm34.83-46.76c-.35-2.02-.82-4.52-1.3-6.86l-.55-2a.65.65 0 0 1-.12-.23c-1.16-3.87-3.29-9.61-4.39-10.3-.82-.53-3.14-1.4-5.39-2.23-2.6-.97-5.07-1.9-6.14-2.57a72.35 72.35 0 0 0-6.45-3.3c-.34.34-.79.92-.84 1.5-.03.36.1.7.41 1.04l.7.8c1.73 2 4.35 5 8.97 6.95 4.93 2.07 5.18 5.3 5.13 6.29.27.12.52.25.73.4 1.61 1.06 2.16 1.78 2.38 2.82.1.45.13.95.16 1.59l.03.68.07 1.77c.09 2.1.25 6.03.5 6.6.15.32.02.72-.3.87a.64.64 0 0 1-.85-.27 1.67 1.67 0 0 1-.1-.29c-.26-.88-.4-3.01-.55-6.86l-.07-1.75-.03-.7c-.07-1.77-.08-2.14-1.96-3.38-1.87-1.24-7.77-2.18-9.89-2.43-.8-.06-5.75 1.98-10.17 4.06 0 .51.28 1.56 2.21 2.04 2.96.75 7.04-.9 7.08-.92l.2-.08.22.06c.04.01 1.12.3 2.44.82.43.16.89.35 1.34.55a5.09 5.09 0 0 1 2.95 4.17c.17 1.92.42 3.43.72 4.37l.03.18a.64.64 0 0 1-1.26.22c-.43-1.3-.66-3.25-.79-4.66a3.78 3.78 0 0 0-2.2-3.1 22.77 22.77 0 0 0-3.37-1.24c-.94.35-4.68 1.64-7.68.9-3.78-.96-3.14-3.87-3.14-3.9l.07-.3.29-.13c1-.48 2.48-1.16 4.05-1.85.24-1.21.56-5.02.78-7.64.16-1.9.27-3.27.37-4.1h-.06c-1 0-2.7-.16-4.7-.97a.65.65 0 1 1 .49-1.2c2.12.85 3.83.9 4.56.86l-.31-.36c-.55-.6-.8-1.3-.74-2.03.13-1.5 1.55-2.62 1.61-2.66l.31-.24.36.16 1.1.5a28 28 0 0 0 .47-1.46c1.25-4.31-1.73-9.9-1.76-9.96-.61-.8-1.29-1.26-1.96-1.3-.67-.04-1.2.38-1.4.56-.47 1.27-4.15 11.14-4.7 14.58-.61 3.89-4 11.2-5.25 13.46-1.26 2.27-1.54 3.24-1.93 4.58a42 42 0 0 1-1.42 3.33c-1.63 3.62-4.36 9.68-4.38 11.53l-.01.12c-.01.05-.8 4.16.84 7.88a.64.64 0 0 1 .88.16c.1.13.14.3.11.48-.02.14-2.15 13.82-2.28 19l-.15 4.16c-.06 1.46-.11 2.86-.14 4.11a6.77 6.77 0 0 0 3.86 6.27c3.27 1.55 8.18 2.83 12.9.11a7.63 7.63 0 0 0 3.66-8.08c-.54-2.8-.84-4.53-.9-5.13-.1-1.27.06-2.77.49-4.45a22.21 22.21 0 0 1 4.88-9.11c3.54-4.02 5.79-6.93 6.34-8.18.96-2.18 7.62-7.33 13.3-11.57.56-.4.96-.71 1.16-.86.92-.73.57-1.62.53-1.72l-.05-.16zm-35.16 36.78l.01-.4v.4zm32.3-52.54l-.06-.02c-.7-1.74-1.49-3.36-2.22-4.22l1.11-4.45c.17.28.35.56.57.87.6 1.2 1.5 2.4 2.78 3.1l-2.19 4.72zm2.87-21.97l.04-.14-.03-.14c-.4-2.07 1.65-6.98 2.44-8.64 1.06-1.73 2.2-2.7 3.4-2.9.8-.14 1.48.13 1.85.34-.48 1.75-1.98 7.39-1.87 9.17.1 1.6-.39 4.67-.68 6.5l-.12.8c-.12.8-.44 2.27-.77 3.73a67.12 67.12 0 0 1-2.1-2.41 20.87 20.87 0 0 0-3.41-3.42 9.73 9.73 0 0 0 1.25-2.89zm-35.21-62.93c.74-1.1 1.49-2.26 2.26-3.44 4.04-6.16 8.62-13.17 15.13-19.3 3.25 3.14 7.54 4.84 10.48 5.93a67.1 67.1 0 0 0-6.52 6.76c-.19.22-.36.45-.53.68-.19.26-.38.52-.6.76-2.03 2.22-9.17 10.81-16.02 28.08-.5 1.26-2.67 3.4-3.78 3.19-2.13-.41-5.22-4.9-6.18-7.62a40.4 40.4 0 0 1-1.12-3.48c-.36-1.63.68-3.02 2.94-6.05l.17-.24c1.68.4 3.23.94 3.66 1.68.06.1.19.32.44.32h.04l.26-.04.08-.23c.13-.37-.48-2.68-1.73-5.51l1.02-1.5zm46.08-37.27c2.55 2.9.9 5.9-.92 7.9-1.76 1.91-4.05 3.31-6.7 4.94a88.19 88.19 0 0 0-5.84 3.8l-.78-1.74a24.5 24.5 0 0 0-5.36-7.34 54.93 54.93 0 0 1 10.62-5.08c.1-.03.93-.35 1.2-1.17.18-.55.05-1.16-.4-1.8-.06-.1-6.26-9.83-3.7-20.35l.17-.7.13-.6c.14-.56.27-1.2.4-1.91.8-4.02 1.98-10.09 7.56-15.23a3.16 3.16 0 0 1 1.17-.56.4.4 0 0 1 .32.17c.04.05.17.25.02.48-2.85 4.55-11.19 20.8 1.51 38.47.18.25.39.49.6.72zM110.84 312c-1.31 2.15-2.48 9.78-2.82 12.54a1 1 0 1 1-1.99-.25c.13-1.06 1.33-10.43 3.1-13.33 4.52-7.4 5.47-11.68 5.47-13.98a1 1 0 1 1 2 0c0 3.72-1.94 8.77-5.76 15.02zm-5.48-1.4a1 1 0 0 1-1-.99l-.27-27.85a9.8 9.8 0 0 0-1.32 7.26c.07.35.34 2.35-2.48 6.44-.4.79-1.48 3.49-.35 4.16a1 1 0 1 1-1.03 1.72c-2.38-1.43-1.35-4.99-.37-6.86l.06-.1c2.37-3.42 2.2-4.97 2.2-4.98-1.24-6 2.49-10.06 3.26-10.83l-.18-19.44a1 1 0 0 1 .99-1h.01a1 1 0 0 1 1 .98l.18 19.35c.38.36 4.7 4.55 3.37 10.97 0 0-.15 1.54 2.2 4.94l.07.1c.98 1.88 2 5.44-.37 6.87a1 1 0 0 1-1.38-.34 1 1 0 0 1 .35-1.38c1.12-.67.05-3.37-.35-4.16-2.82-4.09-2.56-6.1-2.48-6.46a9.82 9.82 0 0 0-1.38-7.3l.27 27.89a1 1 0 0 1-1 1.01zm-1.8 14.8l-.12.01a1 1 0 0 1-1-.87c-.33-2.76-1.5-10.4-2.82-12.54-3.82-6.25-5.75-11.3-5.75-15.02a1 1 0 1 1 2 0c0 2.3.94 6.59 5.46 13.98 1.78 2.9 2.97 12.27 3.1 13.33a1 1 0 0 1-.87 1.12zm-25.1-32.15a3.2 3.2 0 0 1-.85-1.98c-.24-3.9-.67-8.8-1.3-10.03-.66-1.27-.12-6.78 1.94-11.5a.64.64 0 0 1 .53-.4c.25-.02.48.1.63.3 2.22 3.18 9.2 13.92 6.06 18.33a27.1 27.1 0 0 1-4.85 5.45 1.6 1.6 0 0 1-2.15-.17zm51.41-23.58c.3-.22.64-.32 1-.32.43 0 .86.16 1.18.48.5.5.8 1.16.84 1.84.25 3.68.68 8.32 1.32 9.5.65 1.18.1 6.35-1.95 10.8a.64.64 0 0 1-.53.36.7.7 0 0 1-.64-.27c-2.21-3-9.2-13.1-6.07-17.25a26.18 26.18 0 0 1 4.85-5.14zm2.1 24.14l.44-.38c.13-.12.24-.3.33-.5.18-.14.33-.32.43-.54.4-.87.75-1.78 1.05-2.69 1.11-3.43 1.48-6.87 1.06-8.48-.05-.2-.11-.4-.2-.54-.37-.68-.78-3.62-1.1-7.77l-.09-1.3a3.9 3.9 0 0 0-1.51-2.8 2.66 2.66 0 0 0-3.08.05c-.4-.07-.81-.19-1.26-.39-3.22-1.43-5.74-5.88-7.5-13.23-.48-.45-3-2.54-7.89-2.4l-14.83-.33c-4.89-.15-7.4 1.95-7.89 2.4-1.76 7.35-4.28 11.8-7.5 13.23-1.1.5-2.08.52-2.79.41-.29-.15-.62-.23-.96-.2-.23.03-.45.11-.64.22-.3.17-.56.43-.7.76-1 2.3-1.68 4.83-2.02 7.03a17.29 17.29 0 0 0-.23 3.97c.05.54.15.97.29 1.28l.03.08c.43.82.88 4.43 1.2 9.65a4.2 4.2 0 0 0 1.12 2.6c.51.54 1.21.82 1.91.82l.24-.02c2.21 2.23 5.48 6.68 8.3 17.62 2.92 11.3 5.63 15.6 6.65 16.93.34.43.54.95.6 1.5.13 1.5.67 5.17 2.66 7.27-.04-2.94-.09-8.38.03-9.42.12-1.12 1.25-3.44 2.42-3.54.32-.02.9.09 1.2 1.12.6 2.08 2.1 4.35 2.12 4.38.01.01.32.43 1.16.48.93.06 1.83-.48 2.32-1.36.45-.81 1.06-2.02 1.39-3.17.27-.95.79-1.12 1.12-1.12h.08c1.17.1 2.3 2.42 2.42 3.54.12 1.05.07 6.48.03 9.42 1.84-1.93 2.44-5.18 2.64-6.96.08-.74.35-1.43.77-2.01 1.01-1.38 3.67-5.78 6.5-16.73 3.49-13.53 7.67-17.14 9.68-18.88zm-88.53-73.38c-2.73-1.66-4.89-2.98-6.6-4.85-2.45-2.7-2.75-5.12-.9-7.22.21-.25.43-.5.62-.76 12.71-17.7 4.64-33.99 1.64-38.85.3.12.56.3.62.35 5.48 5.04 6.65 11.01 7.42 14.97.14.71.27 1.37.4 1.94l.14.58c.05.24.1.48.17.71 2.51 10.31-3.57 19.85-3.63 19.95-.67.97-.62 1.75-.46 2.24a2.55 2.55 0 0 0 1.51 1.5c11.7 4.1 19.57 11.1 25.6 18.48a12.29 12.29 0 0 0-7.03 5.7l-.22.4.38.26c.25.17 6 3.98 11.91 3.98.25 0 .5 0 .75-.02l1.59-.1a752.71 752.71 0 0 1 3.87 5.88c1.56 2.32 2.89 4.1 3.96 5.53 2.34 3.15 3.14 4.3 2.85 5.65-.09.39-.42 1.5-1.1 3.42-1.03 2.9-4.03 6.95-5.8 7.3-.73.15-2.75-1.68-3.23-2.9-6.88-17.34-14.07-25.98-16.11-28.22-.21-.23-.4-.48-.58-.73l-.54-.7c-6.9-8.17-12.63-11.67-17.23-14.49zM166.03 63.24c.38-.7.87-1.06 1.47-1.06.62 0 1.12.35 1.5 1.06.38.71.61 2.86.7 6.44-.09 3.58-.32 5.73-.7 6.44-.38.7-.88 1.06-1.5 1.06-.6 0-1.09-.35-1.47-1.06-.38-.71-.61-2.86-.69-6.44.08-3.58.31-5.73.69-6.44zm-2.19-1.42c-.72 1.64-1.08 4.29-1.08 7.95 0 3.52.36 6.14 1.08 7.85.72 1.7 1.96 2.56 3.72 2.56 1.76 0 3-.85 3.72-2.56.72-1.71 1.08-4.33 1.08-7.85 0-3.66-.36-6.31-1.08-7.95a3.78 3.78 0 0 0-3.72-2.46c-1.76 0-3 .82-3.72 2.46zm-14.25-.77a4.12 4.12 0 0 1 3.11-1.3c1.26 0 2.3.43 3.1 1.29.8.86 1.2 1.98 1.2 3.36 0 .76-.17 1.5-.5 2.22-.33.72-.9 1.73-1.7 3.03a26.62 26.62 0 0 0-2.37 4.34c-.41.96-.71 1.8-.9 2.51a.86.86 0 0 0 .84 1.07h3.89c.4 0 .73.33.73.74v1.14c0 .4-.33.73-.73.73h-6.73c-.66 0-1.19-.55-1.14-1.21.13-1.68.5-3.35 1.13-5.01a20.89 20.89 0 0 1 2.64-5.09 22.23 22.23 0 0 0 1.68-2.7c.36-.72.54-1.31.54-1.77-.04-.76-.2-1.3-.5-1.62a1.76 1.76 0 0 0-2.36-.1c-.2.17-.35.42-.46.76a.93.93 0 0 1-.9.63h-.72a.96.96 0 0 1-.91-1.23c.2-.65.55-1.24 1.06-1.79zm-13.28 2.2c.38-.72.87-1.07 1.47-1.07.62 0 1.12.35 1.5 1.06.38.71.61 2.86.7 6.44-.09 3.58-.32 5.73-.7 6.44-.38.7-.88 1.06-1.5 1.06-.6 0-1.09-.35-1.47-1.06-.38-.71-.6-2.86-.69-6.44.08-3.58.31-5.73.7-6.44zm1.53 16.93c1.76 0 3-.85 3.72-2.56.72-1.71 1.08-4.33 1.08-7.85 0-3.66-.36-6.31-1.08-7.95a3.78 3.78 0 0 0-3.72-2.46c-1.76 0-3 .82-3.72 2.46-.72 1.64-1.08 4.29-1.08 7.95 0 3.52.36 6.14 1.08 7.85.72 1.7 1.96 2.56 3.72 2.56zm-13.72-14a4.2 4.2 0 0 0 .54-1.78c-.04-.76-.2-1.3-.5-1.62a1.76 1.76 0 0 0-2.36-.1c-.2.17-.35.42-.46.76a.93.93 0 0 1-.89.63h-.73a.96.96 0 0 1-.91-1.23 4.43 4.43 0 0 1 4.17-3.1c1.26 0 2.3.44 3.1 1.3.8.86 1.2 1.98 1.2 3.36 0 .76-.17 1.5-.5 2.22-.33.72-.9 1.73-1.7 3.03a26.55 26.55 0 0 0-2.37 4.34c-.41.96-.71 1.8-.9 2.51a.86.86 0 0 0 .84 1.07h3.9c.4 0 .72.33.72.74v1.14c0 .4-.32.73-.73.73h-6.72c-.66 0-1.2-.55-1.14-1.21.12-1.68.5-3.35 1.12-5.01a20.89 20.89 0 0 1 2.64-5.09 22.33 22.33 0 0 0 1.68-2.7zm-16.68 2.15h4.66c.45 0 .8.36.8.8v1a.8.8 0 0 1-.8.81h-4.66a.8.8 0 0 1-.8-.8v-1c0-.45.36-.81.8-.81zm-13.97-7.28a4.12 4.12 0 0 1 3.1-1.3c1.27 0 2.3.43 3.1 1.29.8.86 1.2 1.98 1.2 3.36 0 .76-.17 1.5-.5 2.22-.33.72-.9 1.73-1.7 3.03A26.7 26.7 0 0 0 96.32 74c-.42.96-.72 1.8-.9 2.51a.86.86 0 0 0 .84 1.07h3.88c.41 0 .74.33.74.74v1.14c0 .4-.33.73-.74.73h-6.72c-.66 0-1.19-.55-1.14-1.21.12-1.68.5-3.35 1.12-5.01a20.92 20.92 0 0 1 2.65-5.09 22.23 22.23 0 0 0 1.68-2.7c.36-.72.54-1.31.54-1.77-.04-.76-.2-1.3-.5-1.62a1.76 1.76 0 0 0-2.36-.1c-.2.17-.36.42-.46.76a.93.93 0 0 1-.9.63h-.73a.96.96 0 0 1-.9-1.23c.19-.65.54-1.24 1.06-1.79zM81.04 76.5a.86.86 0 0 0 .84 1.07h3.89c.4 0 .73.33.73.74v1.14c0 .4-.33.73-.73.73h-6.73c-.66 0-1.19-.55-1.14-1.21.12-1.68.5-3.35 1.13-5.01a20.89 20.89 0 0 1 2.64-5.09 22.33 22.33 0 0 0 1.68-2.7c.36-.72.54-1.31.54-1.77-.04-.76-.2-1.3-.5-1.62a1.76 1.76 0 0 0-2.36-.1c-.2.17-.36.42-.46.76a.93.93 0 0 1-.9.63h-.73a.96.96 0 0 1-.9-1.23 4.43 4.43 0 0 1 4.17-3.1c1.26 0 2.29.44 3.09 1.3.8.86 1.2 1.98 1.2 3.36 0 .76-.17 1.5-.5 2.22-.33.72-.9 1.73-1.7 3.03A26.7 26.7 0 0 0 81.95 74c-.42.96-.72 1.8-.9 2.51zm-9.71-8.17c.44 0 .8.36.8.8v1a.8.8 0 0 1-.8.81h-4.66a.8.8 0 0 1-.81-.8v-1c0-.45.36-.81.8-.81h4.67zm-13.85 5.64c0-2.3-.56-3.45-1.68-3.45h-.29a.58.58 0 0 1-.58-.58V68.5c0-.32.26-.58.58-.58h.3c.87 0 1.34-.95 1.4-2.85-.06-2.06-.53-3.1-1.4-3.1-.72.04-1.15.39-1.31 1.06-.1.4-.44.69-.86.69h-.9a.88.88 0 0 1-.86-1.06c.16-.78.5-1.46.98-2.03a3.56 3.56 0 0 1 2.85-1.23 3.4 3.4 0 0 1 2.94 1.54 7.12 7.12 0 0 1 1.08 4.16c0 1.38-.25 2.5-.77 3.36-.23.4-.18.9.06 1.28a7.94 7.94 0 0 1 1.07 4.24c0 2.06-.39 3.61-1.17 4.65a3.7 3.7 0 0 1-3.12 1.56c-1.42 0-2.5-.45-3.24-1.35a4.8 4.8 0 0 1-1.03-2.29.88.88 0 0 1 .86-1.04h1.1c.4 0 .74.25.84.62.25.93.74 1.4 1.47 1.4 1.12.03 1.68-1.15 1.68-3.55zm-15.07 2.15c-.38.7-.88 1.06-1.5 1.06-.6 0-1.09-.35-1.47-1.06-.38-.71-.6-2.86-.69-6.44.08-3.58.31-5.73.7-6.44.37-.7.86-1.06 1.46-1.06.62 0 1.12.35 1.5 1.06.38.71.61 2.86.7 6.44-.09 3.58-.32 5.73-.7 6.44zm-1.44-16.76c-1.76 0-3 .82-3.72 2.46-.72 1.64-1.08 4.29-1.08 7.95 0 3.52.36 6.14 1.08 7.85.72 1.7 1.96 2.56 3.72 2.56 1.76 0 3-.85 3.72-2.56.72-1.71 1.08-4.33 1.08-7.85 0-3.66-.36-6.31-1.08-7.95a3.78 3.78 0 0 0-3.72-2.46z"/></g></svg>