<svg xmlns="http://www.w3.org/2000/svg" xmlns:xlink="http://www.w3.org/1999/xlink" width="209" height="104" viewBox="0 0 209 104">
  <defs>
    <polygon id="kb_title-a" points="0 .696 208.533 .696 208.533 54.264 0 54.264"/>
  </defs>
  <g fill="none" fill-rule="evenodd">
    <path fill="#C29A5B" d="M53.529,5.9625 C53.757,5.8425 54.339,5.1635 54.815,5.1105 C54.285,4.9355 53.765,4.2145 53.543,4.0675 C52.809,3.5875 52.433,4.8795 52.106,4.9335 C52.433,5.0295 52.791,6.3615 53.529,5.9625 L53.529,5.9625 Z M47.891,5.9495 C48.19,5.7835 48.956,4.8905 49.584,4.8165 C48.882,4.5845 48.201,3.6295 47.907,3.4475 C46.942,2.8095 46.442,4.5205 46.016,4.5865 C46.452,4.7105 46.917,6.4645 47.891,5.9495 L47.891,5.9495 Z M41.154,6.5445 C41.573,6.2965 42.632,4.9925 43.52,4.8545 C42.525,4.5655 41.522,3.2345 41.094,2.9885 C39.714,2.1375 39.053,4.5865 38.446,4.7105 C39.068,4.8585 39.783,7.3325 41.154,6.5445 L41.154,6.5445 Z M156.427,5.3235 C156.1,5.2695 155.724,3.9785 154.991,4.4585 C154.769,4.6055 154.248,5.3265 153.719,5.5015 C154.195,5.5535 154.777,6.2335 155.005,6.3535 C155.743,6.7525 156.1,5.4205 156.427,5.3235 L156.427,5.3235 Z M162.518,4.9775 C162.092,4.9105 161.592,3.2005 160.626,3.8385 C160.333,4.0195 159.652,4.9745 158.949,5.2085 C159.577,5.2805 160.344,6.1745 160.642,6.3405 C161.616,6.8565 162.082,5.1015 162.518,4.9775 L162.518,4.9775 Z M170.088,5.1015 C169.48,4.9775 168.82,2.5285 167.44,3.3795 C167.011,3.6255 166.009,4.9565 165.013,5.2455 C165.902,5.3825 166.961,6.6875 167.38,6.9345 C168.75,7.7225 169.466,5.2485 170.088,5.1015 L170.088,5.1015 Z M146.071,1.0015 C146.105,1.1225 146.121,1.2385 146.131,1.3565 L146.131,9.4685 C146.131,9.9145 146.492,10.2765 146.939,10.2765 L149.531,10.2765 C149.783,10.2765 149.987,10.0715 149.987,9.8205 L149.987,9.4215 C149.987,9.1705 149.783,8.9655 149.531,8.9655 L147.815,8.9655 C147.583,8.9655 147.396,8.7775 147.396,8.5455 L147.396,5.5055 C147.415,5.3975 147.49,5.3065 147.598,5.2755 L149.05,4.8515 C149.199,4.8075 149.302,4.6705 149.302,4.5165 L149.302,3.9255 C149.302,3.6915 149.079,3.5245 148.855,3.5895 L147.763,3.9085 C147.598,3.9565 147.435,3.8555 147.396,3.6985 L147.396,1.9115 C147.396,1.6805 147.584,1.4925 147.815,1.4925 L149.396,1.4925 C149.647,1.4925 149.852,1.2885 149.852,1.0365 L149.852,0.6375 C149.852,0.3855 149.647,0.1815 149.396,0.1815 L146.175,0.1815 C146.008,0.1815 145.886,0.3415 145.93,0.5045 L146.071,1.0015 Z M139.374,1.7035 C139.526,1.6355 139.685,1.5445 139.849,1.5125 C140.16,1.4535 140.42,1.7895 140.42,2.0725 L140.42,9.7715 C140.42,10.0495 140.645,10.2755 140.925,10.2755 L141.195,10.2755 C141.474,10.2755 141.7,10.0495 141.7,9.7715 L141.7,2.0455 C141.7,1.8625 141.796,1.6895 141.947,1.5895 C142.116,1.4755 142.321,1.4825 142.503,1.5635 L142.821,1.7035 C142.924,1.7485 143.026,1.6275 143.026,1.4585 L143.026,0.6865 C143.026,0.6865 143.026,0.6785 143.025,0.6785 C143.021,0.4035 142.798,0.1815 142.521,0.1815 L139.674,0.1815 C139.397,0.1815 139.174,0.4035 139.169,0.6785 L139.169,1.4585 C139.169,1.6265 139.271,1.7485 139.374,1.7035 L139.374,1.7035 Z M133.026,6.4025 L134.516,5.9675 L133.972,1.6235 C133.964,1.5415 133.896,1.4755 133.812,1.4755 L133.796,1.4755 C133.708,1.4755 133.638,1.5455 133.633,1.6305 L133.026,6.4025 Z M132.341,1.8345 C132.377,1.5525 132.357,1.2675 132.279,0.9945 L132.14,0.4955 C132.094,0.3335 132.216,0.1725 132.384,0.1725 L134.735,0.1725 C134.918,0.1725 135.072,0.3085 135.095,0.4905 L136.272,9.8075 C136.303,10.0565 136.109,10.2765 135.859,10.2765 L135.432,10.2765 C135.222,10.2765 135.045,10.1205 135.019,9.9115 L134.721,7.5505 C134.72,7.5395 134.714,7.5305 134.712,7.5215 L134.676,7.2395 L132.852,7.7725 L132.768,8.4355 L132.774,8.4345 L132.588,9.9115 C132.561,10.1205 132.384,10.2765 132.175,10.2765 L131.747,10.2765 C131.497,10.2765 131.303,10.0565 131.335,9.8075 L132.341,1.8345 Z M125.348,8.5475 C125.348,8.7785 125.535,8.9655 125.767,8.9655 L125.997,8.9655 C126.328,8.9755 126.604,8.7245 126.825,8.2125 C127.046,7.6995 127.162,6.7055 127.172,5.2295 C127.152,3.5415 127.036,2.4945 126.825,2.0875 C126.614,1.6805 126.338,1.4825 125.997,1.4925 L125.767,1.4925 C125.535,1.4925 125.348,1.6795 125.348,1.9105 L125.348,8.5475 Z M123.88,0.5045 C123.835,0.3415 123.956,0.1815 124.125,0.1815 L126.163,0.1815 C126.946,0.1815 127.521,0.5605 127.888,1.3185 C128.254,2.0775 128.437,3.3805 128.437,5.2295 C128.437,6.8865 128.254,8.1415 127.888,8.9955 C127.521,9.8495 126.946,10.2765 126.163,10.2765 L124.789,10.2765 C124.399,10.2765 124.083,9.9605 124.083,9.5705 L124.083,1.4005 C124.074,1.2665 124.058,1.1375 124.02,1.0015 L123.88,0.5045 Z M111.977,4.8445 C111.977,5.0345 112.203,5.1345 112.342,5.0045 C112.872,4.5065 113.389,3.8075 113.427,3.1785 C113.474,2.4075 112.931,1.7535 112.215,1.5355 C112.097,1.4995 111.977,1.5895 111.977,1.7135 L111.977,4.8445 Z M110.503,0.4975 C110.458,0.3355 110.58,0.1745 110.748,0.1745 C110.748,0.1745 111.622,0.1535 112.025,0.1915 C112.316,0.2175 112.604,0.2985 112.871,0.4105 C113.408,0.6365 113.876,1.0195 114.203,1.5025 C114.538,1.9955 114.717,2.5835 114.714,3.1785 C114.71,3.8375 114.413,4.5125 113.959,5.1365 C113.798,5.3585 113.736,5.6375 113.792,5.9055 L114.598,9.7275 C114.657,10.0105 114.442,10.2755 114.154,10.2755 L113.788,10.2755 C113.573,10.2755 113.388,10.1255 113.344,9.9155 L112.678,6.7565 C112.654,6.6455 112.523,6.5975 112.432,6.6685 C112.376,6.7115 112.319,6.7535 112.262,6.7955 C112.081,6.9265 111.977,7.1375 111.977,7.3605 L111.977,9.8435 C111.977,10.0825 111.783,10.2755 111.544,10.2755 L111.143,10.2755 C110.904,10.2755 110.711,10.0825 110.711,9.8435 L110.711,1.4505 C110.705,1.2955 110.686,1.1505 110.643,0.9965 L110.503,0.4975 Z M102.966,0.9755 C103.001,1.0995 103.017,1.2185 103.026,1.3395 L103.026,7.6685 C103.026,8.1815 103.086,8.5965 103.207,8.9125 C103.549,9.8215 104.221,10.2765 105.226,10.2765 C106.07,10.2765 106.682,9.9255 107.064,9.2245 C107.275,8.8295 107.38,8.3105 107.38,7.6685 L107.38,1.4595 C107.383,1.4605 107.385,1.4615 107.386,1.4625 L107.387,1.4625 C107.391,1.2945 107.41,1.1405 107.457,0.9755 L107.597,0.4855 C107.643,0.3265 107.522,0.1695 107.354,0.1695 L106.139,0.1695 C105.971,0.1695 105.848,0.3275 105.894,0.4855 L106.034,0.9755 C106.075,1.1215 106.093,1.2595 106.1,1.4055 L106.1,7.8305 C106.1,8.6015 105.809,8.9865 105.226,8.9865 C104.604,8.9865 104.292,8.6015 104.292,7.8305 L104.292,1.3715 C104.3,1.2385 104.317,1.1105 104.355,0.9755 L104.495,0.4855 C104.541,0.3275 104.419,0.1695 104.251,0.1695 L103.071,0.1695 C102.903,0.1695 102.78,0.3275 102.825,0.4855 L102.966,0.9755 Z M96.404,5.1835 C96.445,6.9815 96.56,8.0585 96.751,8.4145 C96.942,8.7715 97.188,8.9495 97.489,8.9495 C97.801,8.9495 98.051,8.7715 98.242,8.4145 C98.433,8.0585 98.549,6.9815 98.59,5.1835 C98.549,3.3845 98.433,2.3075 98.242,1.9515 C98.051,1.5945 97.801,1.4165 97.489,1.4165 C97.188,1.4165 96.942,1.5945 96.751,1.9515 C96.56,2.3075 96.445,3.3845 96.404,5.1835 L96.404,5.1835 Z M95.652,9.1685 C95.29,8.3095 95.109,6.9965 95.109,5.2285 C95.109,3.3905 95.29,2.0595 95.652,1.2355 C96.013,0.4125 96.635,0.0005 97.519,0.0005 C98.403,0.0005 99.026,0.4125 99.388,1.2355 C99.749,2.0595 99.93,3.3905 99.93,5.2285 C99.93,6.9965 99.749,8.3095 99.388,9.1685 C99.026,10.0275 98.403,10.4565 97.519,10.4565 C96.635,10.4565 96.013,10.0275 95.652,9.1685 L95.652,9.1685 Z M82.042,1.0015 C82.075,1.1225 82.091,1.2385 82.101,1.3565 L82.101,9.4685 C82.101,9.9145 82.463,10.2765 82.909,10.2765 L85.502,10.2765 C85.754,10.2765 85.958,10.0715 85.958,9.8205 L85.958,9.4215 C85.958,9.1705 85.754,8.9655 85.502,8.9655 L83.786,8.9655 C83.554,8.9655 83.367,8.7775 83.367,8.5455 L83.367,5.5055 C83.386,5.3975 83.461,5.3065 83.57,5.2755 L85.021,4.8515 C85.171,4.8075 85.273,4.6705 85.273,4.5165 L85.273,3.9255 C85.273,3.6915 85.05,3.5245 84.826,3.5895 L83.734,3.9085 C83.57,3.9565 83.405,3.8555 83.367,3.6985 L83.367,1.9115 C83.367,1.6805 83.555,1.4925 83.786,1.4925 L85.366,1.4925 C85.618,1.4925 85.822,1.2885 85.822,1.0365 L85.822,0.6375 C85.822,0.3855 85.618,0.1815 85.366,0.1815 L82.146,0.1815 C81.978,0.1815 81.856,0.3415 81.902,0.5045 L82.042,1.0015 Z M74.207,1.0015 C74.277,1.1535 74.32,1.2965 74.353,1.4495 L75.849,9.8035 C75.898,10.0775 76.136,10.2755 76.413,10.2755 L76.554,10.2755 C76.831,10.2755 77.069,10.0775 77.118,9.8035 L78.636,1.3275 C78.666,1.2195 78.7,1.1125 78.751,1.0015 L78.979,0.5035 C79.053,0.3415 78.96,0.1815 78.792,0.1815 L77.96,0.1815 C77.712,0.1815 77.499,0.3595 77.455,0.6045 L76.636,5.1945 C76.61,5.3415 76.398,5.3425 76.371,5.1955 L75.514,0.6005 C75.469,0.3575 75.258,0.1815 75.01,0.1815 L74.167,0.1815 C73.999,0.1815 73.905,0.3415 73.979,0.5045 L74.207,1.0015 Z M68.389,6.4025 L69.879,5.9675 L69.335,1.6235 C69.326,1.5415 69.259,1.4755 69.175,1.4755 L69.158,1.4755 C69.071,1.4755 69.001,1.5455 68.996,1.6305 L68.389,6.4025 Z M67.705,1.8345 C67.74,1.5525 67.719,1.2675 67.643,0.9945 L67.503,0.4955 C67.457,0.3335 67.579,0.1725 67.747,0.1725 L70.098,0.1725 C70.281,0.1725 70.435,0.3085 70.458,0.4905 L71.634,9.8075 C71.666,10.0565 71.472,10.2765 71.222,10.2765 L70.795,10.2765 C70.585,10.2765 70.408,10.1205 70.382,9.9115 L70.084,7.5505 C70.083,7.5395 70.077,7.5305 70.074,7.5215 L70.039,7.2395 L68.215,7.7725 L68.13,8.4355 L68.137,8.4345 L67.95,9.9115 C67.924,10.1205 67.747,10.2765 67.537,10.2765 L67.111,10.2765 C66.86,10.2765 66.666,10.0565 66.697,9.8075 L67.705,1.8345 Z M61.369,10.4045 C61.478,10.4225 61.586,10.4315 61.692,10.4315 C62.112,10.4315 62.508,10.2915 62.849,10.0185 C63.399,9.5785 63.772,8.7905 63.8,8.0095 C63.827,7.2175 63.638,6.3985 63.265,5.7035 C62.952,5.1175 62.571,4.5755 62.203,4.0515 C61.983,3.7385 61.769,3.4475 61.58,3.1385 C60.819,1.8935 61.131,1.5285 61.379,1.3755 C61.592,1.2435 61.792,1.2215 61.993,1.3085 C62.189,1.3925 62.362,1.5685 62.474,1.7855 C62.579,1.9865 62.809,2.0935 63.035,2.0535 L63.237,2.0185 C63.582,1.9575 63.773,1.5905 63.621,1.2805 C63.381,0.7885 62.983,0.3915 62.499,0.1825 C61.911,-0.0705 61.249,-0.0565 60.708,0.3355 C59.814,0.9825 59.501,2.2055 60.516,3.7915 C60.726,4.1185 60.95,4.4385 61.168,4.7485 C61.531,5.2655 61.875,5.7535 62.154,6.2745 C62.426,6.7835 62.565,7.3845 62.545,7.9665 C62.529,8.3955 62.328,8.8465 62.055,9.0655 C61.91,9.1815 61.759,9.2215 61.578,9.1915 C61.357,9.1545 61.135,9.0065 60.968,8.7855 C60.53,8.2005 60.549,7.3875 60.769,6.7385 C60.851,6.4965 60.744,6.2335 60.513,6.1155 L60.337,6.0245 C60.054,5.8795 59.698,6.0085 59.594,6.3055 C59.244,7.2985 59.237,8.5525 59.957,9.5125 C60.315,9.9895 60.829,10.3155 61.369,10.4045 L61.369,10.4045 Z M170.675,99.9035 L171.898,99.5465 L171.452,95.9835 C171.444,95.9175 171.389,95.8635 171.321,95.8635 L171.307,95.8635 C171.236,95.8635 171.178,95.9205 171.174,95.9905 L170.675,99.9035 Z M170.15,94.7955 L172.077,94.7955 C172.227,94.7955 172.354,94.9065 172.373,95.0555 L173.337,102.6955 C173.363,102.8995 173.204,103.0805 172.999,103.0805 L172.649,103.0805 C172.477,103.0805 172.332,102.9525 172.31,102.7815 L172.066,100.8455 C172.066,100.8365 172.061,100.8295 172.058,100.8205 L172.029,100.5895 L170.533,101.0265 L170.464,101.5695 L170.469,101.5695 L170.316,102.7815 C170.295,102.9525 170.15,103.0805 169.978,103.0805 L169.628,103.0805 C169.422,103.0805 169.263,102.8995 169.289,102.6955 L170.114,96.1575 C170.144,95.9265 170.127,95.6925 170.064,95.4685 L169.949,95.0595 C169.911,94.9265 170.011,94.7955 170.15,94.7955 L170.15,94.7955 Z M166.054,103.0805 L166.366,103.0805 C166.567,103.0805 166.729,102.9185 166.729,102.7175 L166.729,95.8805 C166.733,95.7405 166.748,95.6125 166.787,95.4745 L166.902,95.0665 C166.939,94.9335 166.84,94.8015 166.702,94.8015 L165.725,94.8015 C165.587,94.8015 165.487,94.9335 165.524,95.0665 L165.639,95.4745 C165.671,95.5885 165.685,95.6955 165.692,95.8085 L165.692,102.7175 C165.692,102.9185 165.853,103.0805 166.054,103.0805 L166.054,103.0805 Z M161.907,95.1765 L161.907,98.8495 C161.907,98.9345 161.789,98.9525 161.762,98.8735 L160.509,95.0595 C160.459,94.9065 160.315,94.8015 160.153,94.8015 L159.416,94.8015 C159.278,94.8015 159.178,94.9335 159.216,95.0665 L159.33,95.4745 C159.367,95.6045 159.382,95.7255 159.386,95.8555 L159.386,102.7055 C159.386,102.9125 159.554,103.0805 159.761,103.0805 L160.05,103.0805 C160.257,103.0805 160.425,102.9125 160.425,102.7055 L160.425,98.6495 C160.425,98.5655 160.543,98.5465 160.569,98.6275 L161.91,102.8195 C161.96,102.9755 162.104,103.0805 162.267,103.0805 L162.583,103.0805 C162.79,103.0805 162.957,102.9135 162.957,102.7055 L162.957,95.8795 C162.958,95.8795 162.958,95.8795 162.958,95.8805 C162.962,95.7405 162.978,95.6125 163.016,95.4745 L163.131,95.0665 C163.168,94.9335 163.069,94.8015 162.931,94.8015 L162.282,94.8015 C162.075,94.8015 161.907,94.9695 161.907,95.1765 L161.907,95.1765 Z M154.59,98.6265 C154.59,98.7815 154.776,98.8635 154.889,98.7575 C155.324,98.3485 155.748,97.7755 155.779,97.2605 C155.818,96.6275 155.372,96.0905 154.784,95.9125 C154.688,95.8825 154.59,95.9575 154.59,96.0585 L154.59,98.6265 Z M153.496,95.4695 L153.382,95.0615 C153.344,94.9285 153.444,94.7965 153.582,94.7965 C153.582,94.7965 154.299,94.7795 154.629,94.8105 C154.868,94.8325 155.104,94.8985 155.322,94.9905 C155.763,95.1755 156.148,95.4895 156.416,95.8855 C156.69,96.2895 156.837,96.7725 156.834,97.2605 C156.832,97.8005 156.588,98.3535 156.215,98.8655 C156.083,99.0475 156.032,99.2755 156.078,99.4955 L156.739,102.6295 C156.788,102.8615 156.612,103.0805 156.375,103.0805 L156.075,103.0805 C155.899,103.0805 155.747,102.9565 155.711,102.7845 L155.165,100.1945 C155.145,100.1025 155.037,100.0645 154.963,100.1215 C154.917,100.1565 154.87,100.1915 154.823,100.2265 C154.675,100.3345 154.59,100.5065 154.59,100.6895 L154.59,102.7255 C154.59,102.9215 154.431,103.0805 154.236,103.0805 L153.906,103.0805 C153.71,103.0805 153.552,102.9215 153.552,102.7255 L153.552,95.8425 C153.547,95.7155 153.532,95.5965 153.496,95.4695 L153.496,95.4695 Z M149.007,95.8145 C148.759,95.8145 148.558,95.9615 148.401,96.2535 C148.245,96.5455 148.15,97.4285 148.117,98.9035 C148.15,100.3785 148.245,101.2615 148.401,101.5535 C148.558,101.8465 148.759,101.9925 149.007,101.9925 C149.262,101.9925 149.468,101.8455 149.625,101.5535 C149.781,101.2615 149.876,100.3785 149.909,98.9035 C149.876,97.4285 149.781,96.5455 149.625,96.2535 C149.468,95.9615 149.262,95.8145 149.007,95.8145 L149.007,95.8145 Z M149.031,94.6535 C149.756,94.6535 150.267,94.9905 150.564,95.6665 C150.86,96.3415 151.008,97.4335 151.008,98.9405 C151.008,100.3905 150.86,101.4675 150.564,102.1715 C150.267,102.8765 149.756,103.2285 149.031,103.2285 C148.306,103.2285 147.796,102.8765 147.5,102.1715 C147.203,101.4675 147.055,100.3905 147.055,98.9405 C147.055,97.4335 147.203,96.3415 147.5,95.6665 C147.796,94.9915 148.306,94.6535 149.031,94.6535 L149.031,94.6535 Z M141.347,95.0665 L141.462,95.4745 C141.494,95.5885 141.508,95.6955 141.513,95.8075 L141.513,102.7265 C141.513,102.9215 141.673,103.0805 141.868,103.0805 L142.197,103.0805 C142.393,103.0805 142.551,102.9215 142.551,102.7265 L142.553,99.2095 C142.553,99.1025 142.624,99.0085 142.726,98.9785 L143.917,98.6315 C144.039,98.5955 144.123,98.4835 144.123,98.3565 L144.123,97.8715 C144.123,97.6815 143.94,97.5435 143.756,97.5965 L142.861,97.8585 C142.707,97.9035 142.553,97.7875 142.553,97.6285 L142.552,96.2585 C142.552,96.0475 142.722,95.8775 142.934,95.8775 L144.314,95.8775 C144.514,95.8775 144.677,95.7145 144.677,95.5135 L144.677,95.1655 C144.677,94.9645 144.514,94.8015 144.314,94.8015 L141.548,94.8015 C141.409,94.8015 141.31,94.9335 141.347,95.0665 L141.347,95.0665 Z M137.743,95.8085 L137.743,102.7175 C137.743,102.9185 137.905,103.0805 138.106,103.0805 L138.419,103.0805 C138.618,103.0805 138.781,102.9185 138.781,102.7175 L138.781,95.8805 C138.785,95.7405 138.8,95.6125 138.839,95.4745 L138.954,95.0665 C138.991,94.9335 138.891,94.8015 138.754,94.8015 L137.777,94.8015 C137.638,94.8015 137.539,94.9335 137.576,95.0665 L137.691,95.4745 C137.723,95.5885 137.737,95.6955 137.743,95.8085 L137.743,95.8085 Z M132.505,103.0785 L132.996,103.0785 C132.996,103.0795 132.996,103.0795 132.997,103.0805 L134.791,103.0805 C135.013,103.0805 135.193,102.9005 135.193,102.6785 L135.193,101.7895 C135.194,101.3675 134.697,101.6805 134.534,101.7665 C134.282,101.8975 134.008,101.9765 133.726,102.0045 L133.467,102.0045 C133.247,102.0045 133.069,101.8255 133.069,101.6065 L133.069,95.8295 C133.074,95.7085 133.089,95.5945 133.123,95.4735 L133.237,95.0645 C133.274,94.9315 133.175,94.8005 133.037,94.8005 L132.062,94.8005 C131.924,94.8005 131.824,94.9315 131.862,95.0645 L131.976,95.4735 C132.01,95.5955 132.025,95.7105 132.03,95.8325 L132.03,102.6045 C132.03,102.8665 132.243,103.0785 132.505,103.0785 L132.505,103.0785 Z M128.038,99.5465 L127.592,95.9835 C127.584,95.9175 127.529,95.8635 127.46,95.8635 L127.447,95.8635 C127.376,95.8635 127.318,95.9205 127.314,95.9905 L126.816,99.9035 L128.038,99.5465 Z M128.513,95.0555 L129.477,102.6955 C129.503,102.8995 129.344,103.0805 129.139,103.0805 L128.789,103.0805 C128.617,103.0805 128.472,102.9525 128.45,102.7815 L128.206,100.8455 C128.205,100.8365 128.201,100.8295 128.198,100.8205 L128.17,100.5895 L126.674,101.0265 L126.604,101.5695 L126.61,101.5695 L126.456,102.7815 C126.435,102.9525 126.29,103.0805 126.118,103.0805 L125.768,103.0805 C125.562,103.0805 125.403,102.8995 125.429,102.6955 L126.255,96.1575 C126.284,95.9265 126.267,95.6925 126.204,95.4685 L126.089,95.0595 C126.051,94.9265 126.151,94.7955 126.29,94.7955 L128.217,94.7955 C128.367,94.7955 128.494,94.9065 128.513,95.0555 L128.513,95.0555 Z M121.401,103.2225 C121.846,103.2225 122.235,103.0515 122.568,102.7095 C122.834,102.4375 122.995,102.0725 123.048,101.6135 C123.071,101.4175 122.911,101.2455 122.714,101.2455 L122.329,101.2455 C122.177,101.2455 122.039,101.3455 122.005,101.4935 C121.92,101.8635 121.727,102.0485 121.425,102.0485 C121.187,102.0655 120.989,101.9375 120.833,101.6655 C120.676,101.3935 120.573,100.4915 120.524,98.9595 C120.573,97.3205 120.67,96.3655 120.814,96.0935 C120.958,95.8215 121.141,95.6905 121.364,95.6975 C121.725,95.7045 121.943,95.8945 122.016,96.2685 C122.046,96.4205 122.187,96.5255 122.342,96.5255 L122.71,96.5255 C122.909,96.5255 123.072,96.3515 123.043,96.1535 C122.983,95.7375 122.817,95.4015 122.544,95.1485 C122.194,94.8225 121.813,94.6595 121.401,94.6595 C120.775,94.6595 120.305,94.9525 119.992,95.5375 C119.679,96.1225 119.514,97.2585 119.498,98.9475 C119.514,100.5215 119.662,101.6265 119.943,102.2645 C120.223,102.9035 120.709,103.2225 121.401,103.2225 L121.401,103.2225 Z M111.116,103.8915 C111.166,103.9455 111.264,103.9215 111.348,103.8665 C111.542,103.7395 111.687,103.5865 111.784,103.4055 C111.924,103.1465 112.002,102.9125 111.994,102.5465 C111.988,102.2085 111.713,101.9415 111.377,101.9415 C111.212,101.9415 111.07,102.0015 110.95,102.1205 C110.831,102.2405 110.771,102.3825 110.771,102.5465 C110.771,102.7955 110.909,102.9825 111.127,103.0905 C111.187,103.1215 111.254,103.1315 111.313,103.1605 C111.399,103.2025 111.436,103.3145 111.403,103.4015 C111.365,103.5025 111.273,103.5915 111.196,103.6625 C111.141,103.7135 111.048,103.8145 111.116,103.8915 L111.116,103.8915 Z M106.948,95.8145 C106.701,95.8145 106.5,95.9615 106.343,96.2535 C106.187,96.5455 106.092,97.4285 106.059,98.9035 C106.092,100.3785 106.187,101.2615 106.343,101.5535 C106.5,101.8465 106.701,101.9925 106.948,101.9925 C107.204,101.9925 107.41,101.8455 107.567,101.5535 C107.723,101.2615 107.818,100.3785 107.851,98.9035 C107.818,97.4285 107.723,96.5455 107.567,96.2535 C107.41,95.9615 107.204,95.8145 106.948,95.8145 L106.948,95.8145 Z M106.973,94.6535 C107.698,94.6535 108.209,94.9905 108.505,95.6665 C108.802,96.3415 108.95,97.4335 108.95,98.9405 C108.95,100.3905 108.802,101.4675 108.505,102.1715 C108.209,102.8765 107.698,103.2285 106.973,103.2285 C106.248,103.2285 105.738,102.8765 105.442,102.1715 C105.145,101.4675 104.997,100.3905 104.997,98.9405 C104.997,97.4335 105.145,96.3415 105.442,95.6665 C105.738,94.9915 106.248,94.6535 106.973,94.6535 L106.973,94.6535 Z M99.563,95.5375 C99.249,96.1225 99.085,97.2585 99.068,98.9475 C99.085,100.5215 99.233,101.6265 99.513,102.2645 C99.793,102.9035 100.279,103.2225 100.971,103.2225 C101.416,103.2225 101.805,103.0515 102.138,102.7095 C102.404,102.4375 102.564,102.0725 102.618,101.6135 C102.641,101.4175 102.482,101.2455 102.283,101.2455 L101.899,101.2455 C101.747,101.2455 101.609,101.3455 101.575,101.4935 C101.49,101.8635 101.297,102.0485 100.996,102.0485 C100.757,102.0655 100.559,101.9375 100.403,101.6655 C100.246,101.3935 100.143,100.4915 100.094,98.9595 C100.143,97.3205 100.24,96.3655 100.384,96.0935 C100.528,95.8215 100.712,95.6905 100.934,95.6975 C101.295,95.7045 101.512,95.8945 101.586,96.2685 C101.616,96.4205 101.758,96.5255 101.912,96.5255 L102.279,96.5255 C102.479,96.5255 102.642,96.3515 102.613,96.1535 C102.553,95.7375 102.387,95.4015 102.114,95.1485 C101.763,94.8225 101.383,94.6595 100.971,94.6595 C100.345,94.6595 99.875,94.9525 99.563,95.5375 L99.563,95.5375 Z M94.701,103.1855 C94.791,103.2005 94.879,103.2075 94.966,103.2075 C95.311,103.2075 95.635,103.0925 95.915,102.8685 C96.366,102.5075 96.673,101.8615 96.695,101.2215 C96.717,100.5715 96.562,99.9005 96.257,99.3305 C96,98.8495 95.688,98.4055 95.385,97.9755 C95.205,97.7185 95.03,97.4805 94.875,97.2265 C94.25,96.2065 94.507,95.9065 94.71,95.7805 C94.884,95.6735 95.049,95.6545 95.213,95.7265 C95.374,95.7955 95.515,95.9395 95.608,96.1175 C95.694,96.2825 95.882,96.3705 96.068,96.3375 L96.233,96.3085 C96.516,96.2585 96.673,95.9575 96.549,95.7035 C96.352,95.2995 96.025,94.9745 95.628,94.8025 C95.146,94.5955 94.603,94.6075 94.159,94.9285 C93.426,95.4595 93.17,96.4625 94.002,97.7625 C94.174,98.0305 94.358,98.2935 94.537,98.5465 C94.835,98.9705 95.116,99.3715 95.345,99.7985 C95.569,100.2155 95.683,100.7085 95.666,101.1865 C95.654,101.5375 95.488,101.9075 95.264,102.0875 C95.145,102.1825 95.021,102.2145 94.873,102.1915 C94.692,102.1605 94.509,102.0395 94.373,101.8575 C94.014,101.3785 94.029,100.7115 94.21,100.1795 C94.277,99.9805 94.189,99.7645 94,99.6685 L93.855,99.5935 C93.623,99.4745 93.332,99.5815 93.246,99.8235 C92.959,100.6385 92.952,101.6675 93.543,102.4545 C93.837,102.8455 94.259,103.1115 94.701,103.1855 L94.701,103.1855 Z M89.46,95.8085 L89.46,102.7175 C89.46,102.9185 89.623,103.0805 89.823,103.0805 L90.136,103.0805 C90.336,103.0805 90.498,102.9185 90.498,102.7175 L90.498,95.8805 C90.502,95.7405 90.518,95.6125 90.557,95.4745 L90.671,95.0665 C90.708,94.9335 90.609,94.8015 90.471,94.8015 L89.494,94.8015 C89.356,94.8015 89.256,94.9335 89.294,95.0665 L89.408,95.4745 C89.44,95.5885 89.454,95.6955 89.46,95.8085 L89.46,95.8085 Z M83.852,95.5375 C83.538,96.1225 83.374,97.2585 83.357,98.9475 C83.374,100.5215 83.522,101.6265 83.802,102.2645 C84.082,102.9035 84.568,103.2225 85.26,103.2225 C85.705,103.2225 86.094,103.0515 86.428,102.7095 C86.694,102.4375 86.854,102.0725 86.907,101.6135 C86.931,101.4175 86.771,101.2455 86.572,101.2455 L86.188,101.2455 C86.037,101.2455 85.898,101.3455 85.864,101.4935 C85.779,101.8635 85.586,102.0485 85.285,102.0485 C85.046,102.0655 84.848,101.9375 84.692,101.6655 C84.535,101.3935 84.432,100.4915 84.383,98.9595 C84.432,97.3205 84.529,96.3655 84.674,96.0935 C84.817,95.8215 85.001,95.6905 85.223,95.6975 C85.584,95.7045 85.802,95.8945 85.875,96.2685 C85.905,96.4205 86.047,96.5255 86.201,96.5255 L86.569,96.5255 C86.768,96.5255 86.931,96.3515 86.903,96.1535 C86.842,95.7375 86.676,95.4015 86.403,95.1485 C86.052,94.8225 85.672,94.6595 85.26,94.6595 C84.634,94.6595 84.165,94.9525 83.852,95.5375 L83.852,95.5375 Z M77.995,94.8015 L77.258,94.8015 C77.12,94.8015 77.02,94.9335 77.057,95.0665 L77.172,95.4745 C77.208,95.6045 77.223,95.7255 77.228,95.8555 L77.228,102.7055 C77.228,102.9125 77.396,103.0805 77.603,103.0805 L77.891,103.0805 C78.098,103.0805 78.266,102.9125 78.266,102.7055 L78.266,98.6495 C78.266,98.5655 78.385,98.5465 78.411,98.6275 L79.752,102.8195 C79.801,102.9755 79.946,103.0805 80.109,103.0805 L80.424,103.0805 C80.631,103.0805 80.799,102.9135 80.799,102.7055 L80.799,95.8795 L80.8,95.8805 L80.8,95.8805 C80.803,95.7405 80.82,95.6125 80.858,95.4745 L80.973,95.0665 C81.01,94.9335 80.91,94.8015 80.773,94.8015 L80.123,94.8015 C79.917,94.8015 79.749,94.9695 79.749,95.1765 L79.749,98.8495 C79.749,98.9345 79.631,98.9525 79.604,98.8735 L78.351,95.0595 C78.3,94.9065 78.156,94.8015 77.995,94.8015 L77.995,94.8015 Z M72.012,99.9035 L73.235,99.5465 L72.788,95.9835 C72.781,95.9175 72.726,95.8635 72.657,95.8635 L72.643,95.8635 C72.572,95.8635 72.514,95.9205 72.51,95.9905 L72.012,99.9035 Z M71.486,94.7955 L73.414,94.7955 C73.564,94.7955 73.691,94.9065 73.709,95.0555 L74.674,102.6955 C74.699,102.8995 74.541,103.0805 74.336,103.0805 L73.986,103.0805 C73.814,103.0805 73.669,102.9525 73.647,102.7815 L73.403,100.8455 C73.402,100.8365 73.397,100.8295 73.395,100.8205 L73.365,100.5895 L71.869,101.0265 L71.8,101.5695 L71.806,101.5695 L71.653,102.7815 C71.631,102.9525 71.486,103.0805 71.314,103.0805 L70.964,103.0805 C70.759,103.0805 70.6,102.8995 70.626,102.6955 L71.451,96.1575 C71.48,95.9265 71.463,95.6925 71.401,95.4685 L71.286,95.0595 C71.248,94.9265 71.348,94.7955 71.486,94.7955 L71.486,94.7955 Z M66.005,98.6265 C66.005,98.7815 66.191,98.8635 66.304,98.7575 C66.739,98.3485 67.163,97.7755 67.195,97.2605 C67.233,96.6275 66.788,96.0905 66.2,95.9125 C66.103,95.8825 66.005,95.9575 66.005,96.0585 L66.005,98.6265 Z M64.912,95.4695 L64.797,95.0615 C64.76,94.9285 64.86,94.7965 64.997,94.7965 C64.997,94.7965 65.714,94.7795 66.045,94.8105 C66.283,94.8325 66.52,94.8985 66.738,94.9905 C67.179,95.1755 67.563,95.4895 67.831,95.8855 C68.105,96.2895 68.252,96.7725 68.25,97.2605 C68.247,97.8005 68.003,98.3535 67.63,98.8655 C67.498,99.0475 67.447,99.2755 67.494,99.4955 L68.154,102.6295 C68.203,102.8615 68.027,103.0805 67.79,103.0805 L67.49,103.0805 C67.315,103.0805 67.162,102.9565 67.126,102.7845 L66.58,100.1945 C66.561,100.1025 66.453,100.0645 66.378,100.1215 C66.332,100.1565 66.285,100.1915 66.238,100.2265 C66.091,100.3345 66.005,100.5065 66.005,100.6895 L66.005,102.7255 C66.005,102.9215 65.846,103.0805 65.651,103.0805 L65.321,103.0805 C65.126,103.0805 64.967,102.9215 64.967,102.7255 L64.967,95.8425 C64.962,95.7155 64.947,95.5965 64.912,95.4695 L64.912,95.4695 Z M59.248,95.8075 L59.248,102.7265 C59.248,102.9215 59.407,103.0805 59.602,103.0805 L59.932,103.0805 C60.127,103.0805 60.286,102.9215 60.286,102.7265 L60.288,99.2095 C60.288,99.1025 60.358,99.0085 60.461,98.9785 L61.652,98.6315 C61.774,98.5955 61.858,98.4835 61.858,98.3565 L61.858,97.8715 C61.858,97.6815 61.674,97.5435 61.491,97.5965 L60.595,97.8585 C60.442,97.9035 60.288,97.7875 60.287,97.6285 L60.286,96.2585 C60.286,96.0475 60.457,95.8775 60.668,95.8775 L62.048,95.8775 C62.249,95.8775 62.411,95.7145 62.411,95.5135 L62.411,95.1655 C62.411,94.9645 62.249,94.8015 62.048,94.8015 L59.282,94.8015 C59.144,94.8015 59.044,94.9335 59.081,95.0665 L59.196,95.4745 C59.228,95.5885 59.241,95.6955 59.248,95.8075 L59.248,95.8075 Z M48.577,94.8015 L47.84,94.8015 C47.702,94.8015 47.603,94.9335 47.64,95.0665 L47.755,95.4745 C47.791,95.6045 47.806,95.7255 47.811,95.8555 L47.811,102.7055 C47.811,102.9125 47.978,103.0805 48.185,103.0805 L48.474,103.0805 C48.68,103.0805 48.849,102.9125 48.849,102.7055 L48.849,98.6495 C48.849,98.5655 48.967,98.5465 48.993,98.6275 L50.335,102.8195 C50.384,102.9755 50.529,103.0805 50.691,103.0805 L51.007,103.0805 C51.213,103.0805 51.382,102.9135 51.382,102.7055 L51.382,95.8795 C51.382,95.8795 51.382,95.8795 51.383,95.8805 L51.383,95.8805 C51.386,95.7405 51.402,95.6125 51.441,95.4745 L51.555,95.0665 C51.592,94.9335 51.493,94.8015 51.355,94.8015 L50.705,94.8015 C50.499,94.8015 50.331,94.9695 50.331,95.1765 L50.331,98.8495 C50.331,98.9345 50.213,98.9525 50.187,98.8735 L48.933,95.0595 C48.883,94.9065 48.739,94.8015 48.577,94.8015 L48.577,94.8015 Z M42.595,99.9035 L43.817,99.5465 L43.371,95.9835 C43.363,95.9175 43.308,95.8635 43.239,95.8635 L43.226,95.8635 C43.154,95.8635 43.096,95.9205 43.092,95.9905 L42.595,99.9035 Z M42.068,94.7955 L43.996,94.7955 C44.147,94.7955 44.273,94.9065 44.292,95.0555 L45.257,102.6955 C45.282,102.8995 45.123,103.0805 44.918,103.0805 L44.568,103.0805 C44.396,103.0805 44.251,102.9525 44.229,102.7815 L43.985,100.8455 C43.984,100.8365 43.979,100.8295 43.977,100.8205 L43.948,100.5895 L42.452,101.0265 L42.383,101.5695 L42.388,101.5695 L42.235,102.7815 C42.214,102.9525 42.069,103.0805 41.897,103.0805 L41.547,103.0805 C41.341,103.0805 41.182,102.8995 41.208,102.6955 L42.033,96.1575 C42.063,95.9265 42.046,95.6925 41.983,95.4685 L41.868,95.0595 C41.831,94.9265 41.93,94.7955 42.068,94.7955 L42.068,94.7955 Z M35.68,102.4545 C35.09,101.6675 35.096,100.6385 35.383,99.8235 C35.469,99.5815 35.76,99.4745 35.992,99.5935 L36.137,99.6685 C36.326,99.7645 36.414,99.9805 36.347,100.1795 C36.166,100.7115 36.151,101.3785 36.51,101.8575 C36.647,102.0395 36.829,102.1605 37.01,102.1915 C37.158,102.2145 37.282,102.1825 37.401,102.0875 C37.626,101.9075 37.79,101.5375 37.803,101.1865 C37.82,100.7085 37.706,100.2155 37.482,99.7985 C37.253,99.3715 36.972,98.9705 36.674,98.5465 C36.495,98.2935 36.311,98.0305 36.139,97.7625 C35.307,96.4625 35.563,95.4595 36.297,94.9285 C36.74,94.6075 37.283,94.5955 37.765,94.8025 C38.162,94.9745 38.489,95.2995 38.686,95.7035 C38.81,95.9575 38.654,96.2585 38.37,96.3085 L38.205,96.3375 C38.019,96.3705 37.831,96.2825 37.745,96.1175 C37.653,95.9395 37.511,95.7955 37.35,95.7265 C37.186,95.6545 37.022,95.6735 36.847,95.7805 C36.644,95.9065 36.387,96.2065 37.012,97.2265 C37.167,97.4805 37.342,97.7185 37.523,97.9755 C37.824,98.4055 38.137,98.8495 38.394,99.3305 C38.699,99.9005 38.855,100.5715 38.832,101.2215 C38.81,101.8615 38.503,102.5075 38.052,102.8685 C37.772,103.0925 37.448,103.2075 37.103,103.2075 C37.016,103.2075 36.928,103.2005 36.838,103.1855 C36.396,103.1115 35.974,102.8455 35.68,102.4545 L35.68,102.4545 Z"/>
    <g transform="translate(0 24.922)">
      <mask id="kb_title-b" fill="#fff">
        <use xlink:href="#kb_title-a"/>
      </mask>
      <path fill="#DCDCDC" d="M207.5256,12.9565 C207.5226,13.7035 207.4646,14.5645 207.5906,15.3095 C207.7546,16.2845 208.1036,16.5965 208.1966,17.2575 C208.2596,17.7225 207.5286,17.6625 207.1136,17.6805 C206.0676,17.7255 204.9396,17.2835 204.0646,16.7485 C202.7966,15.9735 201.9366,14.7565 201.2966,13.4355 C200.8416,12.4995 200.4636,11.4795 200.0526,10.5325 C199.8576,10.0845 198.4676,7.3125 197.8256,8.1055 C197.6886,8.2735 197.6466,8.5565 197.6246,8.7665 C197.4526,10.4585 197.4486,12.1435 197.4876,13.8425 C197.4926,14.0855 197.5056,14.3275 197.5266,14.5685 C197.5776,15.1305 197.6126,15.6155 198.0576,15.9985 C198.3676,16.2655 198.3116,16.7425 198.2386,17.1055 C198.1966,17.3215 198.1336,17.4535 197.9286,17.5325 C197.4936,17.6995 196.7476,17.5455 196.2816,17.5455 C195.6256,17.5465 194.9656,17.5425 194.3096,17.5455 C194.0366,17.5465 193.5316,17.6375 193.2966,17.4275 C193.0476,17.2045 193.1206,16.6275 193.1856,16.3385 C193.2616,16.0035 193.5486,15.7645 193.6466,15.4205 C193.7586,15.0215 193.8236,14.6095 193.8656,14.1985 C194.0646,12.2345 193.9546,6.2745 193.7606,5.2505 C193.6956,4.9025 193.6176,4.5805 193.4476,4.2695 C193.3436,4.0805 193.2376,3.9575 193.1926,3.7455 C193.0796,3.2335 193.2546,2.9095 193.7886,2.8925 C194.7966,2.8605 195.8986,2.8325 196.9016,2.9385 C198.9956,3.1585 201.1776,5.2835 202.2616,6.9715 C202.7696,7.7625 203.0146,8.6915 203.5746,9.4475 C203.6946,9.6105 203.9606,9.6245 203.9996,9.3945 C204.2066,8.2175 204.0646,6.7425 203.9086,5.5665 C203.8066,4.7995 203.1516,4.1555 203.3566,3.3545 C203.4966,2.8035 204.2816,2.9985 204.7626,3.0035 C205.6576,3.0145 206.7886,2.8825 207.6866,2.9765 C207.9106,3.0005 208.3226,2.9515 208.4646,3.1905 C208.5716,3.3665 208.5326,3.9575 208.4896,4.1305 C208.4046,4.4735 208.1426,4.8395 208.0326,5.1855 C207.5226,6.7575 207.6916,8.2415 207.6106,9.8705 C207.5636,10.8535 207.5316,11.9715 207.5256,12.9565 L207.5256,12.9565 Z M184.9326,11.7535 C184.5456,11.7535 183.8926,11.7895 183.5376,11.7795 C183.1286,11.7665 182.4756,11.7535 181.9416,11.7215 C181.4616,11.6925 181.8386,10.7395 181.9756,10.2935 C182.0606,10.0145 182.1546,9.7365 182.2596,9.4645 C182.3346,9.2675 182.4356,9.0855 182.5046,8.8855 C182.5636,8.7065 182.6076,8.5275 182.6836,8.3525 C182.7276,8.2475 182.7756,8.1425 182.8276,8.0405 C182.9286,7.8395 183.0486,7.6435 183.2156,7.4995 C183.5536,7.2095 183.7996,7.6115 183.9256,7.9325 C184.2066,8.6475 184.4906,9.3975 184.7126,10.1375 C184.8356,10.5505 185.3186,11.7535 184.9326,11.7535 L184.9326,11.7535 Z M189.7396,12.6635 C189.3606,11.9095 188.1316,8.9055 187.8766,8.1405 C187.6706,7.5175 187.5116,6.9485 187.2346,6.3535 C186.9746,5.7915 186.7836,5.2645 186.5846,4.6785 C186.4266,4.2155 187.5736,3.6155 186.9866,3.0455 C186.6296,2.6995 185.3636,2.8555 184.8966,2.8625 C184.1146,2.8745 183.0436,3.0335 182.2606,3.0445 C180.9606,3.0635 179.8166,2.8805 178.5126,2.9065 C178.2136,2.9115 177.9126,2.9245 177.6136,2.9125 C177.4976,2.9085 177.3796,2.9075 177.2696,2.9435 C176.9216,3.0615 176.9656,3.4845 176.9926,3.7765 C177.0406,4.2645 177.2136,4.7425 177.5486,5.1065 C177.8326,5.4125 178.2006,5.6145 178.5316,5.8595 C178.9606,6.1755 179.6946,6.2295 179.5416,6.7945 C179.2446,7.8845 178.7506,9.2155 178.2306,10.1955 C177.7786,11.0425 177.4456,11.9555 177.0566,12.8335 C176.6356,13.7875 176.2566,14.7825 175.7716,15.7065 C175.5586,16.1105 175.1166,16.6345 175.2676,17.1285 C175.4026,17.5715 175.9056,17.6055 176.2996,17.5985 C177.1026,17.5845 177.5976,17.4985 178.4066,17.5075 C178.9386,17.5135 179.4016,17.5995 179.7456,17.1375 C180.2436,16.4685 180.5686,15.0385 181.0356,15.0215 C181.1006,15.0185 181.4576,14.9945 181.5226,14.9935 C181.9166,14.9835 182.4536,14.9985 182.7436,14.9945 C183.0886,14.9875 183.3416,14.9755 183.6856,14.9675 C184.3736,14.9515 184.9936,15.0255 185.6826,14.9715 C186.1286,14.9755 186.3636,15.2375 186.4746,15.5995 C186.5756,15.9295 186.6856,16.2295 186.7586,16.5525 C186.8456,16.9375 186.9336,17.3915 187.3896,17.5185 C187.6456,17.5895 187.9276,17.5465 188.1916,17.5675 C188.8056,17.6135 189.4226,17.5755 190.0376,17.5385 C190.4366,17.5145 191.1246,17.6505 191.4436,17.3555 C191.6976,17.1225 191.5046,16.6245 191.4056,16.3595 C190.9386,15.1045 190.3376,13.8575 189.7396,12.6635 L189.7396,12.6635 Z M168.6656,3.7315 C168.6146,3.4325 168.5876,2.9655 168.9626,2.8935 C169.4006,2.8085 169.9596,2.8275 170.4046,2.8365 C170.7556,2.8455 171.1056,2.8585 171.4566,2.8715 C171.8066,2.8585 171.5706,2.8455 171.9216,2.8365 C172.3326,2.8275 173.1006,2.7565 173.4776,2.9335 C173.7416,3.0575 173.7006,3.4915 173.6596,3.7305 C173.6266,3.9345 173.4846,4.0795 173.3756,4.2445 C173.1326,4.6125 173.1676,5.1385 173.1616,5.5605 C173.1386,7.2185 173.0456,8.9145 173.1246,10.5705 C173.1536,11.2055 173.0576,11.8335 173.1086,12.4675 C173.1736,13.3115 173.0396,14.1675 173.1216,15.0025 C173.1396,15.1865 173.1006,15.7385 173.1956,15.8785 C173.3236,16.0645 173.5096,16.2135 173.5576,16.4125 C173.8276,17.5355 172.9806,17.5525 172.0936,17.5875 C171.6786,17.6055 171.8606,17.6015 171.4566,17.5865 C171.0526,17.6015 170.6466,17.6055 170.2316,17.5875 C169.3676,17.5525 168.4966,17.5365 168.7666,16.4125 C168.8156,16.2125 169.0016,16.0645 169.1296,15.8785 C169.2246,15.7385 169.1856,15.1865 169.2036,15.0025 C169.2856,14.1675 169.1516,13.3115 169.2166,12.4675 C169.2676,11.8335 169.1716,11.2055 169.2016,10.5705 C169.2796,8.9145 169.1886,7.2185 169.1636,5.5605 C169.1576,5.1375 169.1936,4.6125 168.9496,4.2445 C168.8396,4.0795 168.6996,3.9345 168.6656,3.7315 L168.6656,3.7315 Z M157.9596,8.8375 C157.9106,8.0605 158.0216,7.2785 158.0076,6.5055 C158.0406,6.0035 158.7026,6.0235 159.2606,5.9975 C159.7096,5.9765 160.1566,6.0215 160.6016,6.0615 C161.2576,6.1205 161.9916,6.1945 162.4276,6.7495 C162.8496,7.2855 163.0046,8.0505 162.9446,8.7185 C162.8756,9.4895 162.3936,10.0755 161.7206,10.4365 C161.1936,10.7195 160.8116,10.9585 160.1886,11.2515 C159.7836,11.4425 158.8706,11.8645 158.4156,11.9465 C157.9976,11.9745 158.0006,11.8565 157.9686,11.5275 C157.9636,11.4425 157.9566,11.3585 157.9516,11.2735 C157.9166,10.5575 158.0046,9.5545 157.9596,8.8375 L157.9596,8.8375 Z M153.9166,5.7895 C154.2186,8.8405 154.0726,11.9155 153.9316,14.9685 C153.9236,15.1415 153.8926,15.5545 153.8596,15.6695 C153.7916,15.9215 153.6106,16.1165 153.5256,16.3575 C153.4426,16.5915 153.3996,16.9955 153.5426,17.2235 C153.6106,17.3315 153.7216,17.3825 153.8436,17.4135 C154.2446,17.5195 154.9186,17.5925 155.3336,17.5975 C156.2336,17.6095 156.9806,17.5185 157.8836,17.5135 C158.6906,17.4765 158.7656,17.0305 158.5966,16.5795 C158.5276,16.3945 158.4176,16.2345 158.3226,16.0625 C158.2316,15.8995 158.1116,15.6255 158.1206,15.4345 C158.1226,15.3985 158.1416,15.3655 158.1636,15.3375 C158.3606,15.0715 158.7436,14.9755 159.0376,14.8595 C159.7216,14.5905 160.2276,14.3745 160.8516,14.1315 C161.0586,14.0515 161.2906,14.1705 161.3486,14.3845 C161.3956,14.5595 161.4386,14.7335 161.4976,14.8825 C161.7506,15.5205 162.0416,16.2205 162.5146,16.7215 C163.6646,17.9395 165.9556,17.7925 166.7966,16.2565 C167.0806,15.7395 167.2566,14.8535 166.8166,14.7255 C166.2756,14.5675 165.5556,14.4275 165.1176,14.0085 C164.7226,13.6315 164.2496,12.8815 164.5276,12.6605 C164.5626,12.6345 165.9786,11.4145 166.4406,10.6375 C166.8266,9.9875 166.8776,9.2185 166.9376,8.4865 C167.0196,7.5135 166.8036,6.6575 166.4776,5.7565 C166.2156,5.0345 165.9796,4.5385 165.4036,3.9945 C164.8326,3.4555 163.9646,3.0745 163.2086,2.8855 C162.2366,2.6435 161.2106,2.6795 160.2126,2.6735 C159.2666,2.6675 158.3196,2.6695 157.3726,2.6915 C156.7676,2.7055 156.1426,2.7535 155.5276,2.7785 C154.9586,2.8025 154.2936,2.6915 153.7476,2.8835 C153.4966,2.9735 153.3496,3.1615 153.3556,3.4335 C153.3656,3.8075 153.5656,4.0465 153.7006,4.3915 C153.8886,4.8675 153.8666,5.2915 153.9166,5.7895 L153.9166,5.7895 Z M142.8456,6.3905 C142.9126,5.8545 143.4466,5.8985 143.7226,5.8765 C144.1546,5.8425 144.8076,5.8465 145.2386,5.8785 C145.9276,5.9295 146.7036,6.0335 146.9236,6.8285 C147.0786,7.3875 147.1016,7.8745 146.8036,8.3295 C146.4706,8.8335 145.9356,8.8255 145.4156,8.8455 C144.7996,8.8685 144.0866,8.8475 143.4006,8.7995 C142.9966,8.7705 142.9276,8.7335 142.8916,8.2635 C142.8486,7.7445 142.7756,6.9565 142.8456,6.3905 L142.8456,6.3905 Z M147.4816,12.4895 C147.6576,13.0715 147.7056,13.4865 147.3666,13.9575 C146.9876,14.4825 146.3596,14.5675 145.7696,14.5875 C145.0686,14.6125 144.2596,14.5905 143.4796,14.5395 C143.0206,14.5095 142.9426,14.4715 142.9006,13.9825 C142.8536,13.4425 142.8106,12.5745 142.8916,11.9875 C142.9656,11.4295 143.5316,11.5225 143.8466,11.5005 C144.3356,11.4645 145.0776,11.4695 145.5686,11.5025 C146.3506,11.5555 147.2326,11.6635 147.4816,12.4895 L147.4816,12.4895 Z M138.6186,4.6565 C138.7496,4.8595 138.7386,5.0355 138.7996,5.2525 C138.8716,5.8845 138.9566,6.5075 138.9596,7.1535 C138.9626,7.9485 139.0026,8.7445 138.9926,9.5375 C138.9836,10.3845 139.0766,11.2165 139.0486,12.0645 C139.0326,12.5695 138.9986,13.0725 138.9796,13.5775 C138.9476,14.3745 139.1006,15.2685 138.7236,16.0145 C138.5946,16.2695 138.4046,16.5195 138.3726,16.8115 C138.3516,16.9995 138.4016,17.1845 138.5646,17.2955 C138.7156,17.3995 138.9126,17.4275 139.0916,17.4395 C139.4586,17.4635 139.8226,17.4285 140.1896,17.4635 C140.5546,17.4975 140.9176,17.5565 141.2876,17.5775 C142.7136,17.6565 144.1336,17.5295 145.5586,17.5715 C146.3126,17.5935 147.0746,17.5625 147.8136,17.3965 C148.4716,17.2505 149.2136,17.1025 149.7916,16.7445 C150.5806,16.2565 151.4456,15.5525 151.6556,14.6075 C151.9066,13.4665 151.8716,12.5215 151.3056,11.4915 C151.0596,11.0395 150.6856,10.6615 150.2606,10.3725 C150.1726,10.3115 149.1576,9.8095 149.1966,9.7075 C149.2376,9.6025 150.1786,9.1395 150.5746,8.6815 C151.2566,7.8915 151.3616,6.9785 151.1826,5.9525 C151.1216,5.5975 151.0046,5.2515 150.8296,4.9375 C150.6646,4.6445 150.4496,4.3815 150.1986,4.1585 C149.9416,3.9275 149.6506,3.7385 149.3406,3.5835 C149.0116,3.4165 148.6636,3.2885 148.3076,3.1855 C147.9266,3.0755 147.5396,2.9955 147.1476,2.9355 C146.7366,2.8725 146.3226,2.8305 145.9096,2.8025 C145.4886,2.7745 145.0676,2.7625 144.6446,2.7595 C144.2306,2.7565 143.8176,2.7635 143.4036,2.7755 C143.0146,2.7875 142.6236,2.8045 142.2356,2.8235 C141.8866,2.8395 141.5386,2.8585 141.1906,2.8725 C140.5086,2.9015 139.8196,2.9165 139.1386,2.8735 C138.8486,2.8555 138.4186,2.8935 138.2066,3.1235 C137.9786,3.3695 138.0396,3.7555 138.1676,4.0295 C138.2676,4.2475 138.4896,4.4575 138.6186,4.6565 L138.6186,4.6565 Z M117.6726,11.2025 C117.8636,9.3495 118.9366,7.8235 120.5266,6.8855 C121.0786,6.5605 120.8426,6.5415 120.6056,6.0665 C119.2616,3.3695 121.6866,-0.1305 124.7366,0.8715 C125.9396,1.2655 126.8626,2.5655 126.8096,3.8485 C126.7866,4.4255 126.6486,4.9595 126.1386,5.2885 C125.7296,5.5535 125.1946,5.6395 124.7226,5.5125 C124.2476,5.3845 123.8866,5.0755 123.7146,4.6055 C123.7016,4.5695 123.6896,4.5315 123.6926,4.4925 C123.7016,4.3715 123.8336,4.3825 123.9216,4.3735 C124.1196,4.3545 124.3036,4.3065 124.4296,4.1435 C124.8126,3.6505 124.3566,3.0075 123.7946,2.9895 C123.0156,2.9645 122.5596,3.4425 122.5076,4.2185 C122.4816,4.5885 122.5126,5.0535 122.7516,5.3565 C122.9546,5.6175 123.3106,5.6725 123.6076,5.7495 C123.7946,5.7975 123.8106,6.1415 123.8226,6.2975 C123.8396,6.5145 123.7956,6.7325 123.7076,6.9305 C123.5296,7.3285 123.2126,7.5105 122.8726,7.7585 C122.3756,8.1215 121.7836,8.5275 121.3236,8.9295 C120.4746,9.6675 119.9076,10.7495 119.9436,11.8885 C119.9776,12.9455 120.5066,13.9195 121.3706,14.5285 C123.1436,15.7815 126.2796,15.3185 127.4626,13.4305 C127.8386,12.8325 127.9556,12.0955 127.8836,11.4005 C127.8036,10.6195 127.4626,10.0205 127.0296,9.3845 C126.9776,9.3095 126.9246,9.2315 126.8436,9.1885 C126.6096,9.0625 126.2766,9.3505 126.0806,9.4525 C125.2646,9.8765 124.3936,10.1825 123.8426,10.9745 C123.5026,11.4645 123.6376,12.1045 124.2786,12.1885 C124.7036,12.2435 125.1186,12.1435 125.4456,11.8615 C125.7326,11.6135 125.9076,11.2285 126.2356,11.0265 C126.3796,10.9385 126.5706,10.8855 126.7316,10.9615 C126.9506,11.0645 126.9656,11.3595 126.9916,11.5855 C127.2576,13.8765 124.3486,14.9115 122.6396,13.8245 C121.8576,13.3265 121.3386,12.4205 121.3266,11.4895 C121.3126,10.5315 121.9586,9.6475 122.6216,9.0175 C123.8406,7.8575 125.4396,7.2715 126.9366,6.5245 C127.2776,6.3545 127.6606,6.1625 127.9326,5.8895 C128.2626,5.5575 128.3066,5.0015 128.2756,4.5555 C128.2616,4.3625 128.1446,3.9155 128.3206,3.7655 C128.5016,3.6095 128.8846,3.8615 129.0416,3.9555 C129.3196,4.1215 129.5236,4.2915 129.6846,4.4915 C130.4046,5.4295 130.1546,6.8565 129.3286,7.6235 C129.2006,7.7435 128.8386,7.8975 128.8906,8.1145 C128.9226,8.2415 129.0516,8.3355 129.1296,8.4355 C129.2206,8.5525 129.3046,8.6745 129.3816,8.8005 C129.5386,9.0515 129.6716,9.3155 129.7816,9.5895 C129.9996,10.1295 130.1256,10.7145 130.1646,11.2875 C130.2346,12.3305 130.0226,13.3965 129.5416,14.3145 C128.0286,17.2145 124.0616,18.2315 121.1666,17.0185 C118.8936,16.0655 117.4176,13.6815 117.6726,11.2025 L117.6726,11.2025 Z M97.8796,15.7945 C98.1516,15.2215 98.1176,14.5815 98.1056,13.9645 C98.0936,13.3515 98.1596,12.7355 98.1836,12.1235 C98.2346,10.8135 98.2376,9.5025 98.2346,8.1915 C98.2326,7.4055 98.1596,6.6225 98.0566,5.8425 C97.9926,5.3515 98.0186,4.9885 97.8346,4.5475 C97.6466,4.0965 97.2956,3.4075 97.7766,2.9705 C97.8556,2.8995 97.9306,2.8735 98.0156,2.8585 C98.2316,2.8185 98.4536,2.8045 98.6726,2.8015 C101.4456,2.7565 104.2926,2.6155 107.0596,2.7745 C108.1926,2.8395 108.4796,2.7685 108.7256,3.3525 C108.8446,3.6335 109.1296,4.8095 109.2006,5.1135 C109.2916,5.5105 109.3006,5.9505 109.0026,6.2575 C108.9696,6.2905 108.9316,6.3025 108.8966,6.3035 C108.8836,6.3145 108.8706,6.3215 108.8496,6.3215 C108.2136,6.2995 107.7546,5.9725 107.1676,5.7945 C106.0896,5.4685 104.8576,5.6895 103.7416,5.6405 C103.2206,5.6175 102.5256,5.6375 102.2466,6.1645 C102.0626,6.5125 101.8836,9.1845 102.7596,8.8145 C104.1306,8.2355 105.3996,7.5895 106.8926,7.3635 C107.4156,7.2845 107.8106,7.1555 107.9936,7.7065 C108.2136,8.3665 108.0636,9.5195 107.9586,10.0145 C107.8546,10.5055 107.1126,11.5975 106.4026,11.8245 C106.3406,11.8595 106.2766,11.8895 106.2136,11.9135 C105.8616,12.0465 105.7596,11.9495 105.5366,11.6915 C105.1896,11.2885 104.9656,11.0155 104.4256,11.0715 C103.7906,11.1385 102.7306,11.6015 102.3816,12.1695 C102.0516,12.7095 102.0626,13.4905 102.4176,14.0155 C102.7146,14.4555 103.3616,14.3665 103.8626,14.4175 C104.6466,14.4965 105.4236,14.3695 106.2066,14.3715 C106.9516,14.3735 108.1056,14.1675 108.8016,13.9355 C109.0526,13.8505 109.4006,13.6625 109.6216,13.8685 C110.0136,14.2355 109.4746,15.2545 109.3586,15.6525 C109.2246,16.1095 109.1506,16.5465 108.9176,16.9685 C108.7546,17.2645 108.5696,17.4515 108.2246,17.4885 C107.5326,17.5625 106.7976,17.5485 106.0986,17.5485 C104.1176,17.5485 102.0626,17.4835 100.3246,17.4955 C99.7516,17.4985 99.1816,17.5195 98.6096,17.4635 C98.2606,17.4305 97.7546,17.5005 97.5566,17.1335 C97.2856,16.6325 97.6906,16.1935 97.8796,15.7945 L97.8796,15.7945 Z M81.7396,8.5365 C81.9676,6.9335 82.9356,5.1445 84.2276,4.1595 C85.1296,3.4735 86.3816,2.8165 87.4716,2.5065 C88.9766,2.0755 90.6176,2.1305 92.1296,2.5065 C93.8086,2.9215 95.7676,4.1745 95.7966,6.1595 C95.8196,7.7315 94.5216,8.9995 93.1836,9.6165 C92.7256,9.8275 91.1406,10.3945 90.8856,9.6225 C90.7776,9.2955 91.1576,8.7545 91.2656,8.4985 C91.9846,6.7915 90.5136,5.7875 88.9176,6.0275 C87.5566,6.2325 86.4136,7.3055 86.0316,8.6135 C85.7506,9.5755 85.8546,10.6455 86.1866,11.5795 C86.4636,12.3545 86.7956,13.0125 87.5106,13.4685 C88.1406,13.8685 88.8866,14.0635 89.6186,14.1625 C90.9956,14.3485 92.2836,13.6915 93.2116,12.7465 C93.5716,12.3805 94.5796,13.1695 94.8416,13.4425 C95.0686,13.6775 95.4476,14.0285 95.6916,14.3955 L95.6916,14.3945 C95.8296,14.6025 95.9246,14.8155 95.9246,15.0165 C95.9226,15.9635 94.3936,16.6565 93.6796,16.9795 C90.9176,18.2315 87.0806,18.0945 84.6416,16.1955 C82.4206,14.4645 81.3446,11.3015 81.7396,8.5365 L81.7396,8.5365 Z M71.7936,10.2935 C71.8796,10.0145 71.9736,9.7365 72.0776,9.4645 C72.1516,9.2675 72.2546,9.0855 72.3226,8.8855 C72.3816,8.7065 72.4266,8.5275 72.5016,8.3525 C72.5466,8.2475 72.5936,8.1425 72.6456,8.0405 C72.7466,7.8395 72.8676,7.6435 73.0336,7.4995 C73.3716,7.2095 73.6186,7.6115 73.7436,7.9325 C74.0236,8.6475 74.3076,9.3975 74.5296,10.1375 C74.6536,10.5505 75.1376,11.7535 74.7506,11.7535 C74.3636,11.7535 73.7116,11.7895 73.3546,11.7795 C72.9456,11.7665 72.2946,11.7535 71.7606,11.7215 C71.2786,11.6925 71.6566,10.7395 71.7936,10.2935 L71.7936,10.2935 Z M66.1176,17.5985 C66.9206,17.5845 67.4166,17.4985 68.2246,17.5075 C68.7566,17.5135 69.2196,17.5995 69.5636,17.1375 C70.0616,16.4685 70.3866,15.0385 70.8546,15.0215 C70.9186,15.0185 71.2756,14.9945 71.3396,14.9935 C71.7346,14.9835 72.2706,14.9985 72.5616,14.9945 C72.9066,14.9875 73.1596,14.9755 73.5046,14.9675 C74.1906,14.9515 74.8116,15.0255 75.5006,14.9715 C75.9456,14.9755 76.1816,15.2375 76.2926,15.5995 C76.3936,15.9295 76.5046,16.2295 76.5766,16.5525 C76.6636,16.9375 76.7526,17.3915 77.2086,17.5185 C77.4636,17.5895 77.7456,17.5465 78.0096,17.5675 C78.6236,17.6135 79.2406,17.5755 79.8546,17.5385 C80.2546,17.5145 80.9416,17.6505 81.2616,17.3555 C81.5146,17.1225 81.3226,16.6245 81.2236,16.3595 C80.7566,15.1045 80.1536,13.8575 79.5566,12.6635 C79.1786,11.9095 77.9496,8.9055 77.6946,8.1405 C77.4876,7.5175 77.3296,6.9485 77.0526,6.3535 C76.7936,5.7915 76.6006,5.2645 76.4026,4.6785 C76.2456,4.2155 77.3926,3.6155 76.8056,3.0455 C76.4476,2.6995 75.1816,2.8555 74.7146,2.8625 C73.9336,2.8745 72.8606,3.0335 72.0796,3.0445 C70.7776,3.0635 69.6336,2.8805 68.3316,2.9065 C68.0316,2.9115 67.7306,2.9245 67.4316,2.9125 C67.3166,2.9085 67.1976,2.9075 67.0886,2.9435 C66.7386,3.0615 66.7826,3.4845 66.8116,3.7765 C66.8586,4.2645 67.0316,4.7425 67.3666,5.1065 C67.6496,5.4125 68.0186,5.6145 68.3496,5.8595 C68.7776,6.1755 69.5126,6.2295 69.3586,6.7945 C69.0626,7.8845 68.5686,9.2155 68.0476,10.1955 C67.5966,11.0425 67.2636,11.9555 66.8756,12.8335 C66.4536,13.7875 66.0746,14.7825 65.5896,15.7065 C65.3776,16.1105 64.9346,16.6345 65.0846,17.1285 C65.2196,17.5715 65.7236,17.6055 66.1176,17.5985 L66.1176,17.5985 Z M55.3416,6.9815 C55.3366,6.7135 55.3516,6.3265 55.5616,6.1375 C55.8196,5.9025 56.2076,5.9315 56.5216,5.9175 C57.7376,5.8645 59.2756,5.8025 60.1586,6.9175 C60.5856,7.4565 60.8096,8.0825 60.9036,8.7825 C61.1906,10.8865 58.6836,14.3435 56.0736,14.4805 C55.2096,14.5255 55.4386,13.8055 55.3906,12.9735 C55.3116,11.6205 55.4496,10.2705 55.3586,8.9205 C55.3586,8.9165 55.3586,8.9125 55.3576,8.9095 C55.3136,8.2685 55.3576,7.6235 55.3416,6.9815 L55.3416,6.9815 Z M50.9986,5.0035 C51.5026,5.5515 51.5066,6.4565 51.5266,7.1735 C51.5516,8.1005 51.5836,9.0725 51.5356,9.9975 C51.4966,10.7635 51.6276,11.5315 51.5546,12.2855 C51.4816,13.0305 51.5146,13.7835 51.4366,14.5315 C51.3516,15.3315 50.5216,16.0755 50.9326,16.9225 C51.1626,17.3965 51.5976,17.3195 52.0416,17.3835 C52.4986,17.4485 52.9626,17.4855 53.4246,17.5005 C54.6996,17.5415 55.3996,17.4675 56.6706,17.3905 C59.7826,17.2005 62.2206,15.6215 63.5886,13.0565 C64.0986,12.1005 64.4456,11.0515 64.6546,9.9905 C64.8006,9.2535 64.8206,8.5205 64.7246,7.8215 C64.4356,5.7385 63.1036,3.9505 60.9116,3.2295 C58.9706,2.5915 57.1436,2.9815 55.1716,2.9355 C54.0846,2.9095 53.0826,2.7775 51.9636,2.7975 C51.6646,2.8045 51.3626,2.8165 51.0636,2.8045 C50.9476,2.8005 50.8296,2.7995 50.7196,2.8365 C50.3706,2.9545 50.4156,3.3775 50.4426,3.6705 C50.4906,4.1595 50.6636,4.6385 50.9986,5.0035 L50.9986,5.0035 Z M36.6216,17.5455 C35.9636,17.5465 35.3056,17.5425 34.6486,17.5455 C34.3756,17.5465 33.8706,17.6375 33.6366,17.4275 C33.3866,17.2045 33.4606,16.6275 33.5256,16.3385 C33.6016,16.0035 33.8876,15.7645 33.9856,15.4205 C34.0986,15.0215 34.1626,14.6095 34.2046,14.1985 C34.4036,12.2345 34.2936,6.2745 34.1006,5.2505 C34.0346,4.9025 33.9566,4.5805 33.7866,4.2695 C33.6836,4.0805 33.5776,3.9575 33.5306,3.7455 C33.4186,3.2335 33.5926,2.9095 34.1276,2.8925 C35.1356,2.8605 36.2376,2.8325 37.2416,2.9385 C39.3356,3.1585 41.5176,5.2835 42.6016,6.9715 C43.1086,7.7625 43.3536,8.6915 43.9136,9.4475 C44.0336,9.6105 44.2986,9.6245 44.3386,9.3945 C44.5466,8.2175 44.4036,6.7425 44.2476,5.5665 C44.1466,4.7995 43.4906,4.1555 43.6956,3.3545 C43.8356,2.8035 44.6206,2.9985 45.1016,3.0035 C45.9966,3.0145 47.1276,2.8825 48.0256,2.9765 C48.2496,3.0005 48.6616,2.9515 48.8036,3.1905 C48.9106,3.3665 48.8706,3.9575 48.8286,4.1305 C48.7436,4.4735 48.4826,4.8395 48.3706,5.1855 C47.8616,6.7575 48.0296,8.2415 47.9506,9.8705 C47.9026,10.8535 47.8706,11.9715 47.8656,12.9565 C47.8616,13.7035 47.8036,14.5645 47.9296,15.3095 C48.0946,16.2845 48.4426,16.5965 48.5356,17.2575 C48.5996,17.7225 47.8686,17.6625 47.4536,17.6805 C46.4066,17.7255 45.2776,17.2835 44.4036,16.7485 C43.1366,15.9735 42.2756,14.7565 41.6346,13.4355 C41.1806,12.4995 40.8036,11.4795 40.3916,10.5325 C40.1976,10.0845 38.8066,7.3125 38.1646,8.1055 C38.0266,8.2735 37.9856,8.5565 37.9636,8.7665 C37.7916,10.4585 37.7876,12.1435 37.8266,13.8425 C37.8316,14.0855 37.8446,14.3275 37.8656,14.5685 C37.9156,15.1305 37.9516,15.6155 38.3976,15.9985 C38.7076,16.2655 38.6506,16.7425 38.5776,17.1055 C38.5346,17.3215 38.4736,17.4535 38.2676,17.5325 C37.8326,17.6995 37.0856,17.5455 36.6216,17.5455 L36.6216,17.5455 Z M25.2716,11.7535 C24.8846,11.7535 24.2326,11.7895 23.8756,11.7795 C23.4666,11.7665 22.8156,11.7535 22.2816,11.7215 C21.7996,11.6925 22.1786,10.7395 22.3156,10.2935 C22.4006,10.0145 22.4946,9.7365 22.5986,9.4645 C22.6726,9.2675 22.7756,9.0855 22.8436,8.8855 C22.9036,8.7065 22.9476,8.5275 23.0226,8.3525 C23.0676,8.2475 23.1146,8.1425 23.1666,8.0405 C23.2676,7.8395 23.3886,7.6435 23.5546,7.4995 C23.8926,7.2095 24.1396,7.6115 24.2646,7.9325 C24.5446,8.6475 24.8296,9.3975 25.0506,10.1375 C25.1746,10.5505 25.6586,11.7535 25.2716,11.7535 L25.2716,11.7535 Z M30.0776,12.6635 C29.6996,11.9095 28.4706,8.9055 28.2156,8.1405 C28.0086,7.5175 27.8506,6.9485 27.5746,6.3535 C27.3146,5.7915 27.1216,5.2645 26.9236,4.6785 C26.7666,4.2155 27.9136,3.6155 27.3266,3.0455 C26.9686,2.6995 25.7026,2.8555 25.2356,2.8625 C24.4546,2.8745 23.3816,3.0335 22.6006,3.0445 C21.2986,3.0635 20.1546,2.8805 18.8526,2.9065 C18.5536,2.9115 18.2516,2.9245 17.9526,2.9125 C17.8376,2.9085 17.7186,2.9075 17.6086,2.9435 C17.2596,3.0615 17.3036,3.4845 17.3326,3.7765 C17.3796,4.2645 17.5526,4.7425 17.8876,5.1065 C18.1716,5.4125 18.5396,5.6145 18.8716,5.8595 C19.2986,6.1755 20.0336,6.2295 19.8796,6.7945 C19.5836,7.8845 19.0896,9.2155 18.5686,10.1955 C18.1176,11.0425 17.7846,11.9555 17.3966,12.8335 C16.9746,13.7875 16.5956,14.7825 16.1106,15.7065 C15.8986,16.1105 15.4556,16.6345 15.6056,17.1285 C15.7406,17.5715 16.2446,17.6055 16.6386,17.5985 C17.4416,17.5845 17.9376,17.4985 18.7456,17.5075 C19.2776,17.5135 19.7406,17.5995 20.0846,17.1375 C20.5836,16.4685 20.9076,15.0385 21.3756,15.0215 C21.4396,15.0185 21.7966,14.9945 21.8606,14.9935 C22.2556,14.9835 22.7916,14.9985 23.0826,14.9945 C23.4276,14.9875 23.6806,14.9755 24.0256,14.9675 C24.7126,14.9515 25.3336,15.0255 26.0216,14.9715 C26.4666,14.9755 26.7036,15.2375 26.8136,15.5995 C26.9146,15.9295 27.0256,16.2295 27.0976,16.5525 C27.1846,16.9375 27.2736,17.3915 27.7296,17.5185 C27.9846,17.5895 28.2666,17.5465 28.5296,17.5675 C29.1446,17.6135 29.7616,17.5755 30.3756,17.5385 C30.7756,17.5145 31.4636,17.6505 31.7826,17.3555 C32.0366,17.1225 31.8436,16.6245 31.7446,16.3595 C31.2776,15.1045 30.6756,13.8575 30.0776,12.6635 L30.0776,12.6635 Z M10.3846,8.5445 C10.1166,8.8015 10.0106,9.1845 10.1136,9.5415 C10.3416,10.3385 10.5036,11.1675 10.7586,11.9535 C10.8596,12.2615 10.9646,12.5615 11.0846,12.8575 C11.0896,12.8615 11.0916,12.8695 11.0916,12.8755 C11.5656,14.0305 12.3176,14.3945 13.4616,14.7295 C13.9016,14.8575 13.7246,15.7445 13.4416,16.2605 C12.8126,17.4075 11.3276,17.7995 10.1416,17.3635 C8.6696,16.8225 7.9976,14.9045 7.6836,13.5025 C7.5786,13.0345 7.4616,12.5675 7.3516,12.0985 C7.2726,11.7675 6.8796,11.6245 6.6086,11.8305 C6.4886,11.9205 6.3716,12.0105 6.2696,12.0875 C5.7246,12.5015 5.3296,12.8065 5.0606,13.0155 C4.7666,13.2435 4.6056,13.5985 4.6246,13.9695 C4.6526,14.4785 4.7036,14.9865 4.7876,15.4885 C4.7896,15.4995 4.7926,15.5105 4.7936,15.5215 C4.8716,15.9255 5.0996,16.2035 5.2416,16.5845 C5.4106,17.0355 5.3356,17.4805 4.5286,17.5185 C3.6246,17.5235 2.8776,17.6145 1.9766,17.6025 C1.5626,17.5975 0.8886,17.5235 0.4886,17.4185 C0.3676,17.3865 0.2566,17.3355 0.1886,17.2275 C0.0436,16.9995 0.0866,16.5955 0.1696,16.3625 C0.2556,16.1215 0.4366,15.9255 0.5046,15.6745 C0.5366,15.5585 0.5676,15.1465 0.5766,14.9735 C0.7176,11.9205 0.8626,8.8455 0.5606,5.7935 C0.5106,5.2965 0.5336,4.8725 0.3466,4.3955 C0.2096,4.0505 0.0096,3.8125 0.0006,3.4385 C-0.0064,3.1655 0.1406,2.9775 0.3926,2.8885 C0.9396,2.6955 1.5236,2.8085 2.0866,2.7865 C2.7406,2.7615 3.3926,2.7125 4.0476,2.6945 C4.1266,2.6925 4.2546,2.6935 4.3336,2.7035 C4.6496,2.7375 5.2216,2.6555 5.3256,3.0475 C5.3876,3.2775 5.3126,3.6285 5.2056,3.8385 C5.0186,4.2065 4.7666,4.3905 4.6996,4.8335 C4.6056,5.4895 4.6886,6.1515 4.6516,6.8105 C4.6246,7.3045 4.6126,7.7995 4.6086,8.2945 C4.6056,8.5525 4.8826,8.6715 5.1076,8.5465 C5.5646,8.2895 6.1376,7.8945 6.4166,7.6615 C8.4256,5.9905 9.0506,5.2895 10.1446,3.8035 C10.4086,3.4445 10.7516,3.2805 11.1916,3.1865 C11.5596,3.1085 13.0326,2.8765 13.6986,3.1375 C13.9116,3.2225 14.0426,3.3555 14.0256,3.5615 C13.9616,4.3835 13.5026,5.1765 13.0296,5.8285 C12.5996,6.4225 12.2786,6.8035 11.7336,7.2885 C11.2746,7.6955 10.8286,8.1195 10.3846,8.5445 L10.3846,8.5445 Z M166.0296,37.3225 C166.4096,36.6125 166.9006,36.2575 167.5006,36.2575 C168.1206,36.2575 168.6206,36.6125 169.0006,37.3225 C169.3806,38.0325 169.6106,40.1785 169.6916,43.7595 C169.6106,47.3405 169.3806,49.4865 169.0006,50.1965 C168.6206,50.9075 168.1206,51.2625 167.5006,51.2625 C166.9006,51.2625 166.4096,50.9075 166.0296,50.1965 C165.6496,49.4865 165.4196,47.3405 165.3396,43.7595 C165.4196,40.1785 165.6496,38.0325 166.0296,37.3225 L166.0296,37.3225 Z M163.8396,35.8965 C163.1186,37.5375 162.7586,40.1885 162.7586,43.8495 C162.7586,47.3715 163.1186,49.9865 163.8396,51.6975 C164.5596,53.4075 165.7996,54.2635 167.5606,54.2635 C169.3206,54.2635 170.5616,53.4075 171.2816,51.6975 C172.0006,49.9865 172.3616,47.3715 172.3616,43.8495 C172.3616,40.1885 172.0006,37.5375 171.2816,35.8965 C170.5626,34.2565 169.3206,33.4365 167.5606,33.4365 C165.7996,33.4365 164.5606,34.2565 163.8396,35.8965 L163.8396,35.8965 Z M149.5936,35.1325 C150.4236,34.2625 151.4586,33.8275 152.7006,33.8275 C153.9606,33.8275 154.9906,34.2575 155.7906,35.1185 C156.5906,35.9775 156.9916,37.0965 156.9916,38.4775 C156.9916,39.2385 156.8266,39.9785 156.4956,40.6985 C156.1656,41.4185 155.5996,42.4285 154.7996,43.7295 C153.8596,45.1295 153.0696,46.5755 152.4296,48.0655 C152.0166,49.0255 151.7166,49.8635 151.5276,50.5785 C151.3846,51.1235 151.8086,51.6525 152.3716,51.6525 L156.2586,51.6525 C156.6626,51.6525 156.9916,51.9805 156.9916,52.3845 L156.9916,53.5315 C156.9916,53.9355 156.6626,54.2635 156.2586,54.2635 L149.5326,54.2635 C148.8726,54.2635 148.3446,53.7045 148.3926,53.0455 C148.5156,51.3725 148.8896,49.7035 149.5186,48.0365 C150.2986,45.9655 151.1786,44.2705 152.1586,42.9505 C152.9196,41.8695 153.4796,40.9695 153.8396,40.2495 C154.2006,39.5295 154.3806,38.9385 154.3806,38.4785 C154.3396,37.7175 154.1746,37.1775 153.8846,36.8585 C153.5946,36.5385 153.1986,36.3685 152.6996,36.3475 C152.2386,36.3475 151.8486,36.4835 151.5286,36.7525 C151.3226,36.9275 151.1666,37.1835 151.0596,37.5195 C150.9386,37.9015 150.5676,38.1485 150.1676,38.1485 L149.4366,38.1485 C148.7966,38.1485 148.3406,37.5275 148.5256,36.9145 C148.7216,36.2685 149.0766,35.6745 149.5936,35.1325 L149.5936,35.1325 Z M136.3126,37.3225 C136.6926,36.6125 137.1826,36.2575 137.7826,36.2575 C138.4026,36.2575 138.9036,36.6125 139.2836,37.3225 C139.6636,38.0325 139.8946,40.1785 139.9736,43.7595 C139.8946,47.3405 139.6636,49.4865 139.2836,50.1965 C138.9036,50.9075 138.4026,51.2625 137.7826,51.2625 C137.1826,51.2625 136.6926,50.9075 136.3126,50.1965 C135.9326,49.4865 135.7026,47.3405 135.6236,43.7595 C135.7026,40.1785 135.9326,38.0325 136.3126,37.3225 L136.3126,37.3225 Z M137.8436,54.2635 C139.6036,54.2635 140.8446,53.4075 141.5646,51.6975 C142.2836,49.9865 142.6446,47.3715 142.6446,43.8495 C142.6446,40.1885 142.2836,37.5375 141.5646,35.8965 C140.8446,34.2565 139.6036,33.4365 137.8436,33.4365 C136.0836,33.4365 134.8426,34.2565 134.1226,35.8965 C133.4016,37.5375 133.0426,40.1885 133.0426,43.8495 C133.0426,47.3715 133.4016,49.9865 134.1226,51.6975 C134.8416,53.4075 136.0826,54.2635 137.8436,54.2635 L137.8436,54.2635 Z M124.1226,40.2495 C124.4836,39.5295 124.6626,38.9385 124.6626,38.4785 C124.6226,37.7175 124.4576,37.1775 124.1676,36.8585 C123.8786,36.5385 123.4826,36.3685 122.9826,36.3475 C122.5216,36.3475 122.1316,36.4835 121.8116,36.7525 C121.6056,36.9275 121.4486,37.1835 121.3426,37.5195 C121.2216,37.9015 120.8496,38.1485 120.4496,38.1485 L119.7196,38.1485 C119.0796,38.1485 118.6236,37.5275 118.8086,36.9145 C119.0046,36.2685 119.3596,35.6745 119.8766,35.1325 C120.7066,34.2625 121.7416,33.8275 122.9836,33.8275 C124.2436,33.8275 125.2736,34.2575 126.0736,35.1185 C126.8736,35.9775 127.2746,37.0965 127.2746,38.4775 C127.2746,39.2385 127.1086,39.9785 126.7786,40.6985 C126.4486,41.4185 125.8826,42.4285 125.0836,43.7295 C124.1426,45.1295 123.3526,46.5755 122.7126,48.0655 C122.2996,49.0255 121.9996,49.8635 121.8106,50.5785 C121.6676,51.1235 122.0916,51.6525 122.6536,51.6525 L126.5416,51.6525 C126.9456,51.6525 127.2746,51.9805 127.2746,52.3845 L127.2746,53.5315 C127.2746,53.9355 126.9456,54.2635 126.5416,54.2635 L119.8156,54.2635 C119.1556,54.2635 118.6276,53.7045 118.6756,53.0455 C118.7976,51.3725 119.1726,49.7035 119.8016,48.0365 C120.5816,45.9655 121.4626,44.2705 122.4426,42.9505 C123.2026,41.8695 123.7626,40.9695 124.1226,40.2495 L124.1226,40.2495 Z M107.4416,42.4085 L112.1016,42.4085 C112.5466,42.4085 112.9066,42.7695 112.9066,43.2145 L112.9066,44.2135 C112.9076,44.6595 112.5466,45.0195 112.1016,45.0195 L107.4416,45.0195 C106.9966,45.0195 106.6356,44.6595 106.6356,44.2135 L106.6356,43.2145 C106.6356,42.7695 106.9966,42.4085 107.4416,42.4085 L107.4416,42.4085 Z M93.4706,35.1325 C94.3006,34.2625 95.3356,33.8275 96.5766,33.8275 C97.8376,33.8275 98.8676,34.2575 99.6676,35.1185 C100.4666,35.9775 100.8676,37.0965 100.8676,38.4775 C100.8676,39.2385 100.7026,39.9785 100.3726,40.6985 C100.0426,41.4185 99.4766,42.4285 98.6766,43.7295 C97.7366,45.1295 96.9466,46.5755 96.3056,48.0655 C95.8936,49.0255 95.5926,49.8635 95.4046,50.5785 C95.2616,51.1235 95.6846,51.6525 96.2486,51.6525 L100.1346,51.6525 C100.5396,51.6525 100.8676,51.9805 100.8676,52.3845 L100.8676,53.5315 C100.8676,53.9355 100.5396,54.2635 100.1346,54.2635 L93.4086,54.2635 C92.7496,54.2635 92.2206,53.7045 92.2696,53.0455 C92.3916,51.3725 92.7666,49.7035 93.3946,48.0365 C94.1756,45.9655 95.0556,44.2705 96.0356,42.9505 C96.7966,41.8695 97.3566,40.9695 97.7166,40.2495 C98.0766,39.5295 98.2566,38.9385 98.2566,38.4785 C98.2156,37.7175 98.0506,37.1775 97.7616,36.8585 C97.4716,36.5385 97.0756,36.3685 96.5766,36.3475 C96.1156,36.3475 95.7256,36.4835 95.4056,36.7525 C95.1986,36.9275 95.0426,37.1835 94.9356,37.5195 C94.8156,37.9015 94.4436,38.1485 94.0436,38.1485 L93.3136,38.1485 C92.6726,38.1485 92.2176,37.5275 92.4026,36.9145 C92.5976,36.2685 92.9536,35.6745 93.4706,35.1325 L93.4706,35.1325 Z M81.0356,50.5785 C80.8926,51.1235 81.3156,51.6525 81.8796,51.6525 L85.7656,51.6525 C86.1706,51.6525 86.4986,51.9805 86.4986,52.3845 L86.4986,53.5315 C86.4986,53.9355 86.1706,54.2635 85.7656,54.2635 L79.0406,54.2635 C78.3806,54.2635 77.8526,53.7045 77.9006,53.0455 C78.0226,51.3725 78.3986,49.7035 79.0256,48.0365 C79.8066,45.9655 80.6866,44.2705 81.6676,42.9505 C82.4276,41.8695 82.9876,40.9695 83.3476,40.2495 C83.7076,39.5295 83.8876,38.9385 83.8876,38.4785 C83.8466,37.7175 83.6816,37.1775 83.3926,36.8585 C83.1026,36.5385 82.7066,36.3685 82.2076,36.3475 C81.7466,36.3475 81.3566,36.4835 81.0366,36.7525 C80.8306,36.9275 80.6736,37.1835 80.5676,37.5195 C80.4466,37.9015 80.0746,38.1485 79.6746,38.1485 L78.9446,38.1485 C78.3036,38.1485 77.8486,37.5275 78.0336,36.9145 C78.2286,36.2685 78.5856,35.6745 79.1016,35.1325 C79.9316,34.2625 80.9666,33.8275 82.2076,33.8275 C83.4676,33.8275 84.4986,34.2575 85.2986,35.1185 C86.0986,35.9775 86.4986,37.0965 86.4986,38.4775 C86.4986,39.2385 86.3336,39.9785 86.0036,40.6985 C85.6726,41.4185 85.1076,42.4285 84.3076,43.7295 C83.3676,45.1295 82.5776,46.5755 81.9366,48.0655 C81.5246,49.0255 81.2246,49.8635 81.0356,50.5785 L81.0356,50.5785 Z M71.3256,42.4085 C71.7706,42.4085 72.1316,42.7695 72.1316,43.2145 L72.1316,44.2135 C72.1316,44.6595 71.7706,45.0195 71.3256,45.0195 L66.6666,45.0195 C66.2216,45.0195 65.8596,44.6595 65.8596,44.2135 L65.8596,43.2145 C65.8596,42.7695 66.2216,42.4085 66.6666,42.4085 L71.3256,42.4085 Z M57.4826,48.0515 C57.4826,45.7505 56.9216,44.6005 55.8016,44.6005 L55.5116,44.6005 C55.1906,44.6005 54.9316,44.3405 54.9316,44.0205 L54.9316,42.5695 C54.9316,42.2485 55.1916,41.9895 55.5116,41.9895 L55.8016,41.9895 C56.6816,41.9895 57.1516,41.0395 57.2126,39.1395 C57.1516,37.0785 56.6816,36.0475 55.8016,36.0475 C55.0936,36.0785 54.6586,36.4285 54.4956,37.0975 C54.3976,37.4965 54.0556,37.7885 53.6446,37.7885 L52.7316,37.7885 C52.1736,37.7885 51.7596,37.2705 51.8766,36.7255 C52.0436,35.9465 52.3716,35.2705 52.8606,34.6965 C53.5616,33.8765 54.5116,33.4665 55.7126,33.4665 C56.9516,33.4665 57.9326,33.9815 58.6526,35.0125 C59.3736,36.0425 59.7336,37.4275 59.7336,39.1685 C59.7336,40.5445 59.4776,41.6655 58.9646,42.5295 C58.7306,42.9255 58.7756,43.4195 59.0166,43.8115 C59.7336,44.9765 60.0926,46.3895 60.0926,48.0515 C60.0926,50.1115 59.7026,51.6625 58.9216,52.7025 C58.1416,53.7435 57.1016,54.2635 55.8006,54.2635 C54.3796,54.2635 53.2996,53.8135 52.5596,52.9125 C52.0226,52.2595 51.6806,51.4955 51.5326,50.6205 C51.4426,50.0805 51.8426,49.5815 52.3906,49.5815 L53.4976,49.5815 C53.8806,49.5815 54.2326,49.8275 54.3306,50.1975 C54.5776,51.1275 55.0686,51.5925 55.8016,51.5925 C56.9216,51.6325 57.4826,50.4525 57.4826,48.0515 L57.4826,48.0515 Z M42.4136,50.1965 C42.0326,50.9075 41.5326,51.2625 40.9126,51.2625 C40.3126,51.2625 39.8226,50.9075 39.4426,50.1965 C39.0626,49.4865 38.8316,47.3405 38.7526,43.7595 C38.8316,40.1785 39.0626,38.0325 39.4426,37.3225 C39.8226,36.6125 40.3126,36.2575 40.9126,36.2575 C41.5326,36.2575 42.0326,36.6125 42.4136,37.3225 C42.7936,38.0325 43.0236,40.1785 43.1046,43.7595 C43.0236,47.3405 42.7936,49.4865 42.4136,50.1965 L42.4136,50.1965 Z M40.9736,33.4365 C39.2126,33.4365 37.9726,34.2565 37.2526,35.8965 C36.5316,37.5375 36.1716,40.1885 36.1716,43.8495 C36.1716,47.3715 36.5316,49.9865 37.2526,51.6975 C37.9716,53.4075 39.2126,54.2635 40.9736,54.2635 C42.7336,54.2635 43.9746,53.4075 44.6936,51.6975 C45.4136,49.9865 45.7746,47.3715 45.7746,43.8495 C45.7746,40.1885 45.4136,37.5375 44.6936,35.8965 C43.9746,34.2565 42.7336,33.4365 40.9736,33.4365 L40.9736,33.4365 Z" mask="url(#kb_title-b)"/>
    </g>
  </g>
</svg>
